<svg xmlns="http://www.w3.org/2000/svg" width="16" height="16" viewBox="0 0 16 16">
    <g fill="none" fill-rule="evenodd">
        <g>
            <g>
                <g transform="translate(-40 -618) translate(16 616) translate(24 2)" style="mix-blend-mode:luminosity">
                    <circle cx="8" cy="8" r="7.5" fill="#FFF" stroke="gray"/>
                    <path fill="gray" fill-rule="nonzero" d="M11.848 7.315c.061-.049.152-.004.152.073v3.195c0 .414-.336.75-.75.75h-6.5c-.414 0-.75-.336-.75-.75V7.39c0-.079.09-.122.152-.074.35.272.814.617 2.407 1.775.33.24.886.747 1.441.744.558.005 1.125-.513 1.442-.744 1.594-1.158 2.056-1.505 2.406-1.776zM8 9.333c.363.007.884-.456 1.147-.647 2.073-1.504 2.231-1.635 2.71-2.01.09-.07.143-.18.143-.296v-.297c0-.414-.336-.75-.75-.75h-6.5c-.414 0-.75.336-.75.75v.297c0 .116.053.224.144.296.478.373.636.506 2.71 2.01.262.191.784.654 1.146.647z"/>
                </g>
            </g>
        </g>
    </g>
</svg>
