<svg xmlns="http://www.w3.org/2000/svg" width="16" height="16" viewBox="0 0 16 16">
    <g fill="none" fill-rule="evenodd">
        <g fill="gray" fill-rule="nonzero">
            <g>
                <g>
                    <g>
                        <path d="M9.386 6.756c.224 0 .418-.082.583-.247l2.638-2.63.807-.904-.12 1.494v1.009c0 .214.075.395.224.542.15.147.337.22.56.22.225.005.416-.065.572-.21.157-.144.236-.323.236-.537v-3.99c0-.34-.091-.6-.273-.782-.182-.181-.442-.272-.78-.272H9.796c-.22 0-.401.078-.546.235-.144.157-.214.35-.209.58 0 .223.074.41.22.56.148.15.328.224.542.224h1.061l1.525-.127-.927.8-2.638 2.645c-.174.174-.261.38-.261.62 0 .22.077.402.232.55.154.146.35.22.59.22zm2.047 8.534c.658 0 1.235-.109 1.73-.325.496-.217.963-.557 1.402-1.02.024-.03.05-.059.078-.086.027-.028.054-.056.078-.086.21-.24.37-.493.482-.762.113-.27.169-.526.169-.77 0-.3-.074-.58-.22-.84-.148-.262-.39-.51-.73-.744L12.1 9.042c-.38-.264-.768-.394-1.166-.392-.399.003-.755.163-1.069.482l-.515.523c-.125.12-.25.183-.378.19-.127.008-.273-.053-.437-.182-.135-.1-.293-.227-.475-.381-.181-.155-.367-.318-.556-.49-.19-.172-.361-.335-.516-.49-.15-.149-.3-.306-.452-.47-.152-.165-.295-.328-.43-.49-.134-.162-.251-.312-.35-.452-.12-.164-.179-.311-.177-.44.003-.13.066-.255.191-.374l.516-.516c.318-.319.48-.677.485-1.076.005-.399-.127-.785-.396-1.158L4.663.897c-.21-.299-.452-.523-.729-.672C3.658.075 3.368 0 3.064 0c-.25-.005-.502.043-.759.142-.256.1-.504.254-.743.464-.03.02-.059.042-.086.067-.028.025-.051.045-.071.06-.324.309-.59.622-.796.941-.207.32-.36.67-.46 1.05C.05 3.105 0 3.54 0 4.028c0 .782.137 1.587.411 2.414.274.827.694 1.669 1.26 2.526.565.857 1.283 1.716 2.155 2.578.877.857 1.74 1.562 2.59 2.115.849.553 1.69.962 2.525 1.229.835.266 1.665.4 2.492.4zm-.022-1.435c-.633.005-1.302-.12-2.006-.374-.705-.254-1.433-.636-2.183-1.147-.75-.51-1.513-1.144-2.29-1.902-.777-.767-1.423-1.53-1.94-2.29-.515-.76-.898-1.497-1.15-2.212-.252-.715-.375-1.389-.37-2.021.005-.384.076-.741.213-1.073.137-.331.34-.611.61-.84.03-.03.06-.058.093-.083l.093-.074c.095-.075.19-.132.288-.172.097-.04.193-.06.287-.06.235 0 .424.107.568.321l1.323 1.958c.105.155.15.315.138.482-.012.167-.093.323-.243.467l-.485.471c-.33.309-.497.623-.505.942-.007.318.076.61.25.874.175.269.439.607.793 1.013.353.406.72.793 1.098 1.162.29.284.58.56.875.829.293.27.566.51.818.721.251.212.457.37.616.475.26.17.548.251.867.246.319-.005.633-.172.942-.5l.47-.486c.145-.155.3-.237.468-.247.166-.01.33.035.49.135l1.86 1.225c.114.08.197.167.246.262.05.095.075.197.075.306 0 .2-.08.391-.239.576l-.075.1-.074.101c-.23.264-.511.465-.845.602-.334.137-.692.208-1.076.213z" transform="translate(-195 -390) translate(87 63) translate(44 300) translate(64 27)"/>
                    </g>
                </g>
            </g>
        </g>
    </g>
</svg>
