<svg xmlns="http://www.w3.org/2000/svg" width="16" height="16" viewBox="0 0 16 16">
    <g fill="none" fill-rule="evenodd">
        <g fill="gray" fill-rule="nonzero">
            <g>
                <g>
                    <g>
                        <path d="M3.064 0c.304 0 .594.075.87.225.277.149.52.373.729.672l1.711 2.429c.27.373.401.76.396 1.158-.005.399-.167.757-.485 1.076l-.516.516c-.125.12-.188.244-.19.373-.003.13.056.277.175.441.1.14.217.29.351.452.135.162.278.325.43.49.152.164.303.321.452.47.155.155.326.318.516.49.189.172.375.335.556.49.182.154.34.281.475.38.164.13.31.191.437.184.127-.008.253-.071.378-.19l.515-.524c.314-.319.67-.48 1.069-.482.398-.002.787.128 1.166.392l2.324 1.615c.338.234.581.482.728.743.147.262.22.542.22.84 0 .245-.055.502-.168.77-.112.27-.272.524-.482.763-.024.03-.05.058-.078.086-.027.027-.054.056-.078.086-.439.463-.906.803-1.402 1.02-.495.216-1.072.325-1.73.325-.827 0-1.657-.134-2.492-.4-.834-.267-1.676-.676-2.526-1.23-.849-.552-1.712-1.257-2.589-2.114-.872-.862-1.59-1.721-2.156-2.578-.565-.857-.985-1.7-1.259-2.526C.137 5.615 0 4.81 0 4.028c0-.488.05-.923.15-1.304.1-.38.252-.73.459-1.05.207-.319.472-.632.796-.941.02-.015.043-.035.07-.06.028-.025.057-.047.087-.067.239-.21.487-.364.743-.464.257-.1.51-.147.759-.142zm-.008 1.607c-.094 0-.19.02-.287.06-.097.04-.193.097-.288.172-.03.025-.061.05-.093.074-.033.025-.064.053-.094.083-.269.229-.472.509-.609.84-.137.332-.208.689-.213 1.073-.005.632.118 1.306.37 2.021.252.715.635 1.452 1.15 2.212.517.76 1.163 1.523 1.94 2.29.777.758 1.54 1.392 2.29 1.902s1.478.893 2.183 1.147c.704.254 1.373.379 2.006.374.384-.005.742-.076 1.076-.213.334-.137.615-.338.845-.602l.074-.1.075-.101c.16-.185.24-.376.24-.576 0-.11-.026-.211-.076-.306s-.132-.182-.246-.262l-1.86-1.225c-.16-.1-.324-.145-.49-.135-.167.01-.323.092-.467.247l-.471.486c-.31.328-.623.495-.942.5-.319.005-.608-.077-.867-.246-.16-.105-.365-.263-.616-.475-.252-.212-.525-.452-.818-.721-.294-.269-.586-.545-.875-.83-.378-.368-.745-.755-1.098-1.161-.354-.406-.618-.744-.792-1.013-.175-.264-.258-.556-.25-.874.007-.32.175-.633.504-.942l.485-.47c.15-.145.23-.3.243-.468.013-.167-.033-.327-.138-.482L3.624 1.928c-.144-.214-.333-.321-.568-.321zM14.064.449c.239 0 .436.073.59.22.155.147.232.33.232.55 0 .239-.087.445-.262.62l-2.638 2.645-.926.8 1.524-.127h1.061c.215 0 .395.074.542.224.147.15.22.336.22.56.006.23-.064.422-.209.58-.144.156-.326.235-.545.235H9.618c-.34 0-.6-.091-.781-.273-.182-.182-.273-.442-.273-.78V1.711c0-.215.078-.394.235-.538.157-.145.348-.215.572-.21.224 0 .41.074.56.22.15.148.225.328.225.543v1.008l-.12 1.495.807-.904 2.638-2.63c.164-.165.359-.247.583-.247z" transform="translate(-195 -182) translate(87 63) translate(44 91) translate(64 28)"/>
                    </g>
                </g>
            </g>
        </g>
    </g>
</svg>
