<svg xmlns="http://www.w3.org/2000/svg" width="10" height="10" viewBox="0 0 10 10">
    <g fill="none" fill-rule="evenodd">
        <g fill="#1F1E33" fill-rule="nonzero">
            <path d="M5 0c2.762 0 5 2.238 5 5s-2.238 5-5 5-5-2.238-5-5 2.238-5 5-5zm2.296 4.657L4.565 1.925c-.19-.19-.496-.19-.684 0l-.343.343c-.19.19-.19.496 0 .684L5.587 5 3.538 7.048c-.19.19-.19.496 0 .684l.343.343c.19.19.496.19.684 0l2.731-2.732c.19-.19.19-.496 0-.686z" transform="translate(-683 -681) translate(683 681)"/>
        </g>
    </g>
</svg>
