<svg xmlns="http://www.w3.org/2000/svg" xmlns:xlink="http://www.w3.org/1999/xlink" width="115" height="24" viewBox="0 0 115 24">
    <defs>
        <linearGradient id="5crsehq7fa" x1="50%" x2="50%" y1="0%" y2="100%">
            <stop offset="0%" stop-color="#291E3A"/>
            <stop offset="100%" stop-color="#2E2342"/>
        </linearGradient>
        <linearGradient id="cqnpjin3ab" x1="50%" x2="50%" y1="0%" y2="100%">
            <stop offset="0%" stop-color="#324B5A"/>
            <stop offset="100%" stop-color="#2F4655"/>
        </linearGradient>
        <linearGradient id="crbs3q9akd" x1="50%" x2="50%" y1="0%" y2="100%">
            <stop offset="0%" stop-color="#38586C"/>
            <stop offset="100%" stop-color="#2F4655"/>
        </linearGradient>
        <path id="gj2ku8uh2c" d="M6.715 23.977s-.335-.685-.902-1.522c-.526-.776-1.23-1.675-1.77-2.178-.526-.49-1.446-1.265-2.273-1.756-.933-.554-1.758-.784-1.758-.784V23.8l.175.176h6.528z"/>
        <path id="iqgrm9p0ge" d="M0 13.885s1.185.316 2.66 1.182c1.15.675 2.574 1.824 3.305 2.564.798.808 1.914 2.21 2.683 3.571.804 1.422 1.243 2.786 1.243 2.786h7.265s-.398-2.88-1.816-5.76c-1.418-2.88-3.132-4.66-4.371-5.912-1.3-1.313-3.34-2.962-5.485-3.957C2.764 7.097 0 6.579 0 6.579v7.306z"/>
    </defs>
    <g fill="none" fill-rule="evenodd">
        <g>
            <path fill="#1F1E33" fill-rule="nonzero" d="M32.795 18v-5.415l2.685 4.38h1.32l2.7-4.53.03 5.565h2.73l-.03-10.5h-2.445l-3.6 6.06-3.69-6.06H30.05V18h2.745zm16.41.21c1.56 0 2.773-.425 3.638-1.275.864-.85 1.297-2.055 1.297-3.615V7.5h-2.925v5.73c0 1.68-.66 2.52-1.98 2.52-1.33 0-1.995-.84-1.995-2.52V7.5h-2.97v5.82c0 1.56.432 2.765 1.297 3.615.865.85 2.078 1.275 3.638 1.275zM64.13 18v-2.355h-5.01V7.5h-2.97V18h7.98zm5.4 0V9.855h3.21V7.5h-9.405v2.355h3.225V18h2.97zm7.29 0V7.5h-2.97V18h2.97zm10.095 0v-2.355h-5.01V7.5h-2.97V18h7.98zm4.14 0V7.5h-2.97V18h2.97zm5.025 0v-5.595L100.715 18h2.445V7.5h-2.91v5.595L95.615 7.5H93.17V18h2.91zm17.61 0v-2.295h-5.49v-1.92h4.665v-2.22H108.2v-1.77h5.295V7.5h-8.235V18h8.43z"/>
            <g>
                <rect width="24" height="23.977" fill="url(#5crsehq7fa)" rx="2"/>
                <g opacity=".1">
                    <use fill="url(#cqnpjin3ab)" xlink:href="#gj2ku8uh2c"/>
                    <use fill="#FFF" xlink:href="#gj2ku8uh2c"/>
                </g>
                <g opacity=".1">
                    <use fill="url(#crbs3q9akd)" xlink:href="#iqgrm9p0ge"/>
                    <use fill="#FFF" xlink:href="#iqgrm9p0ge"/>
                </g>
                <path fill="#FFF" d="M14.016 15.828s-.228.152-.34.152c-.138 0-.41-.152-.41-.152s-.727-.374-1.594-.983c-.867-.609-1.524-1.3-1.524-1.3s-.878-.983-1.242-1.568c-.363-.586-.75-1.335-.75-1.335s-.102-.193-.094-.281c.011-.107.153-.304.153-.304L9.75 8.64s.246-.27.223-.48c-.024-.21-.223-.48-.223-.48L8.133 4.87s-.188-.234-.317-.234H7.5l-.867.187s-.342.098-.61.27c-.206.132-.345.321-.433.421-.258.293-.445.703-.445.703s-.336.678-.422.983c-.105.37-.153 1.042-.153 1.042s.058.825.282 1.498c.14.424.466 1.3.738 1.932.193.45.375.761.375.761s.697 1.155 1.195 1.756c.513.62 1.84 1.909 1.84 1.909s1.313 1.24 2.285 1.79c.36.205.853.476 1.453.715.824.327 1.735.597 1.735.597l.574.176s.908.072 1.312.035c.354-.033.961-.246.961-.246s.529-.255.785-.422c.244-.157.704-.526.704-.526s.173-.184.257-.328c.057-.098.153-.41.153-.41l.21-.925s.03-.28 0-.386c-.025-.092-.163-.188-.163-.188s-.444-.28-.668-.41c-.651-.377-1.957-1.111-1.957-1.111l-.551-.352s-.193-.048-.281-.035c-.088.014-.246.117-.246.117s-.263.218-.41.375c-.368.39-1.137 1.264-1.137 1.264z"/>
            </g>
        </g>
    </g>
</svg>
