<svg xmlns="http://www.w3.org/2000/svg" width="171" height="18" viewBox="0 0 171 18">
    <g fill="none" fill-rule="evenodd">
        <g fill-rule="nonzero">
            <g>
                <g>
                    <g fill="#1F1E33">
                        <path d="M.022.202L3.362.202 5.85 6.171 8.338.202 11.788.202 11.788 9.657 9.52 9.657 9.52 2.615 6.593 9.656 5.053 9.656 2.194 2.784 2.194 9.656.022 9.656.022.202zM13.412 4.929c0-3.627 1.32-4.897 5.018-4.897 3.71 0 5.017 1.27 5.017 4.897 0 3.627-1.306 4.897-5.017 4.897-3.698 0-5.018-1.27-5.018-4.897zm7.711 0c0-2.23-.59-2.865-2.693-2.865s-2.695.635-2.695 2.865c0 2.23.592 2.865 2.695 2.865 2.102 0 2.693-.635 2.693-2.865zM23.696.202L26.129.202 28.575 6.834 31.008.202 33.345.202 29.702 9.657 27.338 9.657zM34.226.202L36.494.202 36.494 9.657 34.226 9.657zM38.35 5.79V.202h2.268V5.79c0 1.58.413 1.99 2.2 1.99 1.718 0 2.157-.381 2.157-1.99V.202h2.172V5.79c0 3.203-.907 4.036-4.399 4.036-3.491 0-4.398-.833-4.398-4.036zM48.496 9.303l.138-2.088c1.14.423 2.377.607 4.068.607 1.622 0 1.993-.17 1.993-.946 0-.55-.192-.747-1.333-.846l-1.65-.141c-2.295-.198-3.12-.86-3.12-2.794 0-2.272 1.127-3.063 4.33-3.063 1.278 0 2.392.128 3.588.452l-.138 2.074c-1.168-.366-2.24-.522-3.67-.522-1.553 0-1.842.184-1.842.89 0 .507.151.705 1.347.804l1.636.14c2.364.212 3.12.932 3.12 2.866 0 2.328-1.113 3.09-4.426 3.09-1.622 0-2.955-.184-4.04-.523z" transform="translate(-555 -653) translate(555 653) translate(89) translate(24.066 3.743)"/>
                    </g>
                    <g>
                        <path fill="#FF4E3B" d="M0 0.015H16.865V17.329H0z" transform="translate(-555 -653) translate(555 653) translate(89)"/>
                        <g fill="#FFF">
                            <path d="M1.845 11.105L1.845 1.741 2.124 2.058 5.405 5.326 10.84 0 8.212 0 5.415 2.741 2.665 0 0.032 0 0.032 11.105z" transform="translate(-555 -653) translate(555 653) translate(89) translate(2.998 3.12)"/>
                            <path d="M5.415 7.419L3.277 5.289 3.277 7.884 5.405 10.004 9.022 6.459 9.022 11.105 10.837 11.105 10.837 2.106z" transform="translate(-555 -653) translate(555 653) translate(89) translate(2.998 3.12)"/>
                        </g>
                    </g>
                </g>
                <path fill="#000" d="M1.636 12.857v-2.726H3.86c2.34 0 3.754-1.182 3.754-3.137 0-1.954-1.414-3.137-3.754-3.137H.35v9h1.286zM3.82 9.013H1.636V4.976H3.82c1.646 0 2.508.733 2.508 2.018 0 1.286-.862 2.019-2.508 2.019zm8.91 3.921c2.045 0 3.536-1.453 3.536-3.484 0-2.031-1.491-3.471-3.536-3.471-2.044 0-3.548 1.44-3.548 3.471s1.504 3.484 3.548 3.484zm0-1.08c-1.311 0-2.301-.951-2.301-2.404 0-1.453.99-2.391 2.301-2.391 1.312 0 2.289.938 2.289 2.391s-.977 2.404-2.289 2.404zm8.19 1.003l1.993-5.168 1.967 5.168h1.183l2.546-6.814h-1.106l-2.031 5.451-2.019-5.451h-1.041l-2.057 5.426-1.98-5.426h-1.17l2.533 6.814h1.182zm12.292.077c1.131 0 2.07-.385 2.687-1.105l-.681-.798c-.502.553-1.17.823-1.968.823-1.35 0-2.314-.797-2.468-1.993h5.528c.013-.115.026-.27.026-.372 0-2.096-1.401-3.51-3.368-3.51-1.968 0-3.42 1.452-3.42 3.471 0 2.031 1.465 3.484 3.664 3.484zm1.941-3.96h-4.371c.128-1.157 1.003-1.954 2.186-1.954 1.195 0 2.057.81 2.185 1.954zm4.642 3.883V9.463c0-1.492.823-2.302 2.147-2.302.09 0 .18 0 .283.013V5.98c-1.196 0-2.045.411-2.482 1.208V6.043h-1.183v6.814h1.235zm7.431.077c1.132 0 2.07-.385 2.687-1.105l-.681-.798c-.502.553-1.17.823-1.967.823-1.35 0-2.315-.797-2.469-1.993h5.529c.013-.115.025-.27.025-.372 0-2.096-1.401-3.51-3.368-3.51-1.967 0-3.42 1.452-3.42 3.471 0 2.031 1.466 3.484 3.664 3.484zm1.942-3.96h-4.372c.129-1.157 1.003-1.954 2.186-1.954 1.196 0 2.057.81 2.186 1.954zm6.222 3.96c1.003 0 1.878-.385 2.43-1.157v1.08h1.183v-9.54H57.77v3.754c-.566-.732-1.414-1.092-2.379-1.092-1.992 0-3.445 1.388-3.445 3.471s1.453 3.484 3.445 3.484zm.103-1.08c-1.311 0-2.301-.951-2.301-2.404 0-1.453.99-2.391 2.301-2.391 1.299 0 2.289.938 2.289 2.391s-.99 2.404-2.289 2.404zm14.812 1.003c2.275 0 3.445-.887 3.445-2.43 0-1.196-.668-1.954-1.684-2.237.707-.347 1.209-1.029 1.209-2.006 0-1.453-1.157-2.327-3.227-2.327H66.01v9h4.295zm-.373-5.078h-2.636v-2.88h2.636c1.311 0 2.057.488 2.057 1.44 0 .951-.746 1.44-2.057 1.44zm.321 4.037h-2.957V8.82h2.957c1.427 0 2.199.463 2.199 1.504 0 1.042-.772 1.492-2.199 1.492zm6.12 3.613c1.042 0 1.826-.45 2.43-1.89l3.305-7.496H80.9l-2.353 5.451-2.378-5.451h-1.286l3.008 6.801-.218.476c-.334.784-.707 1.054-1.299 1.054-.463 0-.887-.18-1.221-.501l-.527.926c.424.411 1.093.63 1.748.63z" transform="translate(-555 -653) translate(555 653)"/>
            </g>
        </g>
    </g>
</svg>
