<?xml version="1.0" encoding="UTF-8"?>
<svg width="7.0564mm" height="5.6444mm" version="1.1" viewBox="0 0 7.0564 5.6444" xmlns="http://www.w3.org/2000/svg">
 <defs>
  <clipPath id="clipPath9749-3">
   <path d="m1364 637.12c2.209 0 4 1.7906 4 4s-1.791 4-4 4-4-1.7906-4-4 1.791-4 4-4zm2.8-1h-0.522c-0.694-0.3188-1.466-0.5-2.278-0.5-0.813 0-1.581 0.1812-2.278 0.5h-0.522c-2.319 0-4.2-1.8813-4.2-4.2v-1.3c0-0.8281 0.672-1.5 1.5-1.5h11c0.828 0 1.5 0.6719 1.5 1.5v1.3c0 2.3187-1.881 4.2-4.2 4.2zm10.094 4.0125-0.869 0.8781c-0.144 0.1469-0.378 0.1469-0.525 3e-3l-3.275-3.25-1.422 1.4312c-0.144 0.1469-0.378 0.1469-0.525 3e-3l-0.878-0.8718c-0.147-0.1438-0.147-0.3782 0-0.5251l2.553-2.5718c0.144-0.1469 0.378-0.1469 0.525-3e-3l4.416 4.3813c0.143 0.1469 0.146 0.3812 0 0.525z"/>
  </clipPath>
  <clipPath id="clipPath9755-6">
   <path d="m320 130.12h1280v820h-1280z"/>
  </clipPath>
 </defs>
 <g transform="translate(.59888 -.012599)">
  <g transform="matrix(.35278 0 0 -.35278 -447.67 233.23)">
   <g transform="translate(-89.698 15.964)" fill="#fff">
    <g clip-path="url(#clipPath9749-3)" fill="#fff">
     <g clip-path="url(#clipPath9755-6)" fill="#fff">
      <path d="m1352 624.12h30v26h-30z" fill="#fff"/>
     </g>
    </g>
   </g>
  </g>
 </g>
</svg>
