<?xml version="1.0" encoding="UTF-8"?>
<svg width="3.1849mm" height="4.2465mm" version="1.1" viewBox="0 0 3.1849 4.2465" xmlns="http://www.w3.org/2000/svg" xmlns:cc="http://creativecommons.org/ns#" xmlns:dc="http://purl.org/dc/elements/1.1/" xmlns:rdf="http://www.w3.org/1999/02/22-rdf-syntax-ns#">
 <defs>
  <clipPath id="clipPath2867">
   <path d="m642.87 666.86c-0.3918 0-0.7622-0.189-0.9977-0.5015h-0.7578c-0.3265 0-0.6021-0.2104-0.706-0.5016h-1.0493c-0.553-1e-4 -1.0032-0.4498-1.0032-1.003v-9.028c0-0.5532 0.4502-1.0032 1.0032-1.0032h7.0216c0.553 0 1.0032 0.45 1.0032 1.0032v9.028c0 0.5532-0.4502 1.003-1.0032 1.003h-1.0493c-0.1038 0.2912-0.3795 0.5016-0.706 0.5016h-0.7577c-0.2356 0.3125-0.606 0.5015-0.9978 0.5015zm0-0.5015c0.268 0 0.51-0.1407 0.6475-0.3768 0.0445-0.0771 0.1273-0.1248 0.2166-0.1248h0.8914c0.1381 0 0.2509-0.1123 0.2509-0.2507v-0.2508c0-0.2765-0.225-0.5015-0.5017-0.5015h-3.0093c-0.2767 0-0.5015 0.225-0.5015 0.5015v0.2508c0 0.1383 0.1125 0.2507 0.2506 0.2507h0.8915c0.0892 0 0.172 0.0477 0.2166 0.1248 0.1375 0.2361 0.3794 0.3768 0.6474 0.3768zm-2.257-3.511c0.4149 0 0.7524-0.3375 0.7524-0.7523s-0.3375-0.7523-0.7524-0.7523c-0.4148 0-0.7523 0.3375-0.7523 0.7523s0.3375 0.7523 0.7523 0.7523zm0-0.5015c-0.138 0-0.2508-0.1125-0.2508-0.2508 0-0.1384 0.1128-0.2507 0.2508-0.2507 0.1381 0 0.2509 0.1123 0.2509 0.2507s-0.1128 0.2508-0.2509 0.2508zm2.0062 0h3.0093c0.1387 0 0.2508-0.1121 0.2508-0.2508s-0.1121-0.2507-0.2508-0.2507h-3.0093c-0.1387 0-0.2507 0.112-0.2507 0.2507s0.112 0.2508 0.2507 0.2508zm-2.0062-2.0061c0.4149 0 0.7524-0.3375 0.7524-0.7524s-0.3375-0.7523-0.7524-0.7523c-0.4148 0-0.7523 0.3374-0.7523 0.7523s0.3375 0.7524 0.7523 0.7524zm0-0.5017c-0.138 0-0.2508-0.1123-0.2508-0.2507s0.1128-0.2508 0.2508-0.2508c0.1381 0 0.2509 0.1124 0.2509 0.2508 0 0.1385-0.1128 0.2507-0.2509 0.2507zm2.0062 0h3.0093c0.1387 0 0.2508-0.1119 0.2508-0.2507 0-0.1386-0.1121-0.2508-0.2508-0.2508h-3.0093c-0.1387 0-0.2507 0.1122-0.2507 0.2508 0 0.1388 0.112 0.2507 0.2507 0.2507zm-2.0062-2.0061c0.4149 0 0.7524-0.3375 0.7524-0.7524 0-0.4148-0.3375-0.7523-0.7524-0.7523-0.4148 0-0.7523 0.3375-0.7523 0.7523 0 0.4149 0.3375 0.7524 0.7523 0.7524zm0-0.5015c-0.138 0-0.2508-0.1126-0.2508-0.2509 0-0.1384 0.1128-0.2508 0.2508-0.2508 0.1381 0 0.2509 0.1125 0.2509 0.2508 0 0.1385-0.1128 0.2509-0.2509 0.2509zm2.0062 0h3.0093c0.1387 0 0.2508-0.1122 0.2508-0.2509 0-0.1386-0.1121-0.2508-0.2508-0.2508h-3.0093c-0.1387 0-0.2507 0.1122-0.2507 0.2508 0 0.1387 0.112 0.2509 0.2507 0.2509z"/>
  </clipPath>
  <clipPath id="clipPath2871">
   <path d="m629.33 563.04h263.32v112.85h-263.32z"/>
  </clipPath>
 </defs>
 <metadata>
  <rdf:RDF>
   <cc:Work rdf:about="">
    <dc:format>image/svg+xml</dc:format>
    <dc:type rdf:resource="http://purl.org/dc/dcmitype/StillImage"/>
    <dc:title/>
   </cc:Work>
  </rdf:RDF>
 </metadata>
 <g transform="matrix(.35278 0 0 -.35278 -225.2 235.25)">
  <g clip-path="url(#clipPath2867)">
   <g clip-path="url(#clipPath2871)">
    <path d="m634.59 651.06h16.551v19.561h-16.551z" fill="#e26c5f"/>
   </g>
  </g>
 </g>
</svg>
