<?xml version="1.0" encoding="UTF-8" standalone="no"?>
<svg
   xmlns:dc="http://purl.org/dc/elements/1.1/"
   xmlns:cc="http://creativecommons.org/ns#"
   xmlns:rdf="http://www.w3.org/1999/02/22-rdf-syntax-ns#"
   xmlns:svg="http://www.w3.org/2000/svg"
   xmlns="http://www.w3.org/2000/svg"
   xmlns:sodipodi="http://sodipodi.sourceforge.net/DTD/sodipodi-0.dtd"
   xmlns:inkscape="http://www.inkscape.org/namespaces/inkscape"
   width="1.5924318mm"
   height="1.5924318mm"
   viewBox="0 0 1.5924318 1.5924317"
   version="1.1"
   id="svg5633"
   inkscape:version="1.0.1 (3bc2e813f5, 2020-09-07)"
   sodipodi:docname="circle_dot.svg">
  <defs
     id="defs5627">
    <clipPath
       clipPathUnits="userSpaceOnUse"
       id="clipPath2839">
      <path
         d="m 658.4559,633.7983 -1.9561,1.9561 c -0.1175,0.1175 -0.1175,0.308 0,0.4256 l 0.4256,0.4255 c 0.1175,0.1176 0.3081,0.1176 0.4256,0 l 1.3177,-1.3177 2.8223,2.8224 c 0.1175,0.1175 0.3081,0.1175 0.4256,0 l 0.4256,-0.4256 c 0.1175,-0.1175 0.1175,-0.3081 0,-0.4256 l -3.4608,-3.4607 c -0.1175,-0.1175 -0.308,-0.1175 -0.4255,0 z"
         id="path2837" />
    </clipPath>
    <clipPath
       clipPathUnits="userSpaceOnUse"
       id="clipPath2843">
      <path
         d="M 629.3276,563.0392 H 892.6433 V 675.8888 H 629.3276 Z"
         id="path2841" />
    </clipPath>
    <clipPath
       clipPathUnits="userSpaceOnUse"
       id="clipPath2807">
      <path
         d="m 658.6685,602.9127 c 1.2465,0 2.257,1.0105 2.257,2.257 0,1.2466 -1.0105,2.257 -2.257,2.257 -1.2466,0 -2.257,-1.0104 -2.257,-2.257 0,-1.2465 1.0104,-2.257 2.257,-2.257 z"
         clip-rule="evenodd"
         id="path2805" />
    </clipPath>
    <clipPath
       clipPathUnits="userSpaceOnUse"
       id="clipPath2811">
      <path
         d="M 629.3276,563.0392 H 892.6433 V 675.8888 H 629.3276 Z"
         id="path2809" />
    </clipPath>
    <clipPath
       clipPathUnits="userSpaceOnUse"
       id="clipPath2815">
      <path
         d="m 656,602 h 5 v 6 h -5 z"
         id="path2813" />
    </clipPath>
    <clipPath
       clipPathUnits="userSpaceOnUse"
       id="clipPath2819">
      <path
         d="m 656.4115,602.9127 h 4.51398 v 4.51398 h -4.51398 z"
         id="path2817" />
    </clipPath>
  </defs>
  <sodipodi:namedview
     id="base"
     pagecolor="#ffffff"
     bordercolor="#666666"
     borderopacity="1.0"
     inkscape:pageopacity="0.0"
     inkscape:pageshadow="2"
     inkscape:zoom="5.6"
     inkscape:cx="-24.638438"
     inkscape:cy="38.53346"
     inkscape:document-units="mm"
     inkscape:current-layer="layer1"
     inkscape:document-rotation="0"
     showgrid="false"
     inkscape:window-width="1267"
     inkscape:window-height="967"
     inkscape:window-x="222"
     inkscape:window-y="156"
     inkscape:window-maximized="0" />
  <metadata
     id="metadata5630">
    <rdf:RDF>
      <cc:Work
         rdf:about="">
        <dc:format>image/svg+xml</dc:format>
        <dc:type
           rdf:resource="http://purl.org/dc/dcmitype/StillImage" />
        <dc:title></dc:title>
      </cc:Work>
    </rdf:RDF>
  </metadata>
  <g
     inkscape:label="Layer 1"
     inkscape:groupmode="layer"
     id="layer1">
    <g
       id="g2925"
       transform="matrix(0.35277777,0,0,-0.35277777,-231.56739,214.28663)">
      <g
         clip-path="url(#clipPath2807)"
         id="g2923">
        <g
           clip-path="url(#clipPath2811)"
           id="g2921">
          <g
             id="g2905" />
          <g
             id="g2919">
            <g
               clip-path="url(#clipPath2815)"
               id="g2917">
              <g
                 id="g2907" />
              <g
                 id="g2915">
                <g
                   clip-path="url(#clipPath2819)"
                   id="g2913">
                  <g
                     transform="matrix(0.7523304,0,0,-0.7523304,656.4115,607.4267)"
                     id="g2911">
                    <path
                       d="M 3,6 C 4.656854,6 6,4.656854 6,3 6,1.343146 4.656854,0 3,0 1.343146,0 0,1.343146 0,3 0,4.656854 1.343146,6 3,6 Z"
                       style="fill:none;stroke:#1f1e33;stroke-width:2;stroke-linecap:butt;stroke-linejoin:miter;stroke-miterlimit:10;stroke-dasharray:none;stroke-opacity:1"
                       id="path2909" />
                  </g>
                </g>
              </g>
            </g>
          </g>
        </g>
      </g>
    </g>
  </g>
</svg>
