<?xml version="1.0" encoding="UTF-8"?>
<svg width="19.403mm" height="7.0556mm" version="1.1" viewBox="0 0 19.403 7.0556" xmlns="http://www.w3.org/2000/svg" xmlns:cc="http://creativecommons.org/ns#" xmlns:dc="http://purl.org/dc/elements/1.1/" xmlns:rdf="http://www.w3.org/1999/02/22-rdf-syntax-ns#">
 <defs>
  <clipPath id="clipPath19753">
   <path d="m63.5 125.49 3.0238 103.57 112.64 4.5357-15.875-107.35-73.327-2.2679" fill="none" stroke="#000" stroke-width=".26458px"/>
  </clipPath>
  <clipPath id="clipPath19466-5">
   <path d="m1402.5 906.75h55v20h-55z"/>
  </clipPath>
  <clipPath id="clipPath19482">
   <path d="m1406.5 910.08h13v13.333h-13z"/>
  </clipPath>
  <clipPath id="clipPath19492">
   <path d="m1402.5 906.75h55v20h-55z"/>
  </clipPath>
 </defs>
 <metadata>
  <rdf:RDF>
   <cc:Work rdf:about="">
    <dc:format>image/svg+xml</dc:format>
    <dc:type rdf:resource="http://purl.org/dc/dcmitype/StillImage"/>
    <dc:title/>
   </cc:Work>
  </rdf:RDF>
 </metadata>
 <circle cx="85.801" cy="78.052" r=".024977" clip-path="url(#clipPath19753)" fill="#800000" stroke="#000" stroke-width=".26458"/>
 <g transform="matrix(.35278 0 0 -.35278 -494.76 326.94)">
  <g clip-path="url(#clipPath19466-5)">
   <path d="m1397.5 901.19h65v31.111h-65z" fill="#e02020"/>
   <g transform="matrix(1 0 0 -1.1111 1425.5 925.64)">
    <text transform="translate(0,13)" fill="#ffffff" font-family="Brown" font-size="14px" font-weight="bold"><tspan x="0 7.6999998 15.96 21.98" y="0">E911</tspan></text>
   </g>
  </g>
  <g clip-path="url(#clipPath19482)">
   <path d="m1401.5 904.53h23v24.444h-23z" fill="#fff"/>
  </g>
  <g clip-path="url(#clipPath19492)">
   <g transform="matrix(1 0 0 -1.1111 1410.8 918.97)">
    <path d="m0 5 4.6956-5" fill="none" stroke="#e02020" stroke-linecap="square" stroke-miterlimit="10" stroke-width="2"/>
   </g>
   <g transform="matrix(-1 0 0 -1.1111 1415.5 918.97)">
    <path d="m0 5 4.6956-5" fill="none" stroke="#e02020" stroke-linecap="square" stroke-miterlimit="10" stroke-width="2"/>
   </g>
  </g>
 </g>
</svg>
