<?xml version="1.0" encoding="UTF-8"?>
<svg width="4.2465mm" height="3.7775mm" version="1.1" viewBox="0 0 4.2465 3.7775" xmlns="http://www.w3.org/2000/svg" xmlns:cc="http://creativecommons.org/ns#" xmlns:dc="http://purl.org/dc/elements/1.1/" xmlns:rdf="http://www.w3.org/1999/02/22-rdf-syntax-ns#">
 <defs>
  <clipPath id="clipPath2703">
   <path d="m586.88 585.62c-1.682 0.1885-2.8466 1.8171-2.4436 3.4935zm0.3197-0.6873c-2.1433 0-4.0144 1.144-5.0156 2.8444 0.4547 0.772 1.0889 1.4293 1.8462 1.9169l-0.5755 0.8228c-0.8735-0.5696-1.6067-1.3331-2.1349-2.2301-0.1851-0.3145-0.1851-0.7049 0-1.0193 1.1778-2.0002 3.375-3.3386 5.8798-3.3386 0.2769 0 0.5536 0.0166 0.8285 0.0495l-0.6691 0.9568c-0.0531-2e-3 -0.1063-2e-3 -0.1594-2e-3zm5.8797 2.3347c-0.6944-1.1795-1.7433-2.1278-3-2.7082l1.0055-1.4376c0.0795-0.1135 0.0519-0.2701-0.0616-0.3496l-0.4333-0.3036c-0.1135-0.0794-0.2699-0.0518-0.3493 0.0617l-6.9263 9.9024c-0.0794 0.1136-0.0518 0.2701 0.0616 0.3495l0.4334 0.3037c0.1134 0.0794 0.2698 0.0518 0.3492-0.0617l1.1604-1.6591c0.5978 0.1695 1.2289 0.2603 1.8807 0.2603 2.5049 0 4.702-1.3383 5.8797-3.3385 0.1852-0.3145 0.1852-0.7048 0-1.0193zm-0.8642 0.5097c-0.9228 1.5671-2.5846 2.6616-4.5173 2.8235-0.2047-0.2109-0.3311-0.4985-0.3311-0.8158 0-0.6468 0.524-1.1712 1.1704-1.1712 0.6463 0 1.1702 0.5244 1.1702 1.1712v8e-4c0.6402-1.1978 0.3498-2.7242-0.7717-3.5913l0.5579-0.7975c1.1465 0.4864 2.1011 1.3265 2.7216 2.3803z"/>
  </clipPath>
  <clipPath id="clipPath2709">
   <path d="m349.46 493.07h558.23v288.89h-558.23z"/>
  </clipPath>
 </defs>
 <metadata>
  <rdf:RDF>
   <cc:Work rdf:about="">
    <dc:format>image/svg+xml</dc:format>
    <dc:type rdf:resource="http://purl.org/dc/dcmitype/StillImage"/>
    <dc:title/>
   </cc:Work>
  </rdf:RDF>
 </metadata>
 <g transform="matrix(.35278 0 0 -.35278 -205.03 209.24)">
  <g clip-path="url(#clipPath2703)">
   <g clip-path="url(#clipPath2709)">
    <path d="m577.42 578.66h19.561v18.231h-19.561z" fill-opacity=".4"/>
   </g>
  </g>
 </g>
</svg>
