<?xml version="1.0" encoding="UTF-8"?>
<svg width="25px" height="20px" viewBox="0 0 25 20" version="1.1" xmlns="http://www.w3.org/2000/svg" xmlns:xlink="http://www.w3.org/1999/xlink">
    <title>icons/add to existing contact</title>
    <g id="Teams-SSO" stroke="none" stroke-width="1" fill="none" fill-rule="evenodd">
        <g id="Group-9" transform="translate(-14.000000, -14.000000)" stroke="#FFFFFF">
            <g id="icons/add-to-existing-contact" transform="translate(15.000000, 15.000000)">
                <path d="M12.0591494,3.82833831 C12.0591494,5.94319412 10.3368297,7.65764601 8.21215986,7.65764601 C6.0884882,7.65764601 4.36614415,5.94324259 4.36614415,3.82833831 C4.36614415,1.71442766 6.08846385,-2.66453526e-15 8.21215986,-2.66453526e-15 C10.336781,-2.66453526e-15 12.0591494,1.71440343 12.0591494,3.82833831 M7.99352834,9.51789321 C4.53656961,9.51789321 1.56654077,11.5532111 0.227483585,14.5107036 C-0.527647282,16.1342273 0.689677433,18 2.51566451,18 L13.4964204,18 C15.2976714,18 16.5148987,16.1341304 15.7846013,14.5107036 C14.4208081,11.5533565 11.4506818,9.51789321 7.99372311,9.51789321 L7.99352834,9.51789321 Z" id="icons/create-contact"></path>
                <path d="M22.0428911,3.00047408 C21.8012469,3.00827634 21.572316,3.12672477 21.4033542,3.3295782 C19.9310861,5.05737027 18.5872215,6.75117156 17.1737287,8.44199503 L15.5118631,6.8815785 C15.3192734,6.70071377 15.0733966,6.61702418 14.8281091,6.64894501 C14.5822323,6.68086221 14.3581541,6.82555545 14.2037195,7.05182292 C14.0498912,7.277375 13.978432,7.56533429 14.0056879,7.8526036 C14.0329407,8.14056289 14.1564884,8.40299278 14.3490688,8.58385933 L16.6746574,10.7627555 C17.0465035,11.1088732 17.5806757,11.0727035 17.9149713,10.6776424 C19.5876897,8.71445692 21.0866091,6.78577062 22.7211878,4.86725249 C22.9943204,4.5530375 23.0754834,4.07498767 22.9258861,3.66290392 C22.7756918,3.25011203 22.4256365,2.98766399 22.0428911,3.00044684 L22.0428911,3.00047408 Z" id="Fill-1"></path>
            </g>
        </g>
    </g>
</svg>