<?xml version="1.0" encoding="UTF-8"?>
<svg width="18px" height="20px" viewBox="0 0 18 20" version="1.1" xmlns="http://www.w3.org/2000/svg" xmlns:xlink="http://www.w3.org/1999/xlink">
    <title>icons/create contact</title>
    <g id="Teams-SSO" stroke="none" stroke-width="1" fill="none" fill-rule="evenodd">
        <g id="Group-3-Copy-3" transform="translate(-15.000000, -14.000000)" fill="#FFFFFF" stroke="#FFFFFF">
            <g id="icons/create-contact" transform="translate(16.000000, 15.000000)">
                <path d="M12.0591494,3.82833831 C12.0591494,5.94319412 10.3368297,7.65764601 8.21215986,7.65764601 C6.0884882,7.65764601 4.36614415,5.94324259 4.36614415,3.82833831 C4.36614415,1.71442766 6.08846385,0 8.21215986,0 C10.336781,0 12.0591494,1.71440343 12.0591494,3.82833831 M7.99352834,9.51789321 C4.53656961,9.51789321 1.56654077,11.5532111 0.227483585,14.5107036 C-0.527647282,16.1342273 0.689677433,18 2.51566451,18 L13.4964204,18 C15.2976714,18 16.5148987,16.1341304 15.7846013,14.5107036 C14.4208081,11.5533565 11.4506818,9.51789321 7.99372311,9.51789321 L7.99352834,9.51789321 Z"></path>
            </g>
        </g>
    </g>
</svg>