<?xml version="1.0" encoding="UTF-8"?>
<svg width="32px" height="32px" viewBox="0 0 32 32" version="1.1" xmlns="http://www.w3.org/2000/svg" xmlns:xlink="http://www.w3.org/1999/xlink">
    <title>Group 5</title>
    <defs>
        <filter x="-65.6%" y="-65.6%" width="231.2%" height="231.2%" filterUnits="objectBoundingBox" id="filter-1">
            <feOffset dx="-1" dy="1" in="SourceAlpha" result="shadowOffsetOuter1"></feOffset>
            <feGaussianBlur stdDeviation="2" in="shadowOffsetOuter1" result="shadowBlurOuter1"></feGaussianBlur>
            <feColorMatrix values="0 0 0 0 0.266666667   0 0 0 0 0.266666667   0 0 0 0 0.266666667  0 0 0 0.2 0" type="matrix" in="shadowBlurOuter1" result="shadowMatrixOuter1"></feColorMatrix>
            <feMerge>
                <feMergeNode in="shadowMatrixOuter1"></feMergeNode>
                <feMergeNode in="SourceGraphic"></feMergeNode>
            </feMerge>
        </filter>
    </defs>
    <g id="Page-1" stroke="none" stroke-width="1" fill="none" fill-rule="evenodd">
        <g id="hdr" transform="translate(-1085.000000, -1.000000)">
            <g id="Group-5" filter="url(#filter-1)" transform="translate(1093.000000, 9.000000)">
                <path d="M8.00411734,16 C9.09658604,16 10.1259221,15.7900154 11.0921256,15.3700463 C12.058329,14.9500772 12.9092469,14.3722765 13.6448791,13.6366444 C14.3805112,12.9010122 14.9569394,12.0514668 15.3741637,11.0880082 C15.7913879,10.1245497 16,9.09384114 16,7.99588266 C16,6.90341396 15.7900154,5.87407789 15.3700463,4.90787442 C14.9500772,3.94167096 14.3722765,3.08938068 13.6366444,2.3510036 C12.9010122,1.61262652 12.0500944,1.03619832 11.0838909,0.621718991 C10.1176874,0.207239664 9.08835135,0 7.99588266,0 C6.90341396,0 5.87545033,0.207239664 4.91199177,0.621718991 C3.9485332,1.03619832 3.09761537,1.61262652 2.35923829,2.3510036 C1.62086121,3.08938068 1.04306056,3.94167096 0.625836336,4.90787442 C0.208612112,5.87407789 0,6.90341396 0,7.99588266 C0,9.09384114 0.20998456,10.1245497 0.62995368,11.0880082 C1.0499228,12.0514668 1.62772345,12.9010122 2.36335564,13.6366444 C3.09898782,14.3722765 3.9485332,14.9500772 4.91199177,15.3700463 C5.87545033,15.7900154 6.90615886,16 8.00411734,16 Z" id="Path" fill="#32D74B" fill-rule="nonzero"></path>
                <path d="M6.96150175,12 C6.77823735,12 6.61533567,11.9638826 6.47279669,11.8916479 C6.33025772,11.8194131 6.19450631,11.7110609 6.06554248,11.5665914 L3.68310531,8.9751693 C3.51341606,8.78856283 3.42857143,8.59593679 3.42857143,8.3972912 C3.42857143,8.18660647 3.50832538,8.00752445 3.66783328,7.86004515 C3.82734118,7.71256584 4.02587761,7.63882619 4.26344257,7.63882619 C4.40598155,7.63882619 4.53664227,7.66591422 4.65542475,7.72009029 C4.77420723,7.77426637 4.89129282,7.87057938 5.00668151,8.00902935 L6.92077633,10.1760722 L10.9627744,4.42437923 C11.159614,4.14145974 11.4039665,4 11.695832,4 C11.9198218,4 12.121752,4.06471031 12.3016227,4.19413093 C12.4814933,4.32355154 12.5714286,4.49360421 12.5714286,4.70428894 C12.5714286,4.80060196 12.5459752,4.89841986 12.4950684,4.99774266 C12.4441616,5.09706546 12.3847704,5.19187359 12.3168947,5.28216704 L7.80655425,11.5575621 C7.59613957,11.8525207 7.3144554,12 6.96150175,12 Z" id="Path" fill="#FFFFFF"></path>
            </g>
        </g>
    </g>
</svg>