<?xml version="1.0" encoding="UTF-8"?>
<svg width="34px" height="34px" viewBox="0 0 34 34" version="1.1" xmlns="http://www.w3.org/2000/svg" xmlns:xlink="http://www.w3.org/1999/xlink">
    <title>Group 7</title>
    <defs>
        <filter x="-68.8%" y="-68.8%" width="237.5%" height="237.5%" filterUnits="objectBoundingBox" id="filter-1">
            <feOffset dx="-1" dy="1" in="SourceAlpha" result="shadowOffsetOuter1"></feOffset>
            <feGaussianBlur stdDeviation="2" in="shadowOffsetOuter1" result="shadowBlurOuter1"></feGaussianBlur>
            <feColorMatrix values="0 0 0 0 0.266666667   0 0 0 0 0.266666667   0 0 0 0 0.266666667  0 0 0 0.2 0" type="matrix" in="shadowBlurOuter1" result="shadowMatrixOuter1"></feColorMatrix>
            <feMerge>
                <feMergeNode in="shadowMatrixOuter1"></feMergeNode>
                <feMergeNode in="SourceGraphic"></feMergeNode>
            </feMerge>
        </filter>
    </defs>
    <g id="Page-1" stroke="none" stroke-width="1" fill="none" fill-rule="evenodd">
        <g id="hdr" transform="translate(-1084.000000, 0.000000)" fill-rule="nonzero">
            <g id="Group-7" filter="url(#filter-1)" transform="translate(1093.000000, 9.000000)">
                <path d="M8.00411734,16 C9.09658604,16 10.1259221,15.7900154 11.0921256,15.3700463 C12.058329,14.9500772 12.9092469,14.3722765 13.6448791,13.6366444 C14.3805112,12.9010122 14.9569394,12.0514668 15.3741637,11.0880082 C15.7913879,10.1245497 16,9.09384114 16,7.99588266 C16,6.90341396 15.7900154,5.87407789 15.3700463,4.90787442 C14.9500772,3.94167096 14.3722765,3.08938068 13.6366444,2.3510036 C12.9010122,1.61262652 12.0500944,1.03619832 11.0838909,0.621718991 C10.1176874,0.207239664 9.08835135,0 7.99588266,0 C6.90341396,0 5.87545033,0.207239664 4.91199177,0.621718991 C3.9485332,1.03619832 3.09761537,1.61262652 2.35923829,2.3510036 C1.62086121,3.08938068 1.04306056,3.94167096 0.625836336,4.90787442 C0.208612112,5.87407789 0,6.90341396 0,7.99588266 C0,9.09384114 0.20998456,10.1245497 0.62995368,11.0880082 C1.0499228,12.0514668 1.62772345,12.9010122 2.36335564,13.6366444 C3.09898782,14.3722765 3.9485332,14.9500772 4.91199177,15.3700463 C5.87545033,15.7900154 6.90615886,16 8.00411734,16 Z" id="Path" stroke="#888888" fill="#FFFFFF"></path>
                <path d="M10.7349921,11.4323143 C10.929716,11.4308481 11.0934282,11.3623342 11.2261289,11.2267487 C11.3617144,11.094048 11.4295071,10.9310569 11.4295071,10.7377755 C11.4295071,10.5444941 11.3645992,10.381503 11.2347833,10.2488023 L8.98896837,7.99866018 L11.2347833,5.75284525 C11.3645992,5.62302936 11.4295071,5.4607595 11.4295071,5.26603566 C11.4295071,5.07131182 11.3617144,4.90759956 11.2261289,4.77489887 C11.0934282,4.64219818 10.929716,4.57440544 10.7349921,4.57152064 C10.5402683,4.56863584 10.3779984,4.63354379 10.2481825,4.76624448 L8.0023676,7.0120594 L5.74789828,4.76191728 C5.66423915,4.67825815 5.56327124,4.6227258 5.44499453,4.59532022 C5.32671783,4.56791464 5.20699873,4.56791464 5.08583723,4.59532022 C4.96467574,4.6227258 4.85938062,4.68114295 4.7699519,4.77057167 C4.68340797,4.8600004 4.62499082,4.96529551 4.59470044,5.08645701 C4.56441007,5.20761851 4.56441007,5.32805881 4.59470044,5.44777791 C4.62499082,5.56749701 4.68052317,5.66774372 4.76129751,5.74851806 L7.01143963,7.99866018 L4.76129751,10.2531295 C4.68052317,10.3367886 4.62499082,10.4377565 4.59470044,10.5560332 C4.56441007,10.6743099 4.56368887,10.7947502 4.59253685,10.9173541 C4.62138482,11.039958 4.68052317,11.144532 4.7699519,11.2310759 C4.85938062,11.3205046 4.96467574,11.379643 5.08583723,11.4084909 C5.20699873,11.4373389 5.32671783,11.4373389 5.44499453,11.4084909 C5.56327124,11.379643 5.66423915,11.3233894 5.74789828,11.2397303 L8.0023676,8.98526095 L10.2481825,11.2397303 C10.3779984,11.3695462 10.5402683,11.4337329 10.7349921,11.4323143 Z" id="􀆄" fill="#888888"></path>
            </g>
        </g>
    </g>
</svg>