<?xml version="1.0" encoding="UTF-8"?>
<svg width="32px" height="32px" viewBox="0 0 32 32" version="1.1" xmlns="http://www.w3.org/2000/svg" xmlns:xlink="http://www.w3.org/1999/xlink">
    <title>icn_speaker</title>
    <g id="icn_speaker" stroke="none" stroke-width="1" fill="none" fill-rule="evenodd">
        <rect id="Rectangle" fill="#F5F5F5" x="0" y="0" width="32" height="32" rx="2"></rect>
        <path d="M11.773643,18.7807115 L14.0316172,18.7807115 C14.1043649,18.7807115 14.1687185,18.8057254 14.2246782,18.8557532 L17.6242306,22.0075042 C17.8144936,22.1853808 17.9949636,22.3146192 18.1656407,22.3952196 C18.3363179,22.4758199 18.5195859,22.5161201 18.7154449,22.5161201 C18.9280918,22.5161201 19.1127588,22.4619233 19.269446,22.3535297 C19.4261332,22.2451362 19.5408506,22.0769872 19.6135982,21.8490828 L10.4641858,12.7690384 C10.2123671,13.0469705 10.0864578,13.4638688 10.0864578,14.0197332 L10.0864578,17.0214008 C10.0864578,17.6161757 10.227756,18.0580878 10.5103525,18.3471373 C10.7929491,18.6361868 11.2140459,18.7807115 11.773643,18.7807115 Z M19.6807499,17.4966648 L19.6807499,9.4922179 C19.6807499,9.21984436 19.5884163,8.98638132 19.4037493,8.79182879 C19.2190823,8.59727626 18.9840515,8.5 18.698657,8.5 C18.502798,8.5 18.3265249,8.54446915 18.1698377,8.63340745 C18.0131505,8.72234575 17.8312815,8.86687048 17.6242306,9.06698166 L14.4848909,11.9519177 C14.4401231,11.9908282 14.3981533,12.0102835 14.3589815,12.0102835 L14.1491326,12.0102835 L19.6807499,17.4966648 Z M22.4423615,23.3165648 C22.5598769,23.4388549 22.7053721,23.5 22.8788472,23.5 C23.0523223,23.5 23.2006156,23.4388549 23.3237269,23.3165648 C23.4412423,23.1942746 23.5,23.0483602 23.5,22.8788216 C23.5,22.7092829 23.4412423,22.5605892 23.3237269,22.4327404 L9.56603246,8.78349083 C9.44851707,8.66675931 9.30162283,8.60839355 9.12534975,8.60839355 C8.94907666,8.60839355 8.79938444,8.66675931 8.67627308,8.78349083 C8.55875769,8.90022235 8.5,9.04613674 8.5,9.22123402 C8.5,9.3963313 8.55875769,9.54224569 8.67627308,9.65897721 L22.4423615,23.3165648 Z" id="Shape" fill="#1F1E33" fill-rule="nonzero"></path>
    </g>
</svg>