<svg xmlns="http://www.w3.org/2000/svg" width="12" height="12" viewBox="0 0 12 12">
    <g fill="none" fill-rule="evenodd">
        <g fill="gray">
            <path d="M11.7 1.77c.399-.398.398-1.042.002-1.438l-.034-.034C11.271-.099 10.628-.1 10.23.3L6.19 4.34c-.104.104-.275.103-.377 0L1.77.3C1.372-.1.728-.099.33.297L.299.332C-.099.729-.1 1.372.3 1.77L4.34 5.81c.104.104.103.275 0 .377L.3 10.23c-.399.399-.398 1.043-.002 1.44l.034.033c.397.397 1.04.398 1.439-.001L5.81 7.66c.104-.104.275-.103.377 0l4.041 4.04c.399.399 1.043.398 1.44.002l.033-.034c.397-.397.398-1.04-.001-1.439L7.66 6.19c-.104-.104-.103-.275 0-.377L11.7 1.77z" transform="translate(-1236 -95) translate(1236 95)"/>
        </g>
    </g>
</svg>
