<svg xmlns="http://www.w3.org/2000/svg" width="16" height="16" viewBox="0 0 16 16">
    <g fill="none" fill-rule="evenodd">
        <g fill="#FFFFFF" fill-rule="nonzero">
            <g>
                <g>
                    <path d="M15.544 11.306l-3.5-1.5c-.308-.13-.664-.043-.875.216l-1.55 1.894C7.186 10.769 5.229 8.81 4.08 6.378l1.894-1.55c.26-.21.347-.568.216-.875l-1.5-3.5C4.546.121 4.185-.062 3.83.02l-3.25.75C.241.847 0 1.15 0 1.499 0 9.517 6.497 16 14.5 16c.35 0 .653-.24.731-.581l.75-3.25c.08-.356-.103-.718-.437-.863z" transform="translate(-958 -339) translate(942 323) translate(16 16)"/>
                </g>
            </g>
        </g>
    </g>
</svg>
