<?xml version="1.0" encoding="UTF-8"?>
<svg width="22px" height="22px" viewBox="0 0 22 22" version="1.1" xmlns="http://www.w3.org/2000/svg" xmlns:xlink="http://www.w3.org/1999/xlink">
    <title>icons/nav/setup</title>
    <g id="Page-1" stroke="none" stroke-width="1" fill="none" fill-rule="evenodd">
        <g id="Messages:-Empty-Copy-18" transform="translate(-1218.000000, -125.000000)" fill="#000000">
            <g id="icons/nav/setup-active" transform="translate(1218.000000, 125.000000)">
                <path d="M8.90477937,0 L8.40552819,2.75003267 C7.92057725,2.90247091 7.44997893,3.0999154 7.00593819,3.33115386 L4.69786401,1.74333738 L1.73514797,4.70603925 L3.33116981,7.00590467 C3.09892974,7.45093852 2.90352458,7.91849646 2.75004583,8.40548796 L0,8.90473675 L0,13.0952627 L2.75004583,13.5945115 C2.90350887,14.0825245 3.1060851,14.5480133 3.33934137,14.9940948 L1.73514797,17.2939602 L4.69786401,20.2566621 L6.99774044,18.6688456 C7.44379787,18.902106 7.91748672,19.0964888 8.405502,19.2499668 L8.90475317,22 L13.0952992,22 L13.5945504,19.2499668 C14.0815442,19.0965045 14.5490782,18.9011055 14.9941404,18.6688456 L17.2940168,20.2566621 L20.2567329,17.2939602 L18.660711,14.9940948 C18.891927,14.5500824 19.0893777,14.0876579 19.241835,13.6027092 L22,13.0952627 L22,8.90473675 L19.241835,8.40548796 C19.089396,7.92156078 18.8991007,7.45709336 18.6689088,7.01410238 L20.2567329,4.70603925 L17.2940168,1.74333738 L14.9941404,3.33115386 C14.5491044,3.09891491 14.0815442,2.90351069 13.5945504,2.75003267 L13.0952992,0 L8.90477937,0 Z M11.0000524,6.28578897 C13.6037958,6.28578897 15.7144167,8.39639976 15.7144167,11.0001307 C15.7144167,13.6038616 13.6037958,15.7144724 11.0000524,15.7144724 C8.39630899,15.7144724 6.28568809,13.6038616 6.28568809,11.0001307 C6.28568809,8.39639976 8.39630899,6.28578897 11.0000524,6.28578897 Z"></path>
            </g>
        </g>
    </g>
</svg>
