<?xml version="1.0" encoding="UTF-8"?>
<svg width="16px" height="16px" viewBox="0 0 16 16" version="1.1" xmlns="http://www.w3.org/2000/svg" xmlns:xlink="http://www.w3.org/1999/xlink">
    <title>Message Copy</title>
    <g id="Teams-SSO" stroke="none" stroke-width="1" fill="none" fill-rule="evenodd">
        <g id="Group" transform="translate(-1.000000, -1.000000)">
            <polygon id="Path" points="0 0 18 0 18 18 0 18"></polygon>
            <g transform="translate(1.800000, 1.800000)" fill-rule="nonzero" id="cj7veaudaa-link">
                <g fill="#5C5FC8">
                    <path d="M12.2997857,0 C13.4595,0 14.4,0.9405 14.4,2.10021429 L14.4,13.8002143 C14.4,14.0252143 14.2733571,14.2322143 14.0721429,14.3344286 C13.8715714,14.4372857 13.6298571,14.418 13.4472857,14.2855714 L10.3448571,11.3740714 C10.3191429,11.3554286 10.2882857,11.3457857 10.2561429,11.3451429 L2.10021429,11.3451429 C0.9405,11.3451429 0,10.4052857 0,9.24557143 L0,2.10021429 C0,0.9405 0.9405,0 2.10021429,0 L12.2997857,0 Z M3.6,4.58164286 C3.05807143,4.58164286 2.61835714,5.02135714 2.61835714,5.56392857 C2.61835714,6.10585714 3.05807143,6.54557143 3.6,6.54557143 C4.14192857,6.54557143 4.58164286,6.10585714 4.58164286,5.56392857 C4.58164286,5.02135714 4.14192857,4.58164286 3.6,4.58164286 Z M6.87214286,4.58164286 C6.33021429,4.58164286 5.89114286,5.02135714 5.89114286,5.56392857 C5.89114286,6.10585714 6.33021429,6.54557143 6.87278571,6.54557143 C7.41471429,6.54557143 7.85442857,6.10585714 7.85442857,5.56392857 C7.85442857,5.02135714 7.41471429,4.58164286 6.87278571,4.58164286 L6.87214286,4.58164286 Z M10.1455714,4.58164286 C9.603,4.58164286 9.16392857,5.02135714 9.16392857,5.56392857 C9.16392857,6.10585714 9.603,6.54557143 10.1455714,6.54557143 C10.6875,6.54557143 11.1272143,6.10585714 11.1272143,5.56392857 C11.1272143,5.02135714 10.6875,4.58164286 10.1455714,4.58164286 Z" id="cj7veaudaa"></path>
                </g>
                <g fill="#5C5FC8">
                    <path d="M12.2997857,0 C13.4595,0 14.4,0.9405 14.4,2.10021429 L14.4,13.8002143 C14.4,14.0252143 14.2733571,14.2322143 14.0721429,14.3344286 C13.8715714,14.4372857 13.6298571,14.418 13.4472857,14.2855714 L10.3448571,11.3740714 C10.3191429,11.3554286 10.2882857,11.3457857 10.2561429,11.3451429 L2.10021429,11.3451429 C0.9405,11.3451429 0,10.4052857 0,9.24557143 L0,2.10021429 C0,0.9405 0.9405,0 2.10021429,0 L12.2997857,0 Z M3.6,4.58164286 C3.05807143,4.58164286 2.61835714,5.02135714 2.61835714,5.56392857 C2.61835714,6.10585714 3.05807143,6.54557143 3.6,6.54557143 C4.14192857,6.54557143 4.58164286,6.10585714 4.58164286,5.56392857 C4.58164286,5.02135714 4.14192857,4.58164286 3.6,4.58164286 Z M6.87214286,4.58164286 C6.33021429,4.58164286 5.89114286,5.02135714 5.89114286,5.56392857 C5.89114286,6.10585714 6.33021429,6.54557143 6.87278571,6.54557143 C7.41471429,6.54557143 7.85442857,6.10585714 7.85442857,5.56392857 C7.85442857,5.02135714 7.41471429,4.58164286 6.87278571,4.58164286 L6.87214286,4.58164286 Z M10.1455714,4.58164286 C9.603,4.58164286 9.16392857,5.02135714 9.16392857,5.56392857 C9.16392857,6.10585714 9.603,6.54557143 10.1455714,6.54557143 C10.6875,6.54557143 11.1272143,6.10585714 11.1272143,5.56392857 C11.1272143,5.02135714 10.6875,4.58164286 10.1455714,4.58164286 Z" id="cj7veaudaa"></path>
                </g>
            </g>
        </g>
    </g>
</svg>
