<svg xmlns="http://www.w3.org/2000/svg" width="16" height="13" viewBox="0 0 16 13">
    <g fill="none" fill-rule="evenodd">
        <g fill="#FFF">
            <g>
                <path d="M5.778 0L4.667 2.167H1.556C.694 2.167 0 2.843 0 3.683v7.8C0 12.323.694 13 1.556 13h12.888c.862 0 1.556-.676 1.556-1.517v-7.8c0-.84-.694-1.516-1.556-1.516h-3.11L10.221 0H5.778zM8 3.9c2.078 0 3.778 1.657 3.778 3.683 0 2.027-1.7 3.684-3.778 3.684-2.078 0-3.778-1.657-3.778-3.684C4.222 5.557 5.922 3.9 8 3.9zm0 1.3c-1.358 0-2.444 1.06-2.444 2.383 0 1.324 1.086 2.384 2.444 2.384 1.358 0 2.444-1.06 2.444-2.384C10.444 6.26 9.358 5.2 8 5.2z" transform="translate(-710 -242) translate(700 231) translate(10 11)"/>
            </g>
        </g>
    </g>
</svg>
