<?xml version="1.0" encoding="UTF-8"?>
<svg width="49px" height="54px" viewBox="0 0 49 54" version="1.1" xmlns="http://www.w3.org/2000/svg" xmlns:xlink="http://www.w3.org/1999/xlink">
    <title>Group 4</title>
    <g id="Teams-SSO" stroke="none" stroke-width="1" fill="none" fill-rule="evenodd">
        <g id="Messages:-Empty-Copy-11" transform="translate(-647.000000, -296.000000)">
            <g id="Group-4" transform="translate(647.469565, 296.000000)">
                <g id="Group-2" fill="#FF3939" transform="translate(0.000000, -0.000000)">
                    <g id="icons/failed" transform="translate(0.000000, 39.906334)" fill-rule="nonzero">
                        <g transform="translate(0.000000, 0.000000)" id="Path">
                            <path d="M46.1374723,0 L1.86252772,0 C0.798226164,0 0,0.822987776 0,1.80028576 C0,2.82902048 0.851441242,3.60057152 1.86252772,3.60057152 L46.1374723,3.60057152 C47.2017738,3.60057152 48,2.77758374 48,1.80028576 C48,0.822987776 47.2017738,0 46.1374723,0 Z"></path>
                            <path d="M40.0709534,10.4930941 L7.92904656,10.4930941 C6.86474501,10.4930941 6.06651885,11.3160819 6.06651885,12.2933799 C6.06651885,13.3221146 6.91796009,14.0936657 7.92904656,14.0936657 L40.0709534,14.0936657 C41.135255,14.0936657 41.9334812,13.2706779 41.9334812,12.2933799 C41.9866962,11.3160819 41.135255,10.4930941 40.0709534,10.4930941 Z"></path>
                        </g>
                    </g>
                    <path d="M26.6646037,5.15111586 L38.0544211,27.1695007 C38.8156705,28.6411207 38.2398014,30.451219 36.7681814,31.2124684 C36.3421463,31.4328507 35.869478,31.5478647 35.3898174,31.5478647 L12.6101826,31.5478647 C10.9533284,31.5478647 9.61018261,30.204719 9.61018261,28.5478647 C9.61018261,28.0682041 9.72519664,27.5955359 9.94557895,27.1695007 L21.3353963,5.15111586 C22.0966458,3.67949589 23.906744,3.10362678 25.378364,3.8648762 C25.9298936,4.15017514 26.3793047,4.59958622 26.6646037,5.15111586 Z" id="Triangle"></path>
                </g>
                <text id="!" font-family="OpenSans-Bold, Open Sans" font-size="18" font-weight="bold" fill="#FFFFFF">
                    <tspan x="20.9552395" y="26">!</tspan>
                </text>
            </g>
        </g>
    </g>
</svg>