<svg xmlns="http://www.w3.org/2000/svg" width="16" height="16" viewBox="0 0 16 16">
    <g fill="none" fill-rule="evenodd">
        <g>
            <g>
                <g>
                    <path fill="#1F1E33" fill-rule="nonzero" d="M13.667 0H2.333C1.045 0 0 1.045 0 2.333v13c0 .251.14.48.364.594.223.114.492.093.695-.054l3.447-3.235c.029-.02.063-.032.098-.032h9.063c1.288 0 2.333-1.045 2.333-2.333v-7.94C16 1.045 14.955 0 13.667 0z" transform="translate(-874 -340) translate(858 323) translate(16 17) matrix(-1 0 0 1 16 0)"/>
                    <path fill="#EDEFF1" d="M4 5.09c.602 0 1.09.49 1.09 1.092 0 .602-.488 1.09-1.09 1.09-.602 0-1.09-.488-1.09-1.09 0-.603.488-1.091 1.09-1.091zm3.636 0c.603 0 1.091.49 1.091 1.092 0 .602-.488 1.09-1.09 1.09-.603 0-1.092-.488-1.092-1.09 0-.603.489-1.091 1.091-1.091zm3.637 0c.602 0 1.09.49 1.09 1.092 0 .602-.488 1.09-1.09 1.09-.603 0-1.091-.488-1.091-1.09 0-.603.488-1.091 1.09-1.091z" transform="translate(-874 -340) translate(858 323) translate(16 17)"/>
                </g>
            </g>
        </g>
    </g>
</svg>
