<svg xmlns="http://www.w3.org/2000/svg" width="78" height="62" viewBox="0 0 78 62">
    <g fill="none" fill-rule="evenodd">
        <g>
            <g transform="translate(-294 -402) translate(294 402)">
                <path fill="#C1C2C8" fill-rule="nonzero" d="M37.6 8.766c-5.197 0-10.395 1.977-14.35 5.932-7.91 7.91-7.91 20.791 0 28.702 3.955 3.955 9.14 5.933 14.378 5.933 5.238 0 10.422-1.978 14.378-5.933 7.856-7.91 7.856-20.791-.055-28.702-3.955-3.955-9.153-5.932-14.35-5.932zm-.025 3.153c4.382 0 8.765 1.656 12.079 5.024 6.68 6.68 6.68 17.531.053 24.212-6.681 6.681-17.532 6.681-24.213 0-6.68-6.68-6.68-17.531 0-24.212 3.314-3.314 7.698-5.024 12.08-5.024zm0 3.207c-3.688 0-7.163 1.443-9.782 4.115-2.512 2.512-3.901 5.773-4.062 9.3-.053.91.642 1.604 1.55 1.657h.054c.855 0 1.55-.695 1.603-1.55.107-2.726 1.229-5.238 3.1-7.162 2.03-2.031 4.704-3.153 7.537-3.153.908 0 1.603-.695 1.603-1.603 0-.909-.695-1.604-1.603-1.604zm-9.247 20.15c-.886 0-1.604.718-1.604 1.603 0 .886.718 1.604 1.604 1.604.885 0 1.603-.718 1.603-1.604 0-.885-.718-1.603-1.603-1.603zm25.849 8.819c-.408 0-.808.16-1.102.481-.642.641-.642 1.657 0 2.244l1.336 1.337c-.32.641-.481 1.336-.481 2.084 0 1.283.48 2.513 1.389 3.421l6.842 6.735c.962.962 2.19 1.442 3.42 1.442 1.229 0 2.458-.48 3.42-1.39 1.871-1.87 1.871-4.916 0-6.787l-6.84-6.842c-.909-.908-2.138-1.389-3.421-1.389-.748 0-1.443.16-2.085.481l-1.336-1.336c-.32-.32-.735-.481-1.142-.481zm4.563 4.49c.427 0 .855.16 1.122.48l6.788 6.788c.641.642.641 1.657 0 2.245-.642.641-1.657.641-2.245 0l-6.787-6.734c-.321-.321-.482-.748-.482-1.176 0-.427.161-.855.482-1.122.32-.32.694-.481 1.122-.481zM76.493 26.73l-1.045-.237.238-1.045c.093-.424-.047-.866-.368-1.159-.32-.293-.773-.392-1.187-.26-.414.13-.726.473-.82.897l-.237 1.045-1.045-.238c-.656-.144-1.304.27-1.449.926-.144.656.27 1.305.926 1.449l1.045.237-.237 1.045c-.071.307-.017.63.15.897.167.267.433.457.74.528h.262c.566.014 1.063-.374 1.187-.926l.237-1.045 1.045.237h.261c.656.073 1.246-.4 1.318-1.056.072-.656-.4-1.246-1.056-1.318l.035.024zM5.942 16.04l-1.045-.237.237-1.044c.093-.425-.047-.866-.367-1.16-.321-.292-.774-.392-1.188-.26-.414.13-.726.473-.82.897l-.237 1.045-1.045-.237c-.656-.145-1.304.27-1.448.926-.145.655.27 1.304.926 1.448L2 17.656 1.762 18.7c-.07.307-.017.63.15.896.167.268.434.458.74.528h.262c.566.014 1.063-.374 1.187-.926l.238-1.045 1.044.238h.262c.655.072 1.246-.401 1.318-1.057.072-.656-.401-1.246-1.057-1.318l.036.024z"/>
                <circle cx="55.052" cy="2.672" r="2.672" stroke="#C1C2C8" stroke-width="2.138"/>
                <circle cx="11.224" cy="58.259" r="2.672" stroke="#C1C2C8" stroke-width="2.138"/>
            </g>
        </g>
    </g>
</svg>
