<svg xmlns="http://www.w3.org/2000/svg" width="18" height="20" viewBox="0 0 18 20">
    <g fill="none" fill-rule="evenodd">
        <g fill="#FFF">
            <g>
                <g>
                    <g>
                        <path d="M16.55 11.893l-.372-.305c-.203-.165-.321-.415-.321-.68V7.39c-.008-.777-.153-1.547-.429-2.273l2.302-2.339c.334-.34.334-.892 0-1.232-.335-.34-.878-.34-1.214 0l-1.92 1.973c-.95-1.314-2.348-2.22-3.921-2.54C10.529.404 10.015 0 9.43 0c-.587 0-1.099.403-1.246.98-1.46.293-2.777 1.091-3.723 2.26-.946 1.17-1.463 2.636-1.463 4.15v3.518c0 .265-.118.515-.321.68l-.373.304v.001c-.912.74-1.445 1.862-1.449 3.048v.723c.003.479.2.936.545 1.263L.25 18.098c-.334.34-.334.892 0 1.232.336.34.88.34 1.214 0l1.89-1.924h2.76c.26.999.942 1.828 1.863 2.266.92.437 1.985.437 2.906 0 .92-.438 1.602-1.267 1.862-2.266h3.54c.455 0 .891-.184 1.213-.51.321-.327.502-.77.502-1.232v-.714c-.002-1.19-.534-2.315-1.449-3.057zm-13.98 3.77v-.713c0-.661.297-1.286.805-1.698l.373-.305c.61-.496.964-1.246.964-2.039V7.39c.006-1.381.598-2.693 1.625-3.598 1.027-.905 2.388-1.316 3.735-1.128 1.346.19 2.547.96 3.294 2.113L2.651 15.664H2.57zm6.857 2.613c-.609-.003-1.17-.334-1.474-.87h2.953c-.305.536-.869.869-1.479.87zm6.858-2.612H5.068l9.001-9.145c.05.287.075.579.073.871v3.518c0 .795.354 1.547.965 2.043l.373.305c.507.411.803 1.034.805 1.694v.714z" transform="translate(-143 -446) translate(87 62) translate(45 371) translate(0 3) translate(11 10)"/>
                    </g>
                </g>
            </g>
        </g>
    </g>
</svg>
