<svg xmlns="http://www.w3.org/2000/svg" width="16" height="15" viewBox="0 0 16 15">
    <g fill="none" fill-rule="evenodd">
        <g fill="#FFF" fill-rule="nonzero">
            <path d="M14.06 13.64c.114.108.252.16.412.158.16-.002.294-.055.4-.158.11-.113.165-.246.165-.398 0-.153-.056-.284-.166-.392L1.937.166C1.822.058 1.685.002 1.527 0c-.158-.002-.292.053-.402.166C1.015.269.959.4.959.56c0 .16.056.292.166.395L14.059 13.64zm-6.058.422c.081 0 .165-.024.251-.073.086-.05.197-.138.33-.265l1.69-1.592c.057-.052.093-.117.107-.194.014-.078-.005-.152-.057-.222-.24-.306-.566-.564-.978-.775-.412-.212-.86-.317-1.343-.317-.494 0-.948.109-1.362.327-.415.219-.741.485-.981.8-.038.061-.05.126-.036.194.014.068.053.13.115.187l1.682 1.592c.138.127.25.215.334.265.084.049.166.073.248.073zM1.06 7.522c.072.076.158.112.259.11.1-.002.187-.043.258-.123.853-.879 1.83-1.546 2.932-2.002L2.921 3.943c-.57.296-1.097.628-1.58.997-.485.369-.906.767-1.265 1.195-.053.06-.078.133-.076.218.003.085.037.157.104.219l.956.95zm2.874 2.827c.077.08.166.117.266.112.1-.004.187-.049.259-.133.273-.301.593-.563.96-.786.366-.223.757-.4 1.174-.529.417-.129.843-.2 1.28-.215L5.99 6.952c-.657.183-1.257.443-1.8.779-.544.336-1 .715-1.37 1.138-.052.07-.077.145-.075.225.003.08.04.15.112.212l1.077 1.043zm8.89-.74l.323-.303c.062-.061.097-.132.104-.212.007-.08-.02-.155-.083-.225-.345-.404-.776-.768-1.293-1.092-.518-.325-1.083-.578-1.696-.762l2.644 2.594zm1.609-2.08c.067.071.15.107.248.107s.185-.04.262-.12l.949-.944c.067-.062.103-.134.107-.219.005-.085-.021-.157-.079-.218-.56-.658-1.255-1.245-2.083-1.762-.83-.517-1.743-.923-2.742-1.22-.999-.295-2.03-.443-3.093-.443-.345 0-.685.016-1.02.05-.336.032-.67.079-1 .14l1.99 1.952c.83-.005 1.627.095 2.394.3.766.204 1.49.507 2.173.909.683.401 1.314.891 1.894 1.469z" transform="translate(-556 -68) translate(556 68)"/>
        </g>
    </g>
</svg>
