<svg xmlns="http://www.w3.org/2000/svg" width="40" height="40" viewBox="0 0 40 40">
    <g fill="none" fill-rule="evenodd" opacity=".7">
        <g fill="#000" fill-rule="nonzero">
            <g>
                <path d="M20 34.401c-4.836 0-9.335-2.413-12.005-6.45.062-3.967 8.003-6.15 12.005-6.15 3.984 0 11.934 2.183 12.005 6.15-2.67 4.028-7.17 6.45-12.005 6.45m0-28.403c3.319 0 5.998 2.68 5.998 5.998 0 3.319-2.68 5.999-5.998 5.999-3.319 0-5.998-2.68-5.998-5.999 0-3.318 2.688-5.998 5.998-5.998M20 0C8.97 0 0 8.962 0 20s8.97 20 20 20 20-8.97 20-20S31.038 0 20 0" transform="translate(-16 -396) translate(16 12) translate(0 384)"/>
            </g>
        </g>
    </g>
</svg>
