<svg xmlns="http://www.w3.org/2000/svg" width="23" height="18" viewBox="0 0 23 18">
    <g fill="none" fill-rule="evenodd">
        <g fill="#FFFFFF">
            <path d="M7.994 9.518c3.457 0 6.427 2.035 7.79 4.993.73 1.623-.486 3.489-2.288 3.489H2.516C.69 18-.528 16.134.227 14.51c1.34-2.957 4.31-4.992 7.767-4.992zM8.212 0c2.125 0 3.847 1.714 3.847 3.828 0 2.115-1.722 3.83-3.847 3.83-2.124 0-3.846-1.715-3.846-3.83C4.366 1.714 6.088 0 8.212 0zM22.043 3c-.242.008-.47.127-.64.33-1.472 1.727-2.816 3.421-4.23 5.112l-1.661-1.56c-.193-.181-.439-.265-.684-.233-.246.032-.47.177-.624.403-.154.225-.226.513-.198.8.027.289.15.551.343.732l2.326 2.179c.372.346.906.31 1.24-.085 1.673-1.964 3.172-3.892 4.806-5.81.273-.315.354-.793.205-1.205-.15-.413-.5-.675-.883-.663z"/>
        </g>
    </g>
</svg>
