<svg xmlns="http://www.w3.org/2000/svg" width="10" height="12" viewBox="0 0 10 12">
    <g fill="none" fill-rule="evenodd">
        <path fill="#000" fill-rule="nonzero" d="M8.98 3.75c.005.07.013.124.012.182.003 2.127.003 4.252 0 6.377-.003.844-.629 1.556-1.465 1.668-.026.005-.052.013-.077.023H2.295c-.09-.02-.182-.038-.272-.061-.75-.192-1.274-.87-1.27-1.643C.75 8.847.752 7.397.752 5.949V3.955c0-.064.006-.135.009-.205zM7.137 5.247c-.195-.006-.364.15-.388.364-.004.047-.005.094-.003.14v2.53c0 .601-.002 1.202 0 1.803 0 .219.145.395.335.418.19.022.364-.111.41-.322.009-.046.012-.093.01-.14V7.876l.001-.958.001-.963c0-.11.005-.22-.002-.329-.014-.206-.176-.372-.364-.378zm-4.485 0c-.225-.018-.408.17-.408.428v3.864c0 .187-.002.375.002.562.005.209.155.382.34.4.186.02.355-.111.403-.318.01-.053.014-.108.012-.162V5.676c-.002-.234-.153-.415-.349-.43zm2.249 0c-.19-.013-.36.129-.4.338-.007.05-.01.101-.007.152v3.395c0 .324-.003.648.002.972.004.209.159.381.343.398.19.018.363-.123.405-.332.006-.042.01-.085.007-.128V7.888 6.824c0-.392.003-.782 0-1.172-.003-.215-.16-.391-.35-.405zM6.429 0c.33 0 .599.268.6.6v.723c0 .061-.01.122-.029.18h2.035c.453.001.71.261.708.715.003.074 0 .148-.007.222-.049.334-.307.556-.648.556H.711c-.454 0-.71-.256-.71-.71 0-.082-.005-.166.009-.246.056-.325.315-.536.654-.536h2.08c-.019-.059-.028-.12-.028-.181V.599c0-.33.268-.599.6-.599z"/>
    </g>
</svg>
