<svg xmlns="http://www.w3.org/2000/svg" width="29" height="18" viewBox="0 0 29 18">
    <g fill="none" fill-rule="evenodd" opacity=".5">
        <g fill="#000" fill-rule="nonzero">
            <path d="M28.528.001c.16.03.275.165.272.322v17.356c0 .177-.15.321-.335.321H8.702c-.093-.003-.18-.043-.24-.11L.086 9.212c-.116-.123-.116-.31 0-.432L8.46.102c.063-.064.15-.1.24-.1h19.764c.02-.002.042-.002.063 0zM15.753 4.287h-2.39l3.309 4.507-3.469 4.706h2.372L18 10.052l2.434 3.448h2.372L19.32 8.794l3.316-4.507h-2.371L18 7.51l-2.247-3.224z" transform="translate(-1143 -132) translate(1143 132)"/>
        </g>
    </g>
</svg>
