<?xml version="1.0" encoding="UTF-8"?>
<svg width="16px" height="18px" viewBox="0 0 16 18" version="1.1" xmlns="http://www.w3.org/2000/svg" xmlns:xlink="http://www.w3.org/1999/xlink">
    <title>Group 10</title>
    <defs>
        <path d="M8,0 C12.419,0 16,3.4548 16,7.7299 C16,11.217 13.6257,14.1147 10.4212,15.099 L10.4212,15.099 L8.6019,17.6916 C8.4665,17.8845 8.2411,18 8,18 C7.7589,18 7.5335,17.8845 7.3981,17.6916 L7.3981,17.6916 L5.5788,15.099 C2.3757,14.1152 0,11.2185 0,7.7299 C0,3.4575 3.5781,0 8,0 Z M8,1.4062 C4.3908,1.4062 1.4545,4.243 1.4545,7.7299 C1.4545,10.6587 3.5046,13.0829 6.2311,13.8199 C6.3967,13.8647 6.5405,13.9648 6.6371,14.1023 L6.6371,14.1023 L8,16.0445 L9.3629,14.1023 C9.4595,13.9647 9.6033,13.8647 9.7689,13.8199 C12.4924,13.0837 14.5455,10.6616 14.5455,7.7299 C14.5455,4.243 11.6092,1.4062 8,1.4062 Z" id="path-1"></path>
        <path d="M0.8427,0 C1.3051,0 1.6751,0.3279 1.6751,0.7054 C1.6751,1.083 1.3051,1.4208 0.8427,1.4208 C0.3699,1.4208 0,1.083 0,0.7054 C0,0.3279 0.3699,0 0.8427,0 Z" id="path-3"></path>
        <path d="M0.7913,0 C1.2332,0 1.5928,0.1888 1.5928,0.467 L1.5928,0.467 L1.5928,4.2524 C1.5928,4.4908 1.2332,4.7293 0.7913,4.7293 C0.3288,4.7293 -1.13686838e-13,4.4908 -1.13686838e-13,4.2524 L-1.13686838e-13,4.2524 L-1.13686838e-13,0.467 C-1.13686838e-13,0.1888 0.3288,0 0.7913,0 Z" id="path-5"></path>
    </defs>
    <g id="Page-1" stroke="none" stroke-width="1" fill="none" fill-rule="evenodd">
        <g id="Group-10">
            <g id="Group-313-Copy">
                <mask id="mask-2" fill="white">
                    <use xlink:href="#path-1"></use>
                </mask>
                <g id="Clip-312"></g>
                <polygon id="Fill-311" fill="#000000" mask="url(#mask-2)" points="-1 19 17 19 17 -1 -1 -1"></polygon>
            </g>
            <g id="Group-8" transform="translate(7.000000, 4.000000)">
                <g id="Group-310">
                    <mask id="mask-4" fill="white">
                        <use xlink:href="#path-3"></use>
                    </mask>
                    <g id="Clip-309"></g>
                    <polygon id="Fill-308" fill="#000000" mask="url(#mask-4)" points="-1 2.4208 2.6751 2.4208 2.6751 -1 -1 -1"></polygon>
                </g>
                <g id="Group-307" transform="translate(0.000000, 2.000000)">
                    <mask id="mask-6" fill="white">
                        <use xlink:href="#path-5"></use>
                    </mask>
                    <g id="Clip-306"></g>
                    <polygon id="Fill-305" fill="#000000" mask="url(#mask-6)" points="-1 5.7293 2.5928 5.7293 2.5928 -1 -1 -1"></polygon>
                </g>
            </g>
        </g>
    </g>
</svg>