<svg xmlns="http://www.w3.org/2000/svg" width="152" height="16" viewBox="0 0 152 16">
    <g fill="none" fill-rule="evenodd">
        <g fill-rule="nonzero">
            <g>
                <g>
                    <g>
                        <g fill="#1F1E33">
                            <path d="M.019.179L2.988.179 5.2 5.485 7.411.179 10.478.179 10.478 8.584 8.462 8.584 8.462 2.324 5.86 8.583 4.492 8.583 1.95 2.475 1.95 8.583.02 8.583.02.179zM11.922 4.381c0-3.223 1.173-4.353 4.46-4.353 3.299 0 4.46 1.13 4.46 4.353 0 3.224-1.161 4.353-4.46 4.353-3.287 0-4.46-1.13-4.46-4.353zm6.854 0c0-1.982-.525-2.546-2.394-2.546-1.87 0-2.395.564-2.395 2.546 0 1.982.525 2.547 2.395 2.547 1.869 0 2.394-.565 2.394-2.547zM21.063.179L23.225.179 25.4 6.075 27.563.179 29.64.179 26.402 8.584 24.3 8.584zM30.423.179L32.439.179 32.439 8.584 30.423 8.584zM34.09 5.146V.18h2.015v4.968c0 1.405.367 1.768 1.955 1.768 1.527 0 1.918-.338 1.918-1.768V.179h1.93v4.968c0 2.847-.806 3.587-3.91 3.587-3.103 0-3.909-.74-3.909-3.588zM43.108 8.27l.122-1.857c1.014.377 2.113.54 3.616.54 1.442 0 1.772-.15 1.772-.84 0-.49-.17-.665-1.185-.753l-1.466-.125c-2.04-.176-2.774-.765-2.774-2.484 0-2.02 1.002-2.722 3.849-2.722 1.136 0 2.126.113 3.189.401l-.122 1.844c-1.039-.326-1.992-.464-3.263-.464-1.38 0-1.637.163-1.637.79 0 .452.134.627 1.198.715l1.453.126c2.102.188 2.774.828 2.774 2.546 0 2.07-.99 2.747-3.934 2.747-1.442 0-2.627-.163-3.592-.464z" transform="translate(-14 -872) translate(-2 853) translate(16 19) translate(79.111) translate(21.392 3.328)"/>
                        </g>
                        <g>
                            <path fill="#FF4E3B" d="M0 0.014H14.991V15.404H0z" transform="translate(-14 -872) translate(-2 853) translate(16 19) translate(79.111)"/>
                            <g fill="#FFF">
                                <path d="M1.64 9.871L1.64 1.547 1.888 1.829 4.804 4.734 9.635 0 7.299 0 4.813 2.437 2.369 0 0.028 0 0.028 9.871z" transform="translate(-14 -872) translate(-2 853) translate(16 19) translate(79.111) translate(2.665 2.773)"/>
                                <path d="M4.813 6.594L2.913 4.701 2.913 7.008 4.804 8.893 8.02 5.742 8.02 9.871 9.633 9.871 9.633 1.872z" transform="translate(-14 -872) translate(-2 853) translate(16 19) translate(79.111) translate(2.665 2.773)"/>
                            </g>
                        </g>
                    </g>
                    <path fill="#000" d="M1.454 11.429V9.006h1.977c2.08 0 3.337-1.052 3.337-2.789S5.511 3.43 3.431 3.43H.311v8h1.143zM3.397 8.01H1.454V4.423h1.943c1.463 0 2.228.651 2.228 1.794S4.86 8.011 3.397 8.011zm7.92 3.486c1.817 0 3.143-1.291 3.143-3.097s-1.326-3.086-3.143-3.086c-1.817 0-3.154 1.28-3.154 3.086 0 1.806 1.337 3.097 3.154 3.097zm0-.96c-1.166 0-2.046-.846-2.046-2.137s.88-2.126 2.046-2.126S13.35 7.11 13.35 8.4s-.868 2.137-2.034 2.137zm7.28.892l1.771-4.595 1.749 4.595h1.051l2.263-6.058h-.983l-1.805 4.846-1.795-4.846h-.925l-1.829 4.823-1.76-4.823h-1.04l2.251 6.058h1.052zm10.926.068c1.005 0 1.84-.343 2.388-.983l-.606-.708c-.445.491-1.04.731-1.748.731-1.2 0-2.057-.708-2.194-1.771h4.914c.011-.103.023-.24.023-.332 0-1.863-1.246-3.12-2.995-3.12-1.748 0-3.04 1.292-3.04 3.086 0 1.806 1.303 3.097 3.258 3.097zm1.725-3.52h-3.885c.114-1.028.891-1.737 1.942-1.737 1.063 0 1.829.72 1.943 1.737zm4.126 3.452V8.41c0-1.325.731-2.045 1.909-2.045.08 0 .16 0 .251.011V5.314c-1.063 0-1.817.366-2.206 1.075V5.37h-1.051v6.058h1.097zm6.606.068c1.005 0 1.84-.343 2.388-.983l-.605-.708c-.446.491-1.04.731-1.749.731-1.2 0-2.057-.708-2.194-1.771h4.914c.011-.103.023-.24.023-.332 0-1.863-1.246-3.12-2.994-3.12-1.749 0-3.04 1.292-3.04 3.086 0 1.806 1.302 3.097 3.257 3.097zm1.725-3.52H39.82c.114-1.028.891-1.737 1.943-1.737 1.062 0 1.828.72 1.942 1.737zm5.532 3.52c.891 0 1.668-.343 2.16-1.028v.96h1.051v-8.48h-1.097v3.337c-.503-.652-1.257-.972-2.114-.972-1.772 0-3.063 1.235-3.063 3.086 0 1.851 1.291 3.097 3.063 3.097zm.091-.96c-1.165 0-2.045-.846-2.045-2.137s.88-2.126 2.045-2.126c1.155 0 2.035.835 2.035 2.126s-.88 2.137-2.035 2.137zm13.166.892c2.023 0 3.063-.789 3.063-2.16 0-1.063-.594-1.738-1.497-1.989.628-.309 1.074-.914 1.074-1.783 0-1.291-1.029-2.068-2.869-2.068h-3.588v8h3.817zm-.331-4.515H59.82v-2.56h2.343c1.165 0 1.828.435 1.828 1.28 0 .846-.663 1.28-1.828 1.28zm.285 3.589H59.82V7.84h2.628c1.269 0 1.955.411 1.955 1.337 0 .926-.686 1.326-1.955 1.326zm5.44 3.211c.926 0 1.623-.4 2.16-1.68l2.937-6.663h-1.074l-2.091 4.846-2.115-4.846h-1.142l2.674 6.046-.194.423c-.298.697-.629.937-1.155.937-.411 0-.788-.16-1.085-.446l-.469.823c.377.366.971.56 1.554.56z" transform="translate(-14 -872) translate(-2 853) translate(16 19)"/>
                </g>
            </g>
        </g>
    </g>
</svg>
