<?xml version="1.0" encoding="UTF-8"?>
<svg width="17px" height="16px" viewBox="0 0 17 16" version="1.1" xmlns="http://www.w3.org/2000/svg" xmlns:xlink="http://www.w3.org/1999/xlink">
    <title>icons/messages</title>
    <g id="Teams-SSO" stroke="none" stroke-width="1" fill="none" fill-rule="evenodd">
        <g id="Messages:-Empty-Copy-76" transform="translate(-732.000000, -347.000000)" stroke="#FFFFFF">
            <g id="Group-13" transform="translate(577.000000, 145.000000)">
                <g id="Group-12" transform="translate(139.000000, 185.000000)">
                    <g id="btn/message" transform="translate(0.500000, 0.000000)">
                        <g id="icons/messages" transform="translate(16.000000, 17.000000)">
                            <path d="M13.6666667,0.727272727 C14.1101686,0.727272727 14.5116844,0.90703598 14.8023245,1.19767444 C15.0929632,1.48831133 15.2727273,1.88982235 15.2727273,2.33331939 L15.2727273,10.2726615 C15.2727273,10.7161586 15.0929632,11.1176696 14.8023245,11.4083065 C14.5116844,11.6989449 14.1101686,11.8787082 13.6666667,11.8787082 L4.32003302,11.8787082 L1.66700612,14.3231479 L0.727475681,2.30752469 C0.734297834,1.87426672 0.912682031,1.48266616 1.19767545,1.19767444 C1.48831565,0.907035981 1.88983145,0.727272727 2.33333334,0.727272727 Z" id="Shape" stroke-width="1.45454545" fill-rule="nonzero" transform="translate(8.000000, 8.000000) scale(-1, 1) translate(-8.000000, -8.000000) "></path>
                            <path d="M4,7.27272727 C4.60249245,7.27272727 5.09090909,6.78431064 5.09090909,6.18181818 C5.09090909,5.57932573 4.60249245,5.09090909 4,5.09090909 C3.39750755,5.09090909 2.90909091,5.57932573 2.90909091,6.18181818 C2.90909091,6.78431064 3.39750755,7.27272727 4,7.27272727 Z M7.63636364,7.27272727 C8.23885609,7.27272727 8.72727273,6.78431064 8.72727273,6.18181818 C8.72727273,5.57932573 8.23885609,5.09090909 7.63636364,5.09090909 C7.03387118,5.09090909 6.54545455,5.57932573 6.54545455,6.18181818 C6.54545455,6.78431064 7.03387118,7.27272727 7.63636364,7.27272727 Z M11.2727273,7.27272727 C11.8752197,7.27272727 12.3636364,6.78431064 12.3636364,6.18181818 C12.3636364,5.57932573 11.8752197,5.09090909 11.2727273,5.09090909 C10.6702348,5.09090909 10.1818182,5.57932573 10.1818182,6.18181818 C10.1818182,6.78431064 10.6702348,7.27272727 11.2727273,7.27272727 Z" id="Combined-Shape" stroke-width="0.727272727"></path>
                        </g>
                    </g>
                </g>
            </g>
        </g>
    </g>
</svg>