<?xml version="1.0" encoding="UTF-8"?>
<svg width="17px" height="16px" viewBox="0 0 17 16" version="1.1" xmlns="http://www.w3.org/2000/svg" xmlns:xlink="http://www.w3.org/1999/xlink">
    <title>icons/messages</title>
    <g id="Teams-SSO" stroke="none" stroke-width="1" fill="none" fill-rule="evenodd">
        <g id="Messages:-Empty-Copy-76" transform="translate(-732.000000, -347.000000)">
            <g id="Group-13" transform="translate(577.000000, 145.000000)">
                <g id="Group-12" transform="translate(139.000000, 185.000000)">
                    <g id="btn/message" transform="translate(0.500000, 0.000000)">
                        <g id="icons/messages" transform="translate(16.000000, 17.000000)">
                            <path d="M13.6666667,0 L2.33333334,0 C1.04466892,0 0,1.04466267 0,2.33331939 L0,15.3332417 C0,15.5839813 0.140624707,15.8135351 0.364043875,15.9273543 C0.587463044,16.0411736 0.855851979,16.0200067 1.05866667,15.8725718 L4.506,12.6379807 C4.53452636,12.6173477 4.5687942,12.6061583 4.604,12.6059809 L13.6666667,12.6059809 C14.9553311,12.6059809 16,11.5613182 16,10.2726615 L16,2.33331939 C16,1.04466267 14.9553311,0 13.6666667,0 Z" id="Shape" fill="#FFFFFF" fill-rule="nonzero" transform="translate(8.000000, 8.000000) scale(-1, 1) translate(-8.000000, -8.000000) "></path>
                            <path d="M4,7.27272727 C4.60249245,7.27272727 5.09090909,6.78431064 5.09090909,6.18181818 C5.09090909,5.57932573 4.60249245,5.09090909 4,5.09090909 C3.39750755,5.09090909 2.90909091,5.57932573 2.90909091,6.18181818 C2.90909091,6.78431064 3.39750755,7.27272727 4,7.27272727 Z M7.63636364,7.27272727 C8.23885609,7.27272727 8.72727273,6.78431064 8.72727273,6.18181818 C8.72727273,5.57932573 8.23885609,5.09090909 7.63636364,5.09090909 C7.03387118,5.09090909 6.54545455,5.57932573 6.54545455,6.18181818 C6.54545455,6.78431064 7.03387118,7.27272727 7.63636364,7.27272727 Z M11.2727273,7.27272727 C11.8752197,7.27272727 12.3636364,6.78431064 12.3636364,6.18181818 C12.3636364,5.57932573 11.8752197,5.09090909 11.2727273,5.09090909 C10.6702348,5.09090909 10.1818182,5.57932573 10.1818182,6.18181818 C10.1818182,6.78431064 10.6702348,7.27272727 11.2727273,7.27272727 Z" id="Combined-Shape" fill="#5C5FC8"></path>
                        </g>
                    </g>
                </g>
            </g>
        </g>
    </g>
</svg>