<?xml version="1.0" encoding="UTF-8"?>
<svg width="113px" height="24px" viewBox="0 0 113 24" version="1.1" xmlns="http://www.w3.org/2000/svg" xmlns:xlink="http://www.w3.org/1999/xlink">
    <title>logo/multiline</title>
    <defs>
        <linearGradient x1="50%" y1="0%" x2="50%" y2="100%" id="linearGradient-1">
            <stop stop-color="#291E3A" offset="0%"></stop>
            <stop stop-color="#2E2342" offset="100%"></stop>
        </linearGradient>
        <linearGradient x1="50%" y1="0%" x2="50%" y2="100%" id="linearGradient-2">
            <stop stop-color="#324B5A" offset="0%"></stop>
            <stop stop-color="#2F4655" offset="100%"></stop>
        </linearGradient>
        <path d="M6.43505859,22.977561 C6.43505859,22.977561 6.1143147,22.3212657 5.5703125,21.5190244 C5.06630093,20.7757573 4.39181714,19.9138822 3.87451172,19.4321951 C3.37001633,18.962436 2.48834118,18.2199971 1.69580078,17.7492683 C0.802536952,17.2187148 0.0112304688,16.997561 0.0112304688,16.997561 L0.0112304688,22.8092683 L0.1796875,22.977561 L6.43505859,22.977561 Z" id="path-3"></path>
        <linearGradient x1="50%" y1="0%" x2="50%" y2="100%" id="linearGradient-4">
            <stop stop-color="#38586C" offset="0%"></stop>
            <stop stop-color="#2F4655" offset="100%"></stop>
        </linearGradient>
        <path d="M0,13.3063415 C0,13.3063415 1.13548048,13.6096705 2.54931641,14.4395122 C3.65080708,15.0860249 5.01561364,16.1874614 5.71630859,16.8965854 C6.48089909,17.6703735 7.55098263,19.0140657 8.28808594,20.3185366 C9.05795204,21.6809886 9.47851562,22.9887805 9.47851562,22.9887805 L16.4414062,22.9887805 C16.4414062,22.9887805 16.0595703,20.2287805 14.7006836,17.4687805 C13.3417969,14.7087805 11.6992941,13.0031391 10.5117187,11.8029268 C9.2667597,10.5447202 7.31070263,8.96389826 5.25585937,8.01073171 C2.64877554,6.80140097 0,6.30536585 0,6.30536585 L0,13.3063415 Z" id="path-5"></path>
    </defs>
    <g id="Page-1" stroke="none" stroke-width="1" fill="none" fill-rule="evenodd">
        <g id="Region" transform="translate(-583.000000, -48.000000)">
            <g id="Group" transform="translate(583.000000, 48.000000)">
                <g transform="translate(0.500000, 0.500000)">
                    <g id="opt1">
                        <rect id="Rectangle-12" fill="url(#linearGradient-1)" x="0" y="0" width="23" height="22.977561" rx="2"></rect>
                        <g id="Path-4" opacity="0.100000001">
                            <use fill="url(#linearGradient-2)" xlink:href="#path-3"></use>
                            <use fill="#FFFFFF" xlink:href="#path-3"></use>
                        </g>
                        <g id="Path-3" opacity="0.100000001">
                            <use fill="url(#linearGradient-4)" xlink:href="#path-5"></use>
                            <use fill="#FFFFFF" xlink:href="#path-5"></use>
                        </g>
                        <path d="M13.4316406,15.1687805 C13.4316406,15.1687805 13.2137725,15.3146341 13.105957,15.3146341 C12.9741891,15.3146341 12.7128906,15.1687805 12.7128906,15.1687805 C12.7128906,15.1687805 12.0166016,14.8097561 11.1855469,14.2263415 C10.3544922,13.6429268 9.72558594,12.9809756 9.72558594,12.9809756 C9.72558594,12.9809756 8.88330078,12.0385366 8.53515625,11.477561 C8.18701172,10.9165854 7.81640625,10.1985366 7.81640625,10.1985366 C7.81640625,10.1985366 7.71812199,10.0135911 7.7265625,9.92926829 C7.73683943,9.82659923 7.87255859,9.63756098 7.87255859,9.63756098 L9.34375,8.28 C9.34375,8.28 9.57958984,8.02195122 9.55712891,7.82 C9.53466797,7.61804878 9.34375,7.3593845 9.34375,7.3593845 L7.79394531,4.66731707 C7.79394531,4.66731707 7.61425781,4.44292683 7.49072266,4.44292683 L7.1875,4.44292683 L6.35644531,4.62243902 C6.35644531,4.62243902 6.02883025,4.71643537 5.77246094,4.8804878 C5.5744315,5.00720816 5.44133849,5.18856916 5.35693359,5.28439024 C5.10986328,5.56487805 4.93017578,5.95756098 4.93017578,5.95756098 C4.93017578,5.95756098 4.60866214,6.60800963 4.52587891,6.9 C4.42523116,7.2550015 4.37988281,7.89853659 4.37988281,7.89853659 C4.37988281,7.89853659 4.43477423,8.68954093 4.64941406,9.33463415 C4.78430365,9.74004053 5.09630534,10.5802491 5.35693359,11.1858537 C5.5423163,11.6166151 5.71630859,11.915122 5.71630859,11.915122 C5.71630859,11.915122 6.38416851,13.0213772 6.86181641,13.5980488 C7.35373231,14.1919463 8.625,15.4268293 8.625,15.4268293 C8.625,15.4268293 9.8835692,16.6154214 10.8149414,17.1434146 C11.1594039,17.3386898 11.6320387,17.5992872 12.2075195,17.8278049 C12.9966988,18.1411801 13.8696289,18.4 13.8696289,18.4 L14.4199219,18.5682927 C14.4199219,18.5682927 15.2904087,18.6378536 15.6777344,18.6019512 C16.0166457,18.5705365 16.5986328,18.3663415 16.5986328,18.3663415 C16.5986328,18.3663415 17.1050291,18.1218283 17.3510742,17.962439 C17.5841958,17.8114218 18.0249023,17.457561 18.0249023,17.457561 C18.0249023,17.457561 18.1914315,17.2819891 18.2719727,17.1434146 C18.3261971,17.0501192 18.4179688,16.7507317 18.4179688,16.7507317 L18.6201172,15.8643902 C18.6201172,15.8643902 18.6483192,15.5967819 18.6201172,15.4941463 C18.5959103,15.4060502 18.4628906,15.3146341 18.4628906,15.3146341 C18.4628906,15.3146341 18.0377237,15.0465888 17.8227539,14.9219512 C17.1991821,14.5604099 15.9472656,13.8560976 15.9472656,13.8560976 L15.4194336,13.5195122 C15.4194336,13.5195122 15.2341972,13.4727539 15.1499023,13.4858537 C15.0657401,13.4989328 14.9140625,13.5980488 14.9140625,13.5980488 C14.9140625,13.5980488 14.6628872,13.8067295 14.5209961,13.9570732 C14.1687465,14.3303067 13.4316406,15.1687805 13.4316406,15.1687805 Z" id="Path-2" fill="#FFFFFF"></path>
                    </g>
                    <path d="M31.3705542,17.8313286 L31.3705542,10.771305 L34.9048542,16.5601808 L36.1634098,16.5601808 L39.7149504,10.616706 L39.7321909,17.8313286 L42.352745,17.8313286 L42.3182641,5.80695755 L40.0252792,5.80695755 L35.5772333,13.2792453 L31.0602254,5.80695755 L28.75,5.80695755 L28.75,17.8313286 L31.3705542,17.8313286 Z M48.9386115,17.96875 C50.0764837,17.96875 51.1109129,17.5393082 51.817773,16.7319575 L51.817773,17.8313286 L54.3693652,17.8313286 L54.3693652,8.58974057 L51.679849,8.58974057 L51.679849,13.1590016 C51.679849,14.8595912 50.7833437,15.6497642 49.5420285,15.6497642 C48.3524349,15.6497642 47.6628153,14.9626572 47.6628153,13.4166667 L47.6628153,8.58974057 L44.9732992,8.58974057 L44.9732992,13.8117531 C44.9732992,16.6632469 46.6111456,17.96875 48.9386115,17.96875 Z M59.5587521,17.8313286 L59.5587521,5.08549528 L56.8692359,5.08549528 L56.8692359,17.8313286 L59.5587521,17.8313286 Z M66.5239092,17.96875 C67.3514526,17.96875 68.1617556,17.7797956 68.7134512,17.3847091 L67.9893507,15.4951651 C67.6962624,15.7184748 67.2997312,15.8387186 66.9032,15.8387186 C66.1790995,15.8387186 65.7480873,15.4092767 65.7480873,14.6191038 L65.7480873,10.8571934 L68.0583127,10.8571934 L68.0583127,8.79587264 L65.7480873,8.79587264 L65.7480873,6.54559748 L63.0585711,6.54559748 L63.0585711,8.79587264 L61.6276106,8.79587264 L61.6276106,10.8571934 L63.0585711,10.8571934 L63.0585711,14.6534591 C63.0585711,16.8522013 64.3343672,17.96875 66.5239092,17.96875 Z M71.5753722,7.30141509 C72.5753205,7.30141509 73.2476995,6.64866352 73.2476995,5.75542453 C73.2476995,4.93089623 72.5753205,4.3125 71.5753722,4.3125 C70.5754239,4.3125 69.9030449,4.96525157 69.9030449,5.80695755 C69.9030449,6.64866352 70.5754239,7.30141509 71.5753722,7.30141509 Z M72.9201303,17.8313286 L72.9201303,8.58974057 L70.2306141,8.58974057 L70.2306141,17.8313286 L72.9201303,17.8313286 Z M84.4540167,17.8313286 L84.4540167,15.5638758 L78.4026055,15.5638758 L78.4026055,5.80695755 L75.6096464,5.80695755 L75.6096464,17.8313286 L84.4540167,17.8313286 Z M87.1780139,7.30141509 C88.1779622,7.30141509 88.8503412,6.64866352 88.8503412,5.75542453 C88.8503412,4.93089623 88.1779622,4.3125 87.1780139,4.3125 C86.1780656,4.3125 85.5056865,4.96525157 85.5056865,5.80695755 C85.5056865,6.64866352 86.1780656,7.30141509 87.1780139,7.30141509 Z M88.5227719,17.8313286 L88.5227719,8.58974057 L85.8332558,8.58974057 L85.8332558,17.8313286 L88.5227719,17.8313286 Z M93.7121588,17.8313286 L93.7121588,13.2620676 C93.7121588,11.561478 94.6431452,10.771305 95.9361818,10.771305 C97.1257754,10.771305 97.815395,11.4584119 97.815395,12.9528695 L97.815395,17.8313286 L100.504911,17.8313286 L100.504911,12.5406053 C100.504911,9.72346698 98.8498242,8.45231918 96.6602823,8.45231918 C95.4017266,8.45231918 94.3155759,8.88176101 93.5914754,9.67193396 L93.5914754,8.58974057 L91.0226427,8.58974057 L91.0226427,17.8313286 L93.7121588,17.8313286 Z M107.642473,17.96875 C109.3148,17.96875 110.607837,17.4534198 111.469861,16.4742925 L110.038901,14.9283019 C109.401003,15.5295204 108.694143,15.8215409 107.711435,15.8215409 C106.297715,15.8215409 105.315007,15.1172563 105.0564,13.9663522 L112.073279,13.9663522 C112.090519,13.7430425 112.125,13.451022 112.125,13.2448899 C112.125,10.2731525 110.02166,8.45231918 107.297663,8.45231918 C104.470223,8.45231918 102.349643,10.4449292 102.349643,13.2105346 C102.349643,15.9589623 104.435742,17.96875 107.642473,17.96875 Z M109.590648,12.403184 L105.021919,12.403184 C105.211564,11.2179245 106.090829,10.4792846 107.314904,10.4792846 C108.521738,10.4792846 109.401003,11.2351022 109.590648,12.403184 Z" id="MultiLine" fill="#1F1E33" fill-rule="nonzero"></path>
                </g>
            </g>
        </g>
    </g>
</svg>