<?xml version="1.0" encoding="UTF-8"?>
<svg width="152px" height="16px" viewBox="0 0 152 16" version="1.1" xmlns="http://www.w3.org/2000/svg" xmlns:xlink="http://www.w3.org/1999/xlink">
    <title>logo/pwdbyMov</title>
    <g id="Page-1" stroke="none" stroke-width="1" fill="none" fill-rule="evenodd">
        <g id="Region" transform="translate(-564.000000, -653.000000)" fill-rule="nonzero">
            <g id="logo/pwdbyMov" transform="translate(564.000000, 653.000000)">
                <g id="movius-logo-digital-full-color" transform="translate(79.111111, 0.000000)">
                    <g id="Group" transform="translate(21.391656, 3.327550)" fill="#1F1E33">
                        <polygon id="Path" points="0.0194469603 0.179317988 2.98834956 0.179317988 5.1999011 5.4852818 7.41145263 0.179317988 10.4783103 0.179317988 10.4783103 8.58360085 8.46230874 8.58360085 8.46230874 2.32410902 5.86001736 8.58323112 4.49152756 8.58323112 1.95009796 2.47458824 1.95009796 8.58323112 0.0198070892 8.58323112 0.0198070892 0.179317988"></polygon>
                        <path d="M11.922067,4.38127456 C11.922067,1.15761778 13.0950068,0.0284690414 16.3819032,0.0284690414 C19.6806839,0.0284690414 20.8413793,1.15761778 20.8413793,4.38127456 C20.8413793,7.60493134 19.6806839,8.73408007 16.3819032,8.73408007 C13.0950068,8.73408007 11.922067,7.60493134 11.922067,4.38127456 Z M18.7764003,4.38127456 C18.7764003,2.39916376 18.2509722,1.8345894 16.3819032,1.8345894 C14.5124742,1.8345894 13.9870461,2.39916376 13.9870461,4.38127456 C13.9870461,6.36338535 14.5124742,6.92758999 16.3819032,6.92758999 C18.2509722,6.92758999 18.7764003,6.36338535 18.7764003,4.38127456 Z" id="Shape"></path>
                        <polygon id="Path" points="21.0628586 0.179317988 23.2254326 0.179317988 25.400251 6.07499766 27.562825 0.179317988 29.6400485 0.179317988 26.4021296 8.58360085 24.3004174 8.58360085"></polygon>
                        <polygon id="Path" points="30.4233288 0.179317988 32.4393304 0.179317988 32.4393304 8.58360085 30.4233288 8.58360085"></polygon>
                        <path d="M34.0890808,5.1462414 L34.0890808,0.179317988 L36.1050824,0.179317988 L36.1050824,5.14661112 C36.1050824,6.5515768 36.4716936,6.91501924 38.059862,6.91501924 C39.5871686,6.91501924 39.9779085,6.5767183 39.9779085,5.14661112 L39.9779085,0.179317988 L41.9081994,0.179317988 L41.9081994,5.14661112 C41.9081994,7.99388499 41.1018708,8.7344498 37.99828,8.7344498 C34.8946892,8.7344498 34.0890808,7.99388499 34.0890808,5.1462414 Z" id="Path"></path>
                        <path d="M43.1077887,8.26970194 L43.2298724,6.4132986 C44.2439954,6.78968151 45.3434689,6.95273148 46.8462867,6.95273148 C48.2878827,6.95273148 48.6181209,6.80225226 48.6181209,6.11234017 C48.6181209,5.62319027 48.4470597,5.44756956 47.4329367,5.35994407 L45.966852,5.23460634 C43.9263617,5.05861591 43.1931392,4.4696395 43.1931392,2.75077491 C43.1931392,0.731321609 44.1950178,0.0288387692 47.0418367,0.0288387692 C48.1780434,0.0288387692 49.1676776,0.141975479 50.2307781,0.430363172 L50.1086944,2.27419576 C49.0700827,1.94809583 48.1171816,1.81018736 46.8462867,1.81018736 C45.4655526,1.81018736 45.2091408,1.97323733 45.2091408,2.60029569 C45.2091408,3.05173335 45.3434689,3.22735406 46.4065694,3.31534928 L47.8604097,3.44068701 C49.9621219,3.62887846 50.6337623,4.26850757 50.6337623,5.98737217 C50.6337623,8.05710845 49.6441281,8.7344498 46.6997143,8.7344498 C45.2581183,8.73408007 44.0729341,8.57066038 43.1077887,8.26970194 Z" id="Path"></path>
                    </g>
                    <g id="Group">
                        <rect id="Rectangle" fill="#FF4E3B" x="0" y="0.013679929" width="14.9907253" height="15.3902898"></rect>
                        <g transform="translate(2.664954, 2.772959)" fill="#FFFFFF" id="Path">
                            <polygon points="1.64038711 9.87136282 1.64038711 1.54731089 1.88815579 1.82941321 4.80411944 4.73436462 9.63524855 0.000369727811 7.29945255 0.000369727811 4.81348279 2.43650627 2.36856773 0.000369727811 0.0280900537 0.000369727811 0.0280900537 9.87136282"></polygon>
                            <polygon points="4.81348279 6.59446523 2.91272249 4.70108911 2.91272249 7.00819065 4.80411944 8.8926933 8.01971033 5.74150317 8.01971033 9.87136282 9.63272765 9.87136282 9.63272765 1.87193191"></polygon>
                        </g>
                    </g>
                </g>
                <path d="M1.45396825,11.4285714 L1.45396825,9.00571429 L3.43111111,9.00571429 C5.51111111,9.00571429 6.76825397,7.95428571 6.76825397,6.21714286 C6.76825397,4.48 5.51111111,3.42857143 3.43111111,3.42857143 L0.311111111,3.42857143 L0.311111111,11.4285714 L1.45396825,11.4285714 Z M3.3968254,8.01142857 L1.45396825,8.01142857 L1.45396825,4.42285714 L3.3968254,4.42285714 C4.85968254,4.42285714 5.62539683,5.07428571 5.62539683,6.21714286 C5.62539683,7.36 4.85968254,8.01142857 3.3968254,8.01142857 Z M11.3168254,11.4971429 C13.1339683,11.4971429 14.4596825,10.2057143 14.4596825,8.4 C14.4596825,6.59428571 13.1339683,5.31428571 11.3168254,5.31428571 C9.49968254,5.31428571 8.16253968,6.59428571 8.16253968,8.4 C8.16253968,10.2057143 9.49968254,11.4971429 11.3168254,11.4971429 Z M11.3168254,10.5371429 C10.1511111,10.5371429 9.27111111,9.69142857 9.27111111,8.4 C9.27111111,7.10857143 10.1511111,6.27428571 11.3168254,6.27428571 C12.4825397,6.27428571 13.3511111,7.10857143 13.3511111,8.4 C13.3511111,9.69142857 12.4825397,10.5371429 11.3168254,10.5371429 Z M18.5968254,11.4285714 L20.368254,6.83428571 L22.1168254,11.4285714 L23.168254,11.4285714 L25.4311111,5.37142857 L24.448254,5.37142857 L22.6425397,10.2171429 L20.848254,5.37142857 L19.9225397,5.37142857 L18.0939683,10.1942857 L16.3339683,5.37142857 L15.2939683,5.37142857 L17.5453968,11.4285714 L18.5968254,11.4285714 Z M29.5225397,11.4971429 C30.528254,11.4971429 31.3625397,11.1542857 31.9111111,10.5142857 L31.3053968,9.80571429 C30.8596825,10.2971429 30.2653968,10.5371429 29.5568254,10.5371429 C28.3568254,10.5371429 27.4996825,9.82857143 27.3625397,8.76571429 L32.2768254,8.76571429 C32.288254,8.66285714 32.2996825,8.52571429 32.2996825,8.43428571 C32.2996825,6.57142857 31.0539683,5.31428571 29.3053968,5.31428571 C27.5568254,5.31428571 26.2653968,6.60571429 26.2653968,8.4 C26.2653968,10.2057143 27.568254,11.4971429 29.5225397,11.4971429 Z M31.248254,7.97714286 L27.3625397,7.97714286 C27.4768254,6.94857143 28.2539683,6.24 29.3053968,6.24 C30.368254,6.24 31.1339683,6.96 31.248254,7.97714286 Z M35.3739683,11.4285714 L35.3739683,8.41142857 C35.3739683,7.08571429 36.1053968,6.36571429 37.2825397,6.36571429 C37.3625397,6.36571429 37.4425397,6.36571429 37.5339683,6.37714286 L37.5339683,5.31428571 C36.4711111,5.31428571 35.7168254,5.68 35.328254,6.38857143 L35.328254,5.37142857 L34.2768254,5.37142857 L34.2768254,11.4285714 L35.3739683,11.4285714 Z M41.9796825,11.4971429 C42.9853968,11.4971429 43.8196825,11.1542857 44.368254,10.5142857 L43.7625397,9.80571429 C43.3168254,10.2971429 42.7225397,10.5371429 42.0139683,10.5371429 C40.8139683,10.5371429 39.9568254,9.82857143 39.8196825,8.76571429 L44.7339683,8.76571429 C44.7453968,8.66285714 44.7568254,8.52571429 44.7568254,8.43428571 C44.7568254,6.57142857 43.5111111,5.31428571 41.7625397,5.31428571 C40.0139683,5.31428571 38.7225397,6.60571429 38.7225397,8.4 C38.7225397,10.2057143 40.0253968,11.4971429 41.9796825,11.4971429 Z M43.7053968,7.97714286 L39.8196825,7.97714286 C39.9339683,6.94857143 40.7111111,6.24 41.7625397,6.24 C42.8253968,6.24 43.5911111,6.96 43.7053968,7.97714286 Z M49.2368254,11.4971429 C50.128254,11.4971429 50.9053968,11.1542857 51.3968254,10.4685714 L51.3968254,11.4285714 L52.448254,11.4285714 L52.448254,2.94857143 L51.3511111,2.94857143 L51.3511111,6.28571429 C50.848254,5.63428571 50.0939683,5.31428571 49.2368254,5.31428571 C47.4653968,5.31428571 46.1739683,6.54857143 46.1739683,8.4 C46.1739683,10.2514286 47.4653968,11.4971429 49.2368254,11.4971429 Z M49.328254,10.5371429 C48.1625397,10.5371429 47.2825397,9.69142857 47.2825397,8.4 C47.2825397,7.10857143 48.1625397,6.27428571 49.328254,6.27428571 C50.4825397,6.27428571 51.3625397,7.10857143 51.3625397,8.4 C51.3625397,9.69142857 50.4825397,10.5371429 49.328254,10.5371429 Z M62.4939683,11.4285714 C64.5168254,11.4285714 65.5568254,10.64 65.5568254,9.26857143 C65.5568254,8.20571429 64.9625397,7.53142857 64.0596825,7.28 C64.688254,6.97142857 65.1339683,6.36571429 65.1339683,5.49714286 C65.1339683,4.20571429 64.1053968,3.42857143 62.2653968,3.42857143 L58.6768254,3.42857143 L58.6768254,11.4285714 L62.4939683,11.4285714 Z M62.1625397,6.91428571 L59.8196825,6.91428571 L59.8196825,4.35428571 L62.1625397,4.35428571 C63.328254,4.35428571 63.9911111,4.78857143 63.9911111,5.63428571 C63.9911111,6.48 63.328254,6.91428571 62.1625397,6.91428571 Z M62.448254,10.5028571 L59.8196825,10.5028571 L59.8196825,7.84 L62.448254,7.84 C63.7168254,7.84 64.4025397,8.25142857 64.4025397,9.17714286 C64.4025397,10.1028571 63.7168254,10.5028571 62.448254,10.5028571 Z M67.888254,13.7142857 C68.8139683,13.7142857 69.5111111,13.3142857 70.048254,12.0342857 L72.9853968,5.37142857 L71.9111111,5.37142857 L69.8196825,10.2171429 L67.7053968,5.37142857 L66.5625397,5.37142857 L69.2368254,11.4171429 L69.0425397,11.84 C68.7453968,12.5371429 68.4139683,12.7771429 67.888254,12.7771429 C67.4768254,12.7771429 67.0996825,12.6171429 66.8025397,12.3314286 L66.3339683,13.1542857 C66.7111111,13.52 67.3053968,13.7142857 67.888254,13.7142857 Z" id="PoweredBy" fill="#000000"></path>
            </g>
        </g>
    </g>
</svg>