<?xml version="1.0" encoding="UTF-8"?>
<svg width="5.8208mm" height="5.8208mm" version="1.1" viewBox="0 0 5.8208 5.8208" xmlns="http://www.w3.org/2000/svg" xmlns:cc="http://creativecommons.org/ns#" xmlns:dc="http://purl.org/dc/elements/1.1/" xmlns:rdf="http://www.w3.org/1999/02/22-rdf-syntax-ns#">
 <metadata>
  <rdf:RDF>
   <cc:Work rdf:about="">
    <dc:format>image/svg+xml</dc:format>
    <dc:type rdf:resource="http://purl.org/dc/dcmitype/StillImage"/>
    <dc:title/>
   </cc:Work>
  </rdf:RDF>
 </metadata>
 <path d="m2.3561 0-0.13229 0.7276c-0.12806 0.040217-0.25268 0.092604-0.37042 0.15372l-0.61013-0.42016-0.78422 0.78396 0.42228 0.60854c-0.06138 0.11774-0.11298 0.2413-0.15372 0.37042l-0.7276 0.13176v1.1086l0.7276 0.13229c0.04075 0.12912 0.09419 0.25215 0.1561 0.37042l-0.42466 0.60828 0.78396 0.78396 0.60854-0.42016c0.118 0.06165 0.24342 0.11298 0.37253 0.15372l0.13203 0.72787h1.1086l0.13229-0.7276c0.12885-0.04048 0.25241-0.09234 0.37042-0.15372l0.60828 0.42016 0.78396-0.78396-0.42228-0.60854c0.06085-0.11748 0.11324-0.23971 0.15346-0.36804l0.72998-0.13441v-1.1086l-0.72972-0.13229c-0.04048-0.12779-0.09075-0.25082-0.15161-0.36777l0.42016-0.61092-0.78396-0.78396-0.60854 0.42016c-0.11774-0.061383-0.2413-0.11298-0.37042-0.15372l-0.13176-0.7276h-1.1086zm0.5543 1.6632c0.68898 0 1.2472 0.55827 1.2472 1.2472s-0.55827 1.2472-1.2472 1.2472-1.2472-0.55827-1.2472-1.2472 0.55827-1.2472 1.2472-1.2472z" fill="#fff" fill-rule="evenodd" stroke-width=".26458"/>
</svg>
