<svg xmlns="http://www.w3.org/2000/svg" width="22" height="22" viewBox="0 0 22 22">
    <g fill="none" fill-rule="evenodd">
        <g fill="#6F6E86">
            <g>
                <path d="M8.905 0l-.5 2.75c-.484.152-.955.35-1.4.581L4.699 1.743 1.735 4.706l1.596 2.3c-.232.445-.427.912-.581 1.4L0 8.904v4.19l2.75.5c.154.488.356.953.59 1.4l-1.605 2.299 2.963 2.963 2.3-1.588c.446.233.92.427 1.408.581L8.905 22h4.19l.5-2.75c.487-.153.954-.349 1.4-.581l2.299 1.588 2.963-2.963-1.596-2.3c.23-.444.428-.906.58-1.391L22 13.095v-4.19l-2.758-.5c-.153-.483-.343-.948-.573-1.39l1.588-2.309-2.963-2.963-2.3 1.588c-.445-.232-.912-.427-1.4-.581L13.096 0h-4.19zM11 6.286c2.604 0 4.714 2.11 4.714 4.714 0 2.604-2.11 4.714-4.714 4.714-2.604 0-4.714-2.11-4.714-4.714 0-2.604 2.11-4.714 4.714-4.714z" transform="translate(-32 -388) translate(0 8) translate(32 380)"/>
            </g>
        </g>
    </g>
</svg>
