<svg xmlns="http://www.w3.org/2000/svg" width="22" height="22" viewBox="0 0 22 22">
    <g fill="none" fill-rule="evenodd">
        <g fill="#6F6E86">
            <g>
                <path d="M11 0C4.934 0 0 4.934 0 11s4.934 11 11 11 11-4.934 11-11S17.066 0 11 0zm0 3.929c2.16 0 3.929 1.767 3.929 3.928 0 2.16-1.768 3.929-3.929 3.929-2.16 0-3.929-1.768-3.929-3.929C7.071 5.697 8.84 3.93 11 3.93zm-3.143 9.428h6.286c2.145 0 3.897 1.738 3.925 3.877-1.726 1.956-4.246 3.195-7.068 3.195-2.822 0-5.342-1.239-7.068-3.195.028-2.14 1.78-3.877 3.925-3.877z" transform="translate(-32 -295) translate(0 8) translate(32 287)"/>
            </g>
        </g>
    </g>
</svg>
