<svg xmlns="http://www.w3.org/2000/svg" width="22" height="22" viewBox="0 0 22 22">
    <g fill="none" fill-rule="evenodd">
        <g fill="#FFF" fill-rule="nonzero">
            <g>
                <path d="M21.372 15.546l-4.812-2.063c-.423-.18-.913-.059-1.203.297l-2.132 2.604c-3.344-1.577-6.036-4.27-7.613-7.614L8.216 6.64c.356-.29.477-.781.296-1.203L6.45.623c-.2-.457-.696-.708-1.182-.597L.799 1.057C.331 1.165 0 1.582 0 2.062 0 13.084 8.933 22 19.938 22c.48 0 .897-.331 1.005-.8l1.031-4.468c.11-.489-.143-.986-.602-1.186z" transform="translate(-32 -109) translate(0 8) translate(32 101)"/>
            </g>
        </g>
    </g>
</svg>
