<svg xmlns="http://www.w3.org/2000/svg" width="16" height="19" viewBox="0 0 16 19">
    <g fill="none" fill-rule="evenodd">
        <g fill="#1F1E33" fill-rule="nonzero">
            <path d="M8 18.286c1.261 0 2.285-1.024 2.285-2.286h-4.57c0 1.262 1.024 2.286 2.285 2.286zm7.692-5.347c-.69-.742-1.98-1.857-1.98-5.51 0-2.775-1.946-4.997-4.57-5.542v-.744C9.142.512 8.631 0 8 0c-.63 0-1.142.512-1.142 1.143v.744c-2.624.545-4.57 2.767-4.57 5.542 0 3.653-1.29 4.768-1.98 5.51-.215.23-.31.506-.308.775.004.586.464 1.143 1.146 1.143h13.708c.682 0 1.142-.557 1.146-1.143.002-.27-.093-.545-.308-.775z" transform="translate(-1019 -22) translate(1019 22)"/>
        </g>
    </g>
</svg>
