<svg xmlns="http://www.w3.org/2000/svg" width="22" height="22" viewBox="0 0 22 22">
    <g fill="none" fill-rule="evenodd">
        <g>
            <g>
                <g>
                    <path fill="#6F6E86" fill-rule="nonzero" d="M18.792 0H3.208C1.436 0 0 1.436 0 3.208v17.875c0 .345.193.66.5.817.308.157.677.128.956-.075l4.74-4.448c.039-.028.086-.044.135-.044h12.46c1.773 0 3.209-1.436 3.209-3.208V3.208C22 1.436 20.564 0 18.792 0z" transform="translate(-32 -202) translate(0 8) translate(32 194) matrix(-1 0 0 1 22 0)"/>
                    <path fill="#1F1E33" d="M5.5 7C6.328 7 7 7.672 7 8.5S6.328 10 5.5 10 4 9.328 4 8.5 4.672 7 5.5 7zm5 0c.828 0 1.5.672 1.5 1.5s-.672 1.5-1.5 1.5S9 9.328 9 8.5 9.672 7 10.5 7zm5 0c.828 0 1.5.672 1.5 1.5s-.672 1.5-1.5 1.5S14 9.328 14 8.5 14.672 7 15.5 7z" transform="translate(-32 -202) translate(0 8) translate(32 194)"/>
                </g>
            </g>
        </g>
    </g>
</svg>
