<?xml version="1.0" encoding="UTF-8"?>
<svg width="5.2917mm" height="6.6146mm" version="1.1" viewBox="0 0 5.2917 6.6146" xmlns="http://www.w3.org/2000/svg" xmlns:cc="http://creativecommons.org/ns#" xmlns:dc="http://purl.org/dc/elements/1.1/" xmlns:rdf="http://www.w3.org/1999/02/22-rdf-syntax-ns#">
 <metadata>
  <rdf:RDF>
   <cc:Work rdf:about="">
    <dc:format>image/svg+xml</dc:format>
    <dc:type rdf:resource="http://purl.org/dc/dcmitype/StillImage"/>
    <dc:title/>
   </cc:Work>
  </rdf:RDF>
 </metadata>
 <path d="m5.2917 2.7562v0.96467c0 0.35825-0.26988 0.65299-0.61463 0.68474-0.05424 1.035-0.73554 1.8645-1.5849 1.9293-0.07038 0.16404-0.2712 0.27966-0.51409 0.27966-0.30427 0-0.54292-0.18045-0.54292-0.41354 0-0.23151 0.23892-0.41328 0.54292-0.41328 0.23733 0 0.4355 0.11165 0.50879 0.26988 0.70273-0.06191 1.2647-0.76597 1.3187-1.6478h-0.47096c-0.07435 0-0.13547-0.06085-0.13547-0.13785v-2.0672c0-0.07567 0.06085-0.13758 0.13573-0.13758h0.5371c-0.07038-0.99933-0.8927-1.7915-1.8939-1.7915-1.0014 0-1.8238 0.79216-1.8944 1.7912h0.6731c0.07461 0 0.13573 0.06218 0.13573 0.13785v2.0672c0 0.07699-0.06085 0.13758-0.13573 0.13758h-0.67839c-0.37412 2.64e-4 -0.67839-0.3085-0.67839-0.68871v-0.96441c0-0.28258 0.16828-0.52652 0.40852-0.63235 0.04339-1.179 1.0001-2.1241 2.1696-2.1241 1.1546 0 2.1016 0.92181 2.1669 2.0796 0.31168 0.06297 0.54663 0.34264 0.54663 0.67628z" fill="#6f6e86" stroke-width=".26458"/>
</svg>
