<svg xmlns="http://www.w3.org/2000/svg" width="20" height="16" viewBox="0 0 20 16">
    <g fill="none" fill-rule="evenodd">
        <g>
            <path fill="#FFF" d="M6.951 8.276c3.006 0 5.589 1.77 6.775 4.342.635 1.412-.424 3.034-1.99 3.034H2.188C.6 15.652-.46 14.03.198 12.618c1.164-2.572 3.747-4.342 6.753-4.342zM7.141 0c1.848 0 3.345 1.49 3.345 3.329 0 1.839-1.497 3.33-3.345 3.33-1.847 0-3.344-1.491-3.344-3.33C3.797 1.491 5.294 0 7.14 0z"/>
            <path stroke="#FFF" stroke-linecap="round" stroke-width="1.739" d="M16.036 2.516L16.036 8.106M13.223 5.311L18.849 5.311"/>
        </g>
    </g>
</svg>
