<?xml version="1.0" encoding="UTF-8"?>
<svg width="13px" height="16px" viewBox="0 0 13 16" version="1.1" xmlns="http://www.w3.org/2000/svg" xmlns:xlink="http://www.w3.org/1999/xlink">
    <title>icons/contact/edit</title>
    <g id="Teams-SSO" stroke="none" stroke-width="1" fill="none" fill-rule="evenodd">
        <g id="Messages:-Empty-Copy-76" transform="translate(-902.000000, -346.000000)" fill="#FFFFFF" fill-rule="nonzero">
            <g id="Group-13" transform="translate(577.000000, 145.000000)">
                <g id="Group-12" transform="translate(139.000000, 185.000000)">
                    <g id="Group-3" transform="translate(169.000000, 0.000000)">
                        <g id="icons/contact/edit" transform="translate(17.000000, 16.000000)">
                            <path d="M11.9812073,5 L1.01527067,5 C1.01089317,5.09375 1.00307622,5.1875 1.00307622,5.2734375 C1.00307622,6.1584375 1.00307622,7.0465625 1.00307622,7.9315625 C1.00307622,9.863125 0.999011403,11.7959375 1.00495229,13.7275 C0.999897501,14.7596405 1.69815291,15.6628487 2.69873003,15.9184375 C2.81848577,15.9496875 2.94043026,15.9734375 3.06143672,16 L9.93910611,16 C9.97226355,15.9867721 10.006463,15.9763195 10.0413519,15.96875 C11.1576632,15.8202489 11.9924537,14.870198 11.9955905,13.7446875 C12.0001765,10.9126042 12.0001765,8.07854167 11.9955905,5.2425 C11.9968413,5.165625 11.9868356,5.09375 11.9812073,5 Z M4.00291074,9.645625 C4.00291074,10.8841667 4.00291074,12.1227083 4.00291074,13.36125 C4.00546899,13.4338428 3.99980479,13.506492 3.98602612,13.5778125 C3.92161441,13.853125 3.69742415,14.0275 3.44947035,14.0025 C3.20151655,13.9775 3.00171519,13.7465625 2.99514895,13.468125 C2.98920806,13.218125 2.9929602,12.968125 2.9929602,12.718125 C2.9929602,11.9791667 2.9929602,11.2402083 2.9929602,10.50125 C2.9929602,9.52208333 2.9929602,8.54375 2.9929602,7.56625 C2.9929602,7.2225 3.23684918,6.9725 3.53670756,6.995 C3.79873188,7.0146875 3.99947128,7.255625 4.00103467,7.5684375 C4.00478681,8.2615625 4.00291074,8.95375 4.00291074,9.645625 Z M7.00462133,10.5171875 C7.00462133,11.4755208 7.00462133,12.4330208 7.00462133,13.3896875 C7.00675447,13.4468665 7.00329863,13.504117 6.99430295,13.560625 C6.93864623,13.8384375 6.7069517,14.0265625 6.45493308,14.003125 C6.20854267,13.98 6.00154971,13.7503125 5.99685954,13.471875 C5.98966794,13.04 5.99435811,12.608125 5.99435811,12.17625 C5.99435811,10.6672917 5.99435811,9.15822917 5.99435811,7.6490625 C5.99132605,7.58152181 5.99446584,7.51384548 6.00373846,7.446875 C6.05595571,7.1675 6.2826474,6.978125 6.53685476,6.99625 C6.79106213,7.014375 6.99993116,7.25 7.00305794,7.535625 C7.00806079,8.0559375 7.00524669,8.57625 7.00524669,9.098125 C7.00545514,9.570625 7.00545514,10.0436458 7.00524669,10.5171875 L7.00462133,10.5171875 Z M10.0063319,10.5 L10.0063319,10.5 C10.0063319,11.46875 10.0063319,12.4246875 10.0063319,13.3875 C10.0087152,13.4496552 10.0044173,13.5118865 9.99351211,13.573125 C9.93097648,13.854375 9.6999073,14.0325 9.44601261,14.0025 C9.19211792,13.9725 8.9988828,13.736875 8.99794477,13.445625 C8.99513067,12.6440625 8.99794477,11.8428125 8.99794477,11.04125 C8.99794477,9.91625 8.99794477,8.7921875 8.99794477,7.6690625 C8.9959632,7.60652413 8.9975291,7.54392378 9.00263494,7.4815625 C9.03390276,7.1971875 9.25965641,6.988125 9.52043002,6.99625 C9.77057257,7.00375 9.98694587,7.2253125 10.0050812,7.500625 C10.0144616,7.645625 10.0085207,7.7928125 10.0085207,7.938125 C10.0069573,8.7921875 10.0069573,9.65625 10.0069573,10.5 L10.0063319,10.5 Z M12.9983495,2.9571875 C13.0008509,2.3525 12.6572176,2.0053125 12.0531233,2.005 C11.1482327,2.005 10.2434462,2.005 9.33876399,2.005 C9.36354504,1.9270823 9.37619982,1.84582167 9.37628537,1.7640625 L9.37628537,0.79875 C9.37594019,0.357511476 9.01794483,1.77635684e-15 8.57645457,1.77635684e-15 L4.42283755,1.77635684e-15 C3.98134729,1.77635684e-15 3.62335193,0.357511476 3.62300674,0.79875 L3.62300674,1.76375 C3.62306025,1.84561396 3.63571541,1.92698242 3.66052813,2.005 C2.7354176,2.005 1.8104113,2.005 0.885509222,2.005 C0.433376564,2.005 0.08755449,2.28625 0.0128244034,2.7203125 C-0.00562360958,2.826875 0.00125531052,2.9390625 0.00125531052,3.0471875 C0.00125531052,3.6528125 0.34269989,3.994375 0.948982894,3.994375 L7.4823936,3.994375 C9.02973372,3.994375 10.5770738,3.994375 12.124414,3.994375 C12.5796734,3.994375 12.9236194,3.69875 12.9892818,3.253125 C12.9992259,3.15481252 13.0022559,3.05592388 12.9983495,2.9571875 Z" id="icons/contact/delete"></path>
                        </g>
                    </g>
                </g>
            </g>
        </g>
    </g>
</svg>