<?xml version="1.0" encoding="UTF-8"?>
<svg width="18px" height="18px" viewBox="0 0 18 18" version="1.1" xmlns="http://www.w3.org/2000/svg" xmlns:xlink="http://www.w3.org/1999/xlink">
    <title>Shape</title>
    <g id="Page-1" stroke="none" stroke-width="1" fill="none" fill-rule="evenodd">
        <g id="Messages:-Chat-Copy-5" transform="translate(-832.000000, -316.000000)" fill="#86DD45" fill-rule="nonzero">
            <g id="Group-3" transform="translate(816.500000, 301.000000)">
                <g id="line" transform="translate(15.500000, 15.000000)">
                    <path d="M10.602,6.714 L10.602,6.714 C10.511296,6.714 10.4243069,6.75003204 10.3601695,6.81416948 C10.296032,6.87830692 10.26,6.96529596 10.26,7.056 L10.26,8.559 L9,6.885 C8.93622117,6.78151093 8.82452157,6.71719904 8.703,6.714 L8.703,6.714 C8.61229596,6.714 8.52530692,6.75003204 8.46116948,6.81416948 C8.39703204,6.87830692 8.361,6.96529596 8.361,7.056 L8.361,9.612 C8.361,9.80088138 8.51411862,9.954 8.703,9.954 L8.703,9.954 C8.89188138,9.954 9.045,9.80088138 9.045,9.612 L9.045,8.1 L10.296,9.819 L10.296,9.819 L10.296,9.819 C10.3278534,9.86694852 10.3756943,9.90203189 10.431,9.918 C10.4724852,9.92730012 10.5155148,9.92730012 10.557,9.918 L10.557,9.918 C10.6368461,9.94703279 10.725303,9.94048042 10.8,9.9 L10.89,9.837 L10.89,9.837 C10.9531737,9.77184446 10.9886555,9.68475262 10.989013,9.594 L10.989013,7.056 C10.9898619,6.9569324 10.9477216,6.86235911 10.8734846,6.79675428 C10.7992475,6.73114946 10.7002095,6.70096055 10.602,6.714 L10.602,6.714 Z M6.48,9.243 L5.526,9.243 L5.526,7.056 C5.526,6.86711862 5.37288138,6.714 5.184,6.714 L5.184,6.714 C5.09329596,6.714 5.00630692,6.75003204 4.94216948,6.81416948 C4.87803204,6.87830692 4.842,6.96529596 4.842,7.056 L4.842,9.612 C4.842,9.80088138 4.99511862,9.95400002 5.184,9.95400002 L6.48,9.95400002 C6.67039093,9.9540626 6.82611819,9.80232835 6.831,9.612 L6.831,9.612 C6.83593831,9.51583134 6.80114983,9.42185725 6.73478174,9.35208566 C6.66841364,9.28231408 6.57629528,9.24287329 6.48,9.243 L6.48,9.243 Z M7.479,6.71399998 L7.479,6.71399998 C7.28860907,6.7139374 7.13288181,6.86567165 7.128,7.056 L7.128,9.612 C7.13288181,9.80232835 7.28860907,9.9540626 7.479,9.95400002 L7.479,9.95400002 C7.66788138,9.95400002 7.821,9.80088138 7.821,9.612 L7.821,7.056 C7.821,6.86711862 7.66788138,6.71399998 7.479,6.71399998 L7.479,6.71399998 Z M14.319,0 L3.681,0 C1.65009265,0.00494742114 0.00494742114,1.65009265 0,3.681 L0,14.319 C0.00494742114,16.3499073 1.65009265,17.9950526 3.681,18 L14.319,18 C16.3499073,17.9950526 17.9950526,16.3499073 18,14.319 L18,3.681 C17.9950526,1.65009265 16.3499073,0.00494742114 14.319,0 L14.319,0 Z M14.598,11.052 C14.5625716,11.1056347 14.5234784,11.1567565 14.481,11.205 L14.481,11.205 C14.2663882,11.469112 14.025112,11.7103882 13.761,11.925 C11.961,13.608 8.937,15.624 8.532,15.309 C8.127,14.994 9.108,13.725 8.055,13.509 C7.98029528,13.5184119 7.90470472,13.5184119 7.83,13.509 L7.83,13.509 C4.734,13.077 2.43,10.908 2.43,8.307 C2.43,5.382 5.391,3.015 9.036,3.015 C12.681,3.015 15.642,5.382 15.642,8.307 C15.6107719,9.31300518 15.2431868,10.2795004 14.598,11.052 Z M13.059,6.723 L11.7,6.723 C11.5111186,6.723 11.358,6.87611862 11.358,7.065 L11.358,9.621 C11.358,9.71170404 11.394032,9.79869308 11.4581695,9.86283052 C11.5223069,9.92696796 11.609296,9.963 11.7,9.963 L13.032,9.963 C13.2208814,9.963 13.374,9.80988138 13.374,9.621 L13.374,9.621 C13.374,9.53029596 13.337968,9.44330692 13.2738305,9.37916948 C13.2096931,9.31503204 13.122704,9.279 13.032,9.279 L12.105,9.279 L12.105,8.739 L13.059,8.739 C13.2493283,8.73411819 13.4010626,8.57839093 13.401,8.388 L13.401,8.388 C13.401,8.19911862 13.2478814,8.046 13.059,8.046 L12.105,8.046 L12.105,7.497 L13.059,7.497 C13.2478814,7.497 13.401,7.34388138 13.401,7.155 L13.401,7.155 C13.4296907,7.05008685 13.4067679,6.93778212 13.3392568,6.85250501 C13.2717458,6.7672279 13.1676972,6.71914768 13.059,6.723 L13.059,6.723 Z" id="Shape"></path>
                </g>
            </g>
        </g>
    </g>
</svg>
