<svg xmlns="http://www.w3.org/2000/svg" width="13" height="16" viewBox="0 0 13 16">
    <g fill="none" fill-rule="evenodd">
        <g fill="#FFFFFF" fill-rule="nonzero">
            <g>
                <path d="M11.981 5c.006.094.016.166.015.242.004 2.837.004 5.67 0 8.503-.004 1.125-.838 2.075-1.955 2.224-.035.007-.069.018-.102.031H3.061c-.12-.027-.243-.05-.362-.082-1-.255-1.7-1.158-1.694-2.19-.006-1.932-.002-3.865-.002-5.796V5.273c0-.085.008-.18.012-.273zm-2.46 1.996c-.261-.008-.487.201-.518.486-.005.062-.007.125-.005.187v3.372c0 .802-.003 1.603 0 2.405 0 .29.194.527.448.556.254.03.485-.148.548-.429.01-.061.015-.123.012-.186V10.5l.001-1.277.002-1.285c0-.145.005-.292-.004-.437-.018-.276-.234-.497-.485-.505zm-5.984-.001c-.3-.022-.544.228-.544.571v5.152c0 .25-.004.5.002.75.007.279.207.51.454.534.248.025.473-.149.537-.424.014-.072.02-.144.017-.217V9.646c0-.692.002-1.384-.002-2.078-.002-.312-.202-.553-.464-.573zm3 .001c-.254-.018-.481.171-.533.45-.01.068-.013.136-.01.203v4.527c0 .432-.004.864.003 1.296.005.278.212.508.458.531.252.024.484-.165.54-.442.008-.057.012-.114.01-.171V9.098c0-.522.003-1.042-.002-1.562-.003-.286-.212-.522-.466-.54zM8.577 0c.44 0 .799.358.8.799v.965c0 .082-.013.163-.038.241h2.714c.604 0 .948.348.945.952.004.099.001.198-.009.296-.065.446-.41.741-.865.741H.95c-.606 0-.948-.341-.948-.947 0-.108-.007-.22.012-.327.075-.434.42-.715.873-.715H3.66c-.025-.078-.038-.16-.038-.241V.799c0-.441.358-.799.8-.799z" transform="translate(-1044 -320) translate(1027 304) translate(17 16)"/>
            </g>
        </g>
    </g>
</svg>
