<svg xmlns="http://www.w3.org/2000/svg" width="48" height="50" viewBox="0 0 48 50">
    <g fill="none" fill-rule="evenodd">
        <g fill="#FF3939">
            <g transform="translate(-900 -357) translate(900 357)">
                <rect width="4" height="16" x="22" y="7" rx="2" transform="rotate(45 24 15)"/>
                <rect width="4" height="16" x="22" y="7" rx="2" transform="scale(-1 1) rotate(45 0 -42.941)"/>
                <path fill-rule="nonzero" d="M45.704 35.478H2.296c-1.044 0-1.826.835-1.826 1.826 0 1.044.834 1.826 1.826 1.826h43.408c1.044 0 1.826-.834 1.826-1.826 0-.991-.782-1.826-1.826-1.826zM39.757 46.122H8.243c-1.043 0-1.826.835-1.826 1.826 0 1.043.835 1.826 1.826 1.826h31.514c1.043 0 1.826-.835 1.826-1.826.052-.991-.783-1.826-1.826-1.826zM24 28.54c7.774 0 14.14-6.366 14.14-14.14C38.14 6.626 31.773.26 24 .26 16.226.26 9.86 6.627 9.86 14.4c0 7.774 6.366 14.14 14.14 14.14zm0-24.575c5.74 0 10.435 4.696 10.435 10.435 0 5.74-4.696 10.435-10.435 10.435-5.74 0-10.435-4.696-10.435-10.435 0-5.74 4.696-10.435 10.435-10.435z"/>
            </g>
        </g>
    </g>
</svg>
