<?xml version="1.0" encoding="UTF-8"?>
<svg width="18px" height="18px" viewBox="0 0 18 18" version="1.1" xmlns="http://www.w3.org/2000/svg" xmlns:xlink="http://www.w3.org/1999/xlink">
    <title>Group</title>
    <g id="Page-1" stroke="none" stroke-width="1" fill="none" fill-rule="evenodd">
        <g id="Group-4" transform="translate(-16.000000, -16.000000)">
            <g id="Group" transform="translate(16.000000, 16.000000)">
                <path d="M9.03767829,0 C4.09750924,0 0.0772230362,4.00105983 0.0752372156,8.9189363 C0.0746549073,10.4909723 0.487242718,12.025476 1.27146266,13.3781295 L0,18 L4.7510831,16.7597483 C6.0601121,17.4704414 7.53396421,17.8449629 9.0338261,17.8455426 C13.9770261,17.8455426 17.9978946,13.8437841 18,8.92613063 C18.0008211,6.54274032 17.0693817,4.30172051 15.377388,2.61577915 C13.6851702,0.929956704 11.4350265,0.00105536701 9.03767829,0 Z" id="Path" fill="#58A35B" fill-rule="nonzero"></path>
                <path d="M6.79767273,5.19032467 C6.62993808,4.81905844 6.45333443,4.81162628 6.2937521,4.80513057 C6.16322546,4.79955645 6.0137962,4.79989425 5.86460583,4.79989425 C5.71529602,4.79989425 5.47266757,4.85575846 5.26748602,5.07884223 C5.06218503,5.30192601 4.48360949,5.84121855 4.48360949,6.93804216 C4.48360949,8.03498468 5.28614975,9.0948853 5.39801266,9.24375151 C5.50999502,9.39239475 6.94722144,11.7151832 9.22337491,12.6087818 C11.1150556,13.3514183 11.5000062,13.2036966 11.9106082,13.1665358 C12.3212101,13.129375 13.2354939,12.6273622 13.4221311,12.1067541 C13.6087684,11.5862649 13.6087684,11.1401122 13.5527772,11.0468535 C13.496786,10.9539514 13.3474762,10.8982102 13.1235115,10.7867278 C12.8995468,10.6752454 11.7986258,10.1358339 11.5933248,10.0615123 C11.3880238,9.98719067 11.238714,9.95002986 11.0894042,10.1732326 C10.9400944,10.3961974 10.5111721,10.8982102 10.380526,11.0468535 C10.2498799,11.1958386 10.1192338,11.214419 9.89526907,11.1029366 C9.67130435,10.9911123 8.95006329,10.7559438 8.09445833,9.99646601 C7.42874559,9.40560913 6.97929318,8.67586001 6.8486471,8.45267218 C6.71800101,8.22970732 6.83464184,8.10893469 6.94698254,7.99779414 C7.04752777,7.89792074 7.17094726,7.73754955 7.28292962,7.6073678 C7.39467309,7.47718605 7.43200054,7.38428403 7.50665545,7.23564079 C7.58131036,7.08675972 7.5439829,6.95659283 7.48799172,6.8451104 C7.43200054,6.73362797 6.99679229,5.63114106 6.79767273,5.19032467 L6.79767273,5.19032467 Z" id="Path" fill="#FFFFFF"></path>
            </g>
        </g>
    </g>
</svg>