<?xml version="1.0" encoding="UTF-8"?>
<svg width="20px" height="17px" viewBox="0 0 20 17" version="1.1" xmlns="http://www.w3.org/2000/svg" xmlns:xlink="http://www.w3.org/1999/xlink">
    <title>wechat</title>
    <g id="Page-1" stroke="none" stroke-width="1" fill="none" fill-rule="evenodd">
        <g id="wechat" fill="#ffffff" fill-rule="nonzero">
            <path d="M17.9032258,14.3548387 C19.1612903,13.4516129 20,12.0967742 20,10.5483871 C20,7.77419355 17.3225806,5.48387097 13.9677419,5.48387097 C10.6129032,5.48387097 7.96774194,7.74193548 7.96774194,10.516129 C7.96774194,13.2903226 10.6451613,15.5483871 13.9677419,15.5483871 C14.6451613,15.5483871 15.3225806,15.4516129 15.9354839,15.2903226 C15.9677419,15.2580645 16.0322581,15.2580645 16.1290323,15.2580645 C16.2258065,15.2580645 16.3548387,15.2903226 16.4516129,15.3548387 L17.7741935,16.1290323 C17.8064516,16.1612903 17.8064516,16.1612903 17.8709677,16.1612903 C17.9677419,16.1612903 18.0645161,16.0645161 18.0645161,15.9677419 C18.0645161,15.9354839 18.0322581,15.8709677 18.0322581,15.8387097 C18.0322581,15.8064516 17.8387097,15.1935484 17.8064516,14.8064516 C17.8064516,14.7741935 17.8064516,14.7096774 17.8064516,14.6774194 C17.7419355,14.5483871 17.8064516,14.4193548 17.9032258,14.3548387 Z M11.9677419,9.77419355 C11.516129,9.77419355 11.1612903,9.41935484 11.1612903,8.96774194 C11.1612903,8.51612903 11.516129,8.16129032 11.9677419,8.16129032 C12.4193548,8.16129032 12.7741935,8.51612903 12.7741935,8.96774194 C12.7741935,9.41935484 12.4193548,9.77419355 11.9677419,9.77419355 Z M15.9677419,9.77419355 C15.516129,9.77419355 15.1612903,9.41935484 15.1612903,8.96774194 C15.1612903,8.51612903 15.516129,8.16129032 15.9677419,8.16129032 C16.4193548,8.16129032 16.7741935,8.51612903 16.7741935,8.96774194 C16.7741935,9.41935484 16.4516129,9.77419355 15.9677419,9.77419355 Z" id="Shape"></path>
            <path d="M13.9677419,5.09677419 C14.0967742,5.09677419 14.1935484,5.09677419 14.3870968,5.09677419 C13.8064516,2.22580645 10.8064516,0 7.22580645,0 C3.25806452,0.0322580645 0,2.70967742 0,6.03225806 C0,7.90322581 0.967741935,9.48387097 2.51612903,10.5806452 C2.64516129,10.6774194 2.70967742,10.8064516 2.70967742,11 C2.70967742,11.0322581 2.67741935,11.0967742 2.67741935,11.1290323 C2.5483871,11.5806452 2.35483871,12.3225806 2.35483871,12.3548387 C2.25806452,12.4193548 2.25806452,12.4516129 2.25806452,12.5483871 C2.25806452,12.6774194 2.35483871,12.7741935 2.51612903,12.7741935 C2.5483871,12.7741935 2.61290323,12.7419355 2.64516129,12.7419355 L4.22580645,11.8387097 C4.32258065,11.8064516 4.48387097,11.7419355 4.64516129,11.7419355 C4.67741935,11.7419355 4.77419355,11.7741935 4.87096774,11.7741935 C5.61290323,12 6.41935484,12.0967742 7.22580645,12.0967742 C7.35483871,12.0967742 7.4516129,12.0967742 7.64516129,12.0967742 C7.51612903,11.6451613 7.41935484,11.1290323 7.41935484,10.6451613 C7.41935484,7.48387097 10.3225806,5.09677419 13.9677419,5.09677419 Z M9.64516129,3.12903226 C10.1935484,3.12903226 10.6129032,3.58064516 10.6129032,4.09677419 C10.6129032,4.61290323 10.1612903,5.06451613 9.64516129,5.06451613 C9.12903226,5.06451613 8.67741935,4.61290323 8.67741935,4.09677419 C8.67741935,3.58064516 9.09677419,3.12903226 9.64516129,3.12903226 Z M4.80645161,5.09677419 C4.25806452,5.09677419 3.83870968,4.64516129 3.83870968,4.12903226 C3.83870968,3.61290323 4.29032258,3.16129032 4.80645161,3.16129032 C5.32258065,3.16129032 5.77419355,3.61290323 5.77419355,4.12903226 C5.77419355,4.64516129 5.35483871,5.09677419 4.80645161,5.09677419 Z" id="Shape"></path>
        </g>
    </g>
</svg>
