<svg xmlns="http://www.w3.org/2000/svg" width="48" height="51" viewBox="0 0 48 51">
    <g fill="none" fill-rule="evenodd">
        <g fill="#50A735" fill-rule="nonzero">
            <g>
                <path d="M21.34 18.417c.364.366.834.522 1.303.522.47 0 .94-.156 1.305-.522l5.426-5.426c.73-.73.73-1.878 0-2.608-.73-.73-1.878-.73-2.609 0l-4.122 4.121-1.408-1.408c-.73-.73-1.878-.73-2.609 0-.73.73-.73 1.878 0 2.608l2.713 2.713zM45.704 35.478H2.296c-1.044 0-1.826.835-1.826 1.826 0 1.044.834 1.826 1.826 1.826h43.408c1.044 0 1.826-.834 1.826-1.826 0-.991-.782-1.826-1.826-1.826zM39.757 46.122H8.243c-1.043 0-1.826.835-1.826 1.826 0 1.043.835 1.826 1.826 1.826h31.514c1.043 0 1.826-.835 1.826-1.826.052-.991-.783-1.826-1.826-1.826z" transform="translate(-900 -363) translate(900 363.96)"/>
                <path d="M24 28.54c7.774 0 14.14-6.366 14.14-14.14C38.14 6.626 31.773.26 24 .26 16.226.26 9.86 6.627 9.86 14.4c0 7.774 6.366 14.14 14.14 14.14zm0-24.575c5.74 0 10.435 4.696 10.435 10.435 0 5.74-4.696 10.435-10.435 10.435-5.74 0-10.435-4.696-10.435-10.435 0-5.74 4.696-10.435 10.435-10.435z" transform="translate(-900 -363) translate(900 363.96)"/>
            </g>
        </g>
    </g>
</svg>
