<svg xmlns="http://www.w3.org/2000/svg" width="16" height="16" viewBox="0 0 16 16">
    <g fill="none" fill-rule="evenodd">
        <g fill="#1F1E33" fill-rule="nonzero">
            <g>
                <path d="M8 0C3.58 0 0 3.58 0 8s3.58 8 8 8 8-3.58 8-8-3.58-8-8-8zm4.645 8.903c0 .213-.174.387-.387.387H9.29v2.968c0 .213-.174.387-.387.387H7.097c-.213 0-.387-.174-.387-.387V9.29H3.742c-.213 0-.387-.174-.387-.387V7.097c0-.213.174-.387.387-.387H6.71V3.742c0-.213.174-.387.387-.387h1.806c.213 0 .387.174.387.387V6.71h2.968c.213 0 .387.174.387.387v1.806z" transform="translate(-1053 -500) translate(1053 498) translate(0 2)"/>
            </g>
        </g>
    </g>
</svg>
