<?xml version="1.0" encoding="UTF-8"?>
<svg width="253px" height="258px" viewBox="0 0 253 258" version="1.1" xmlns="http://www.w3.org/2000/svg" xmlns:xlink="http://www.w3.org/1999/xlink">
    <title>Group 52</title>
    <defs>
        <path d="M122.275875,21.0719196 C166.989337,65.5992661 135.596586,143.25 71.6291358,143.25 L71.4715427,143.242805 C48.5335594,143.242805 33.8794474,132.331185 32.4375728,131.702142 L5.40626213,138.760366 L12.6504283,112.370402 L10.9281608,109.655859 C3.79144448,98.2447048 0,85.1036849 0,71.5720832 C0,7.90931488 77.4539406,-23.9261807 122.275875,21.0719196 Z" id="path-1"></path>
        <path d="M7.54424174,2.59655759 C10.2193164,-0.144881886 13.2535921,-0.201344045 17.406405,0.153560955 C18.7398489,0.153560955 20.5205031,-0.371738775 22.249989,3.77520516 C24.0521338,7.93727289 28.3564047,18.3777311 28.8967412,19.4424461 C29.4299141,20.5011115 29.7973019,21.6727013 29.0768533,23.1639073 C25.0540076,30.6643002 20.6351199,31.1754844 22.7473441,34.7688975 C24.0163161,36.900344 28.3124001,43.8250245 34.7135448,49.4712404 C42.9321847,56.7145289 49.8736659,58.9518419 52.036035,60.0175652 C54.1769134,60.9764136 55.4315582,60.8695388 56.6933666,59.4852077 C65.177058,49.9108387 63.9306001,48.5547386 68.3494878,50.1669349 C70.3174176,50.8696871 80.8846791,55.9623722 83.0552351,57.0270872 L83.0552351,57.0270872 L83.119707,56.4947297 C85.2820761,57.4535782 86.6953424,57.9859357 87.2285153,58.9447841 C87.7688518,59.9036326 87.7688518,64.0586425 85.9308892,69.0656262 C84.1359079,74.0726098 75.5365764,78.5472359 71.3980905,79.193526 C67.6863476,79.7188257 62.9931982,79.9456826 57.8466984,78.3334863 C38.7865353,71.8847011 28.3635683,67.2406885 8.79888656,42.0131942 C-1.15640289,28.1930725 -4.0903888,15.1956851 7.54424174,2.59655759 Z" id="path-3"></path>
    </defs>
    <g id="Teams-SSO" stroke="none" stroke-width="1" fill="none" fill-rule="evenodd" opacity="0.582217262">
        <g id="Messages:-Empty-Copy-80" transform="translate(-697.000000, -271.000000)">
            <g id="Group-52" transform="translate(697.000000, 271.000000)">
                <g id="messages-movius" fill="#757575" fill-rule="nonzero">
                    <path d="M7.52434233,14.3462724 C3.5644483,14.3296315 0.364656288,11.1168926 0.37018365,7.16311082 C0.375725349,3.20932909 3.58449927,0.00553310224 7.54442424,0 C11.5043492,-0.0055187869 14.72208,3.18930922 14.7387468,7.14306006 C14.7467164,9.05590149 13.989216,10.8927144 12.6345194,12.2453094 C11.2798227,13.5979044 9.44015586,14.3542297 7.52434233,14.3462724 L7.52434233,14.3462724 Z" id="Path"></path>
                    <path d="M7.52434233,143.346272 C3.5644483,143.329631 0.364656288,140.116893 0.37018365,136.163111 C0.375725349,132.209329 3.58449927,129.005533 7.54442424,129 C11.5043492,128.994481 14.72208,132.189309 14.7387468,136.14306 C14.7467164,138.055901 13.989216,139.892714 12.6345194,141.245309 C11.2798227,142.597904 9.44015586,143.35423 7.52434233,143.346272 L7.52434233,143.346272 Z" id="Path-Copy"></path>
                    <path d="M179.841888,16.4921475 C183.802753,16.5120237 186.998942,19.7314336 186.984081,23.6861758 C186.969116,27.6409179 183.748736,30.8362057 179.787833,30.8263244 C175.826931,30.8163971 172.62262,27.6050441 172.627546,23.650277 C172.611977,21.739265 173.368528,19.9026519 174.726198,18.5555604 C176.083868,17.2084689 177.928042,16.4646216 179.841888,16.4921475 L179.841888,16.4921475 Z" id="Path"></path>
                    <path d="M71.8552239,257.782639 C71.4827703,257.775512 71.1295834,257.616011 70.8782819,257.341446 C69.1017504,255.579676 67.3282248,253.817906 65.5697292,252.038128 C64.9084146,251.368835 64.851301,250.630512 65.5336575,249.937209 C67.2891471,248.156431 69.0566607,246.387658 70.8361982,244.630889 C71.4373933,244.030627 72.1708514,243.949592 72.7930883,244.552855 C74.6207214,246.349641 76.4363306,248.160433 78.2399159,249.98523 C78.8952185,250.660526 78.841111,251.449871 78.1978322,252.110159 C76.4874322,253.85092 74.7529843,255.567671 73.0155305,257.28142 C72.7118992,257.597334 72.2937237,257.777974 71.8552239,257.782639 Z" id="Path"></path>
                    <path d="M251.798929,10.2043985 C251.872373,10.6939161 251.691113,11.1870826 251.317973,11.5129706 C249.562483,13.2837448 247.813006,15.0665242 246.018438,16.79528 C245.25492,17.5336028 244.740899,17.5366041 243.959345,16.79528 C242.15576,15.0635229 240.418306,13.2807435 238.665822,11.5039666 C237.99549,10.8256701 238.004508,10.0693394 238.665822,9.40304813 C240.411292,7.6202687 242.176802,5.85849845 243.962351,4.1177374 C244.563546,3.53848415 245.306022,3.41242904 245.928259,4.01869409 C247.803988,5.84349189 249.634627,7.71030806 251.465266,9.58012554 C251.611037,9.76788442 251.723858,9.97896869 251.798929,10.2043985 L251.798929,10.2043985 Z" id="Path"></path>
                    <path d="M239.798929,129.204398 C239.872373,129.693916 239.691113,130.187083 239.317973,130.512971 C237.562483,132.283745 235.813006,134.066524 234.018438,135.79528 C233.25492,136.533603 232.740899,136.536604 231.959345,135.79528 C230.15576,134.063523 228.418306,132.280743 226.665822,130.503967 C225.99549,129.82567 226.004508,129.069339 226.665822,128.403048 C228.411292,126.620269 230.176802,124.858498 231.962351,123.117737 C232.563546,122.538484 233.306022,122.412429 233.928259,123.018694 C235.803988,124.843492 237.634627,126.710308 239.465266,128.580126 C239.611037,128.767884 239.723858,128.978969 239.798929,129.204398 L239.798929,129.204398 Z" id="Path-Copy-2"></path>
                    <path d="M252.992301,247.473132 C253.052421,248.019371 252.751823,248.373526 252.391106,248.742687 C250.704754,250.411417 249.04245,252.107158 247.332049,253.748876 C246.406209,254.634263 245.937277,254.625259 245.002418,253.724865 C243.337108,252.124165 241.700855,250.489451 240.093661,248.820721 C239.140766,247.83329 239.113712,247.248034 240.015505,246.308623 C241.656768,244.595874 243.337108,242.920142 245.056526,241.281425 C245.958319,240.405042 246.430257,240.42305 247.392169,241.347454 C249.102569,242.992173 250.755856,244.693917 252.439202,246.365648 C252.774536,246.638188 252.976068,247.041721 252.992301,247.473132 Z" id="Path"></path>
                    <path d="M63.26114,26.1563727 C63.2845528,26.5575032 63.1294507,26.9485008 62.8372974,27.2248398 C61.5868116,28.4643817 60.3693916,29.7399394 59.088846,30.9434656 C58.2020832,31.7808317 57.8864558,31.7568212 56.9425795,30.8504249 C55.7582251,29.7199306 54.6029286,28.5584228 53.4766897,27.3659015 C52.6169808,26.4655078 52.6109688,26.1203569 53.4766897,25.2199633 C54.6460142,23.9894253 55.8814701,22.8189135 57.0838603,21.6183887 C57.6339539,21.0691485 58.2501788,20.9370908 58.845362,21.5133427 C60.2371286,22.8669345 61.6078535,24.2415355 62.9755723,25.6221391 C63.0967634,25.7850956 63.1930056,25.9651433 63.26114,26.1563727 Z" id="Path"></path>
                    <path d="M166.862085,238.355146 C166.819396,240.779685 164.835906,242.721346 162.40723,242.716052 C161.236429,242.735393 160.10701,242.283887 159.2731,241.463125 C158.43919,240.642363 157.970835,239.521286 157.973405,238.352144 C157.973405,235.84905 159.876198,233.892195 162.302021,233.892195 C163.499958,233.878594 164.654068,234.341547 165.509609,235.178868 C166.365151,236.01619 166.85178,237.159034 166.862085,238.355146 Z" id="Path"></path>
                    <path d="M13.1395046,62.5712932 C15.5754384,62.5779153 17.5452398,64.5540647 17.5402527,66.9862234 C17.5524843,68.5961936 16.6912302,70.0867371 15.289192,70.8820585 C13.8871537,71.67738 12.163846,71.6529574 10.7849807,70.818225 C9.40611531,69.9834927 8.58757894,68.4691433 8.64557119,66.8601683 C8.68464887,64.3810845 10.6054672,62.5442814 13.1395046,62.5712932 Z" id="Path"></path>
                    <path d="M85.4031555,215.185016 C83.4189954,215.210111 81.7871153,213.630381 81.7508953,211.64947 C81.7240973,210.66636 82.0968059,209.714246 82.7841892,209.009839 C83.4715726,208.305431 84.415148,207.90866 85.4001495,207.909832 C87.4122567,207.909832 89.0433918,209.53844 89.0433918,211.547425 C89.0433918,213.556411 87.4122567,215.185016 85.4001495,215.185016 L85.4031555,215.185016 Z" id="Path"></path>
                    <path d="M7.26883441,254.322126 C7.3006479,255.302944 6.92584314,256.253429 6.23285276,256.949321 C5.53986238,257.645213 4.59006405,258.024877 3.60755626,257.998734 C1.63669328,257.948253 0.0509453409,256.364965 0.000385664412,254.397159 C-0.0282421259,252.422912 1.54046827,250.793717 3.517377,250.744562 C4.49977297,250.686081 5.46223154,251.038441 6.17390786,251.717128 C6.88558419,252.395816 7.28227502,253.339604 7.26883441,254.322126 L7.26883441,254.322126 Z" id="Path"></path>
                </g>
                <g id="WhatsApp" opacity="0.755347842" transform="translate(53.875000, 45.875000)">
                    <g id="Group-11">
                        <g id="Group-71">
                            <mask id="mask-2" fill="white">
                                <use xlink:href="#path-1"></use>
                            </mask>
                            <g id="Clip-70"></g>
                            <polygon id="Fill-69" fill="#4CAF50" mask="url(#mask-2)" points="-10.2333184 153.528467 177.222655 153.528467 177.222655 -34.2046476 -10.2333184 -34.2046476"></polygon>
                        </g>
                        <g id="Group-74" transform="translate(31.833333, 31.833333)">
                            <mask id="mask-4" fill="white">
                                <use xlink:href="#path-3"></use>
                            </mask>
                            <g id="Clip-73"></g>
                            <polygon id="Fill-72" fill="#FFFFFF" mask="url(#mask-4)" points="-14.3240334 90.028211 98.0024964 90.028211 98.0024964 -10.4542672 -14.3240334 -10.4542672"></polygon>
                        </g>
                    </g>
                </g>
            </g>
        </g>
    </g>
</svg>