<?xml version="1.0" encoding="UTF-8"?>
<svg width="40px" height="40px" viewBox="0 0 40 40" version="1.1" xmlns="http://www.w3.org/2000/svg" xmlns:xlink="http://www.w3.org/1999/xlink">
    <title>icons/avatar</title>
    <g id="icons" stroke="none" stroke-width="1" fill="none" fill-rule="evenodd">
        <path d="M20,34.4010648 C15.1641526,34.4010648 10.6654836,31.9875776 7.99467613,27.9503106 C8.05678793,23.9840284 15.9982254,21.8012422 20,21.8012422 C23.9840284,21.8012422 31.934339,23.9840284 32.0053239,27.9503106 C29.3345164,31.9787045 24.8358474,34.4010648 20,34.4010648 M20,5.99822538 C23.3185448,5.99822538 25.9982254,8.67790594 25.9982254,11.9964508 C25.9982254,15.3149956 23.3185448,17.9946761 20,17.9946761 C16.6814552,17.9946761 14.0017746,15.3149956 14.0017746,11.9964508 C14.0017746,8.67790594 16.6903283,5.99822538 20,5.99822538 M20,0 C8.97071872,0 0,8.96184561 0,20 C0,31.0381544 8.97071872,40 20,40 C31.0292813,40 40,31.0292813 40,20 C40,8.97071872 31.0381544,0 20,0" id="icons/avatar" fill="#D5D5D5" fill-rule="nonzero"></path>
    </g>
</svg>