<?xml version="1.0" encoding="UTF-8"?>
<svg width="117px" height="24px" viewBox="0 0 117 24" version="1.1" xmlns="http://www.w3.org/2000/svg" xmlns:xlink="http://www.w3.org/1999/xlink">
    <title>Group</title>
    <defs>
        <linearGradient x1="50%" y1="0%" x2="50%" y2="100%" id="linearGradient-1">
            <stop stop-color="#291E3A" offset="0%"></stop>
            <stop stop-color="#2E2342" offset="100%"></stop>
        </linearGradient>
        <linearGradient x1="50%" y1="0%" x2="50%" y2="100%" id="linearGradient-2">
            <stop stop-color="#324B5A" offset="0%"></stop>
            <stop stop-color="#2F4655" offset="100%"></stop>
        </linearGradient>
        <path d="M6.71484375,23.9765854 C6.71484375,23.9765854 6.38015446,23.2917556 5.8125,22.4546341 C5.28657489,21.6790511 4.58276571,20.7797032 4.04296875,20.2770732 C3.51653878,19.7868898 2.59652992,19.0121709 1.76953125,18.5209756 C0.837429863,17.9673546 0.01171875,17.7365854 0.01171875,17.7365854 L0.01171875,23.8009756 L0.1875,23.9765854 L6.71484375,23.9765854 Z" id="path-3"></path>
        <linearGradient x1="50%" y1="0%" x2="50%" y2="100%" id="linearGradient-4">
            <stop stop-color="#38586C" offset="0%"></stop>
            <stop stop-color="#2F4655" offset="100%"></stop>
        </linearGradient>
        <path d="M0,13.884878 C0,13.884878 1.18484919,14.2013953 2.66015625,15.0673171 C3.80953782,15.741939 5.23368379,16.8912641 5.96484375,17.6312195 C6.76267731,18.4386506 7.87928622,19.8407642 8.6484375,21.2019512 C9.45177604,22.6236403 9.890625,23.9882927 9.890625,23.9882927 L17.15625,23.9882927 C17.15625,23.9882927 16.7578125,21.1082927 15.3398438,18.2282927 C13.921875,15.3482927 12.2079591,13.568493 10.96875,12.3160976 C9.6696623,11.0031863 7.62855927,9.35363296 5.484375,8.35902439 C2.76393969,7.09711406 0,6.5795122 0,6.5795122 L0,13.884878 Z" id="path-5"></path>
    </defs>
    <g id="Page-1" stroke="none" stroke-width="1" fill="none" fill-rule="evenodd">
        <g id="Sign-In:-Email-2" transform="translate(-583.000000, -48.000000)">
            <g id="Group" transform="translate(583.000000, 48.000000)">
                <g id="opt1">
                    <rect id="Rectangle-12" fill="url(#linearGradient-1)" x="0" y="0" width="24" height="23.9765854" rx="2"></rect>
                    <g id="Path-4" opacity="0.100000001">
                        <use fill="url(#linearGradient-2)" xlink:href="#path-3"></use>
                        <use fill="#FFFFFF" xlink:href="#path-3"></use>
                    </g>
                    <g id="Path-3" opacity="0.100000001">
                        <use fill="url(#linearGradient-4)" xlink:href="#path-5"></use>
                        <use fill="#FFFFFF" xlink:href="#path-5"></use>
                    </g>
                    <path d="M14.015625,15.8282927 C14.015625,15.8282927 13.7882843,15.9804878 13.6757812,15.9804878 C13.5382843,15.9804878 13.265625,15.8282927 13.265625,15.8282927 C13.265625,15.8282927 12.5390625,15.4536585 11.671875,14.844878 C10.8046875,14.2360976 10.1484375,13.5453659 10.1484375,13.5453659 C10.1484375,13.5453659 9.26953125,12.5619512 8.90625,11.9765854 C8.54296875,11.3912195 8.15625,10.6419512 8.15625,10.6419512 C8.15625,10.6419512 8.05369251,10.4489646 8.0625,10.3609756 C8.07322376,10.2538427 8.21484375,10.0565854 8.21484375,10.0565854 L9.75,8.64 C9.75,8.64 9.99609375,8.37073171 9.97265625,8.16 C9.94921875,7.94926829 9.75,7.67935774 9.75,7.67935774 L8.1328125,4.8702439 C8.1328125,4.8702439 7.9453125,4.63609756 7.81640625,4.63609756 L7.5,4.63609756 L6.6328125,4.82341463 C6.6328125,4.82341463 6.2909533,4.92149778 6.0234375,5.09268293 C5.81679809,5.22491286 5.67791843,5.41415912 5.58984375,5.51414634 C5.33203125,5.80682927 5.14453125,6.21658537 5.14453125,6.21658537 C5.14453125,6.21658537 4.80903876,6.8953144 4.72265625,7.2 C4.61763251,7.57043635 4.5703125,8.24195122 4.5703125,8.24195122 C4.5703125,8.24195122 4.6275905,9.06734706 4.8515625,9.7404878 C4.99231685,10.1635206 5.31788383,11.0402599 5.58984375,11.6721951 C5.78328658,12.1216853 5.96484375,12.4331707 5.96484375,12.4331707 C5.96484375,12.4331707 6.66174105,13.5875241 7.16015625,14.1892683 C7.6734598,14.8089875 9,16.097561 9,16.097561 C9,16.097561 10.3132896,17.337831 11.2851562,17.8887805 C11.6445954,18.0925459 12.1377796,18.3644736 12.7382812,18.6029268 C13.5617726,18.929927 14.4726562,19.2 14.4726562,19.2 L15.046875,19.3756098 C15.046875,19.3756098 15.9552091,19.4481951 16.359375,19.4107317 C16.7130216,19.3779512 17.3203125,19.164878 17.3203125,19.164878 C17.3203125,19.164878 17.848726,18.9097338 18.1054687,18.7434146 C18.348726,18.5858314 18.8085937,18.2165854 18.8085937,18.2165854 C18.8085937,18.2165854 18.9823633,18.0333799 19.0664062,17.8887805 C19.1229883,17.7914287 19.21875,17.4790244 19.21875,17.4790244 L19.4296875,16.5541463 C19.4296875,16.5541463 19.4591157,16.2749029 19.4296875,16.1678049 C19.4044282,16.0758785 19.265625,15.9804878 19.265625,15.9804878 C19.265625,15.9804878 18.8219726,15.7007883 18.5976562,15.5707317 C17.9469726,15.1934712 16.640625,14.4585366 16.640625,14.4585366 L16.0898437,14.1073171 C16.0898437,14.1073171 15.8965536,14.0585258 15.8085937,14.0721951 C15.7207723,14.0858429 15.5625,14.1892683 15.5625,14.1892683 C15.5625,14.1892683 15.300404,14.407022 15.1523437,14.5639024 C14.784779,14.9533635 14.015625,15.8282927 14.015625,15.8282927 Z" id="Path-2" fill="#FFFFFF"></path>
                </g>
                <path d="M32.7344913,18.6066038 L32.7344913,11.2396226 L36.4224566,17.2801887 L37.735732,17.2801887 L41.4416873,11.0783019 L41.4596774,18.6066038 L44.1941687,18.6066038 L44.1581886,6.05943396 L41.7655087,6.05943396 L37.1240695,13.8566038 L32.41067,6.05943396 L30,6.05943396 L30,18.6066038 L32.7344913,18.6066038 Z M51.0663772,18.75 C52.2537221,18.75 53.3331266,18.3018868 54.0707196,17.459434 L54.0707196,18.6066038 L56.7332506,18.6066038 L56.7332506,8.96320755 L53.926799,8.96320755 L53.926799,13.7311321 C53.926799,15.5056604 52.9913151,16.3301887 51.6960298,16.3301887 C50.4547146,16.3301887 49.7351117,15.6132075 49.7351117,14 L49.7351117,8.96320755 L46.92866,8.96320755 L46.92866,14.4122642 C46.92866,17.3877358 48.6377171,18.75 51.0663772,18.75 Z M62.148263,18.6066038 L62.148263,5.30660377 L59.3418114,5.30660377 L59.3418114,18.6066038 L62.148263,18.6066038 Z M69.4162531,18.75 C70.2797767,18.75 71.1253102,18.5528302 71.7009926,18.140566 L70.9454094,16.1688679 C70.6395782,16.4018868 70.2258065,16.5273585 69.8120347,16.5273585 C69.0564516,16.5273585 68.6066998,16.0792453 68.6066998,15.254717 L68.6066998,11.3292453 L71.0173697,11.3292453 L71.0173697,9.17830189 L68.6066998,9.17830189 L68.6066998,6.83018868 L65.8002481,6.83018868 L65.8002481,9.17830189 L64.307072,9.17830189 L64.307072,11.3292453 L65.8002481,11.3292453 L65.8002481,15.290566 C65.8002481,17.5849057 67.1315136,18.75 69.4162531,18.75 Z M74.6873449,7.61886792 C75.7307692,7.61886792 76.4323821,6.93773585 76.4323821,6.00566038 C76.4323821,5.14528302 75.7307692,4.5 74.6873449,4.5 C73.6439206,4.5 72.9423077,5.18113208 72.9423077,6.05943396 C72.9423077,6.93773585 73.6439206,7.61886792 74.6873449,7.61886792 Z M76.0905707,18.6066038 L76.0905707,8.96320755 L73.2841191,8.96320755 L73.2841191,18.6066038 L76.0905707,18.6066038 Z M88.1259305,18.6066038 L88.1259305,16.240566 L81.8114144,16.240566 L81.8114144,6.05943396 L78.8970223,6.05943396 L78.8970223,18.6066038 L88.1259305,18.6066038 Z M90.9683623,7.61886792 C92.0117866,7.61886792 92.7133995,6.93773585 92.7133995,6.00566038 C92.7133995,5.14528302 92.0117866,4.5 90.9683623,4.5 C89.924938,4.5 89.2233251,5.18113208 89.2233251,6.05943396 C89.2233251,6.93773585 89.924938,7.61886792 90.9683623,7.61886792 Z M92.3715881,18.6066038 L92.3715881,8.96320755 L89.5651365,8.96320755 L89.5651365,18.6066038 L92.3715881,18.6066038 Z M97.7866005,18.6066038 L97.7866005,13.8386792 C97.7866005,12.0641509 98.7580645,11.2396226 100.10732,11.2396226 C101.348635,11.2396226 102.068238,11.9566038 102.068238,13.5160377 L102.068238,18.6066038 L104.87469,18.6066038 L104.87469,13.0858491 C104.87469,10.1462264 103.147643,8.81981132 100.862903,8.81981132 C99.5496278,8.81981132 98.4162531,9.26792453 97.66067,10.0924528 L97.66067,8.96320755 L94.9801489,8.96320755 L94.9801489,18.6066038 L97.7866005,18.6066038 Z M112.322581,18.75 C114.067618,18.75 115.416873,18.2122642 116.316377,17.190566 L114.823201,15.5773585 C114.157568,16.204717 113.419975,16.509434 112.394541,16.509434 C110.919355,16.509434 109.893921,15.7745283 109.624069,14.5735849 L116.94603,14.5735849 C116.96402,14.340566 117,14.0358491 117,13.8207547 C117,10.7198113 114.805211,8.81981132 111.962779,8.81981132 C109.012407,8.81981132 106.799628,10.8990566 106.799628,13.7849057 C106.799628,16.6528302 108.976427,18.75 112.322581,18.75 Z M114.355459,12.9424528 L109.588089,12.9424528 C109.78598,11.7056604 110.703474,10.9349057 111.980769,10.9349057 C113.240074,10.9349057 114.157568,11.7235849 114.355459,12.9424528 Z" id="MultiLine" fill="#FFFFFF" fill-rule="nonzero"></path>
            </g>
        </g>
    </g>
</svg>