<?xml version="1.0" encoding="UTF-8"?>
<svg width="24px" height="24px" viewBox="0 0 24 24" version="1.1" xmlns="http://www.w3.org/2000/svg" xmlns:xlink="http://www.w3.org/1999/xlink">
    <title>icons/emoji</title>
    <g id="icons" stroke="none" stroke-width="1" fill="none" fill-rule="evenodd">
        <g id="icons/emoji" fill="#FFFFFF" fill-rule="nonzero">
            <g id="icons/all/emoji">
                <path d="M12,0 C5.3832,0 0,5.3832 0,12 C0,18.6168 5.3832,24 12,24 C18.6168,24 24,18.6168 24,12 C24,5.3832 18.6168,0 12,0 Z M12,22.6666667 C6.1184,22.6666667 1.33333333,17.8816 1.33333333,12 C1.33333333,6.1184 6.1184,1.33333333 12,1.33333333 C17.8816,1.33333333 22.6666667,6.1184 22.6666667,12 C22.6666667,17.8816 17.8816,22.6666667 12,22.6666667 Z" id="Shape"></path>
                <circle id="Oval" cx="16.7357333" cy="9.75973333" r="1.51546667"></circle>
                <circle id="Oval" cx="7.26426667" cy="9.75973333" r="1.51546667"></circle>
                <path d="M16.292,14.4016 C13.8853333,16.5469333 10.1146667,16.5469333 7.708,14.4016 C7.43333333,14.1565333 7.01173333,14.1805333 6.76666667,14.4557333 C6.5216,14.7306667 6.54586667,15.152 6.8208,15.3970667 C8.2728,16.6912 10.1365333,17.3386667 12,17.3386667 C13.8634667,17.3386667 15.7272,16.6914667 17.1792,15.3970667 C17.4541333,15.152 17.4784,14.7306667 17.2333333,14.4557333 C16.9882667,14.1805333 16.5666667,14.1565333 16.292,14.4016 Z" id="Path"></path>
            </g>
        </g>
    </g>
</svg>