<svg xmlns="http://www.w3.org/2000/svg" width="18" height="18" viewBox="0 0 18 18">
    <g fill="none" fill-rule="evenodd">
        <g fill="#FFFFFF">
            <path d="M17.7 16.297l-4.414-4.42c2.22-2.889 1.998-7.062-.665-9.704C11.166.717 9.29 0 7.392 0S3.62.716 2.164 2.173c-2.885 2.889-2.885 7.58 0 10.468 1.455 1.457 3.33 2.173 5.228 2.173 1.578 0 3.157-.494 4.465-1.506l4.438 4.396c.198.198.444.296.715.296.247 0 .518-.098.715-.296.37-.37.37-1.013-.024-1.407zM7.416 12.815c-1.454 0-2.787-.568-3.823-1.58-2.096-2.099-2.096-5.53 0-7.654 1.012-1.013 2.369-1.58 3.823-1.58 1.455 0 2.787.568 3.823 1.58 1.036 1.013 1.578 2.37 1.578 3.827 0 1.456-.567 2.79-1.578 3.827-1.012 1.037-2.392 1.58-3.823 1.58z"/>
        </g>
    </g>
</svg>
