<?xml version="1.0" encoding="UTF-8"?>
<svg width="16px" height="18px" viewBox="0 0 16 18" version="1.1" xmlns="http://www.w3.org/2000/svg" xmlns:xlink="http://www.w3.org/1999/xlink">
    <title>Group 16</title>
    <g id="icons" stroke="none" stroke-width="1" fill="none" fill-rule="evenodd">
        <g id="Group-16" fill="#FFFFFF" fill-rule="nonzero">
            <path d="M8,0 C3.57810909,0 0,3.45754687 0,7.72991016 C0,11.2185 2.37574545,14.1151992 5.5788,15.0989766 L7.39814545,17.6916445 C7.53349091,17.8845117 7.75890909,18 8,18 C8.24109091,18 8.46650909,17.8845117 8.60185455,17.6916445 L10.4212,15.0989766 C13.6256727,14.1147422 16,11.2169883 16,7.72991016 C16,3.45483984 12.4190182,0 8,0 Z M9.76890909,13.8198867 C9.60327273,13.8646758 9.45945455,13.9647305 9.36290909,14.1022969 L8,16.0444687 L6.63712727,14.102332 C6.54054545,13.9647656 6.39672727,13.8646758 6.23109091,13.8199219 C3.50461818,13.0828711 1.45454545,10.658707 1.45454545,7.72991016 C1.45454545,4.24300781 4.39083636,1.40625 8,1.40625 C11.6091636,1.40625 14.5454545,4.24300781 14.5454545,7.72991016 C14.5454545,10.661625 12.4923636,13.0836797 9.76890909,13.8198867 Z" id="Shape"></path>
            <path d="M7.99356223,7 C7.41288467,7 7,7.19959709 7,7.49371474 L7,11.4958036 C7,11.7478832 7.41293033,12 7.99356223,12 C8.54839741,12 9,11.7478832 9,11.4958036 L9,7.49371474 C9,7.19959709 8.54839741,7 7.99356223,7 Z" id="Path"></path>
            <path d="M8.00612165,4 C7.44171406,4 7,4.46153465 7,4.9929973 C7,5.52445995 7.44171406,6 8.00612165,6 C8.55828594,6 9,5.52445995 9,4.9929973 C9,4.46158414 8.55824252,4 8.00612165,4 Z" id="Path"></path>
        </g>
    </g>
</svg>