<?xml version="1.0" encoding="UTF-8"?>
<svg width="16px" height="16px" viewBox="0 0 16 16" version="1.1" xmlns="http://www.w3.org/2000/svg" xmlns:xlink="http://www.w3.org/1999/xlink">
    <title>icons/search</title>
    <g id="icons" stroke="none" stroke-width="1" fill="none" fill-rule="evenodd">
        <g id="icons/search" fill="#FFFFFF">
            <path d="M15.6011197,2.36086428 C16.1320326,1.8299513 16.1306414,0.970209748 15.6025109,0.442079225 L15.5579203,0.397488671 C15.0283986,-0.132033076 14.1714395,-0.133424302 13.6391353,0.398883464 L8.25081273,5.78720602 C8.11286025,5.92515849 7.88574094,5.9237637 7.74918683,5.78720602 L2.36086428,0.398883464 C1.8299513,-0.132029509 0.970209748,-0.130638284 0.442079225,0.397488671 L0.397488671,0.442079225 C-0.132033076,0.971600973 -0.133424302,1.82856008 0.398883464,2.36086428 L5.78720602,7.74918683 C5.92515849,7.8871393 5.9237637,8.11425861 5.78720602,8.25081273 L0.398883464,13.6391353 C-0.132029509,14.1700483 -0.130638284,15.0297898 0.397488671,15.5579203 L0.442079225,15.6025109 C0.971600973,16.1320326 1.82856008,16.1334239 2.36086428,15.6011197 L7.74918683,10.2127971 C7.8871393,10.0748446 8.11425861,10.0762394 8.25081273,10.2127971 L13.6391353,15.6011197 C14.1700483,16.1320326 15.0297898,16.1306414 15.5579203,15.6025109 L15.6025109,15.5579203 C16.1320326,15.0283986 16.1334239,14.1714395 15.6011197,13.6391353 L10.2127971,8.25081273 C10.0748446,8.11286025 10.0762394,7.88574094 10.2127971,7.74918683 L15.6011197,2.36086428 Z" id="icons/all/close"></path>
        </g>
    </g>
</svg>