<svg xmlns="http://www.w3.org/2000/svg" width="16" height="19" viewBox="0 0 16 19">
    <defs>
        <filter id="iozyvhxjna" width="117.7%" height="116%" x="-8.8%" y="-8%" filterUnits="objectBoundingBox">
            <feOffset in="SourceAlpha" result="shadowOffsetOuter1"/>
            <feGaussianBlur in="shadowOffsetOuter1" result="shadowBlurOuter1" stdDeviation="12"/>
            <feColorMatrix in="shadowBlurOuter1" result="shadowMatrixOuter1" values="0 0 0 0 0 0 0 0 0 0 0 0 0 0 0 0 0 0 0.5 0"/>
            <feMerge>
                <feMergeNode in="shadowMatrixOuter1"/>
                <feMergeNode in="SourceGraphic"/>
            </feMerge>
        </filter>
    </defs>
    <g fill="none" fill-rule="evenodd">
        <g fill="#FFA565" fill-rule="nonzero">
            <g filter="url(#iozyvhxjna)" transform="translate(-1257 -460) translate(1173 100)">
                <g>
                    <g>
                        <path d="M8 0c-.21 0-.381.17-.381.381v1.524c0 .21.17.38.381.38.21 0 .381-.17.381-.38V.38C8.381.171 8.211 0 8 0zM2.613 2.232c-.097 0-.193.039-.268.113-.149.149-.149.387 0 .536l1.078 1.077c.148.15.387.15.535 0 .15-.148.15-.387 0-.535L2.881 2.345c-.074-.074-.17-.113-.268-.113zm10.774 0c-.098 0-.194.039-.268.113l-1.077 1.078c-.15.148-.15.387 0 .535.148.15.387.15.535 0l1.078-1.077c.149-.149.149-.387 0-.536-.075-.074-.17-.113-.268-.113zM8 3.43c-2.323 0-4.571 1.802-4.571 4.35 0 3.12 2.201 3.913 2.452 5.935h4.238c.25-2.022 2.452-2.815 2.452-5.934 0-2.55-2.248-4.351-4.571-4.351zm-.423.976c.249-.012.46.114.453.363.006.2-.17.386-.37.393C6.24 5.326 5.144 6.53 5.144 8c0 .293.043.574.125.84.08.195-.042.444-.244.505-.202.061-.44-.079-.482-.285-.104-.337-.161-.69-.161-1.06 0-1.85 1.398-3.385 3.196-3.595zM.381 7.619C.171 7.619 0 7.789 0 8c0 .21.17.381.381.381h1.524c.21 0 .38-.17.38-.381 0-.21-.17-.381-.38-.381H.38zm13.714 0c-.21 0-.38.17-.38.381 0 .21.17.381.38.381h1.524c.21 0 .381-.17.381-.381 0-.21-.17-.381-.381-.381h-1.524zm-8.19 6.857v.762h4.19v-.762h-4.19zm0 1.524v.381c0 .438.36.762.762.762h2.666c.402 0 .762-.324.762-.762V16h-4.19zm1.333 1.524c0 .422.34.762.762.762s.762-.34.762-.762H7.238z" transform="translate(75 354) translate(9 6)"/>
                    </g>
                </g>
            </g>
        </g>
    </g>
</svg>
