<svg xmlns="http://www.w3.org/2000/svg" width="180" height="170" viewBox="0 0 180 170">
    <g fill="none" fill-rule="evenodd">
        <g>
            <path fill="#BBBBC1" fill-rule="nonzero" d="M66.166 9.354c-.128-5.268-4.484-9.446-9.752-9.352-5.272.115-9.453 4.48-9.342 9.752.02.788.135 1.572.345 2.332.012.045.027.09.044.134v.066l4.854 14.373.51 5.265c.058.57.54 1.002 1.112 1h5.853c.573.002 1.054-.43 1.11-1l.512-5.265 4.443-14.65c.227-.867.332-1.76.31-2.655zM59.5 25.293h-.077l1.044-13.551c.122-.855.633-1.744 1.51-1.744.534-.01 1.048.208 1.41.6.2.201.316.471.323.755l-4.21 13.94zm-2.743 0l-1.666-13.607c-.047-.291.038-.589.233-.81.328-.397.808-.635 1.322-.656.489-.01.957.197 1.277.567.235.233.353.559.322.888l-1.055 13.651-.433-.033zm-2.555 0l-4.598-13.607c.035-.358.2-.69.466-.933.325-.309.752-.487 1.2-.5 1.11 0 1.488 1.2 1.61 1.755l1.633 13.33-.31-.045zM51.326 4.444c1.91-1.983 4.772-2.73 7.408-1.93 2.635.799 4.6 3.007 5.088 5.718-.594-.304-1.254-.46-1.921-.455-.98.037-1.902.48-2.544 1.221-.745-.718-1.742-1.117-2.777-1.11-1.028.037-2.004.461-2.732 1.188-.652-.708-1.57-1.11-2.533-1.11h-.077c-.658.014-1.303.19-1.878.51.215-1.517.903-2.928 1.966-4.032zm7.465 26.214h-3.844l-.31-3.177h4.442l-.288 3.177z"/>
            <path fill="#FF4E3B" fill-rule="nonzero" d="M48.227 112.497l-3.511-6.085c2.505-5.254 1.257-11.53-3.068-15.426-4.325-3.896-10.697-4.484-15.661-1.445-4.965 3.038-7.341 8.98-5.84 14.604 1.502 5.624 6.523 9.59 12.341 9.75.113.045.232.068.353.069h14.535c.35.001.675-.185.85-.487.176-.303.176-.677.001-.98zm-15.044-.49c-.11-.04-.226-.06-.342-.058-5.025-.001-9.434-3.352-10.78-8.194-1.345-4.841.702-9.986 5.006-12.58 4.303-2.594 9.808-2.001 13.461 1.45 3.653 3.45 4.557 8.913 2.212 13.357-.175.303-.175.676 0 .978l2.934 5.077-12.491-.03z"/>
            <g>
                <path fill="#FF4E3B" fill-rule="nonzero" d="M20.708 35.117H1.115c-.397.002-.766-.21-.965-.553-.2-.344-.2-.769-.001-1.113l4.754-8.297C1.513 18.157 3.14 9.764 8.899 4.54 14.66-.68 23.17-1.483 29.803 2.572c6.633 4.056 9.8 11.998 7.775 19.504-2.023 7.506-8.753 12.78-16.525 12.952-.108.051-.225.082-.345.09zM3.037 32.896h17.238c.122-.043.25-.069.378-.078 6.874.02 12.917-4.548 14.773-11.167 1.855-6.619-.934-13.663-6.817-17.218C22.725.878 15.193 1.684 10.196 6.405 5.199 11.125 3.965 18.6 7.18 24.676c.198.344.198.767 0 1.111l-4.143 7.109z" transform="translate(132.597 47.186)"/>
                <path stroke="#1F1E33" stroke-linecap="square" stroke-width="1.6" d="M12.926 14.157L27.254 14.157M12.926 17.739L25.463 17.739M12.926 21.321L16.508 21.321" transform="translate(132.597 47.186)"/>
            </g>
            <path fill="#BBBBC1" fill-rule="nonzero" d="M178.754 114.667h-.177c.109-.135.192-.29.244-.455.187-.633-.108-1.308-.7-1.6-.634-.43-1.094-1.072-1.3-1.81.667.016 1.272-.388 1.511-1.01.145-.434.19-1.256-1.11-2.011-.378-.269-.696-.613-.933-1.011.177-.096.332-.229.455-.389.227-.297.322-.674.264-1.044-.06-.37-.267-.699-.575-.91-1.39-1.246-2.567-2.71-3.488-4.332-.286-.497-.904-.694-1.425-.455-.52.24-.774.835-.585 1.376.323 1.16.057 2.405-.71 3.333-.445.451-.527 1.145-.2 1.688.148.238.37.422.632.522-.126.296-.366.529-.666.644-.4.039-.766.238-1.015.552-.25.315-.36.717-.307 1.114.152.565.565 1.023 1.11 1.233-.373.538-.818 1.024-1.321 1.444-1.234-.875-2.091-2.184-2.4-3.665.923 0 2.145-.19 2.467-1.244.177-.6.066-1.489-1.5-2.344-.947-.742-1.667-1.735-2.077-2.866.539-.023 1.041-.278 1.377-.7.24-.34.328-.765.244-1.173-.084-.408-.333-.763-.688-.981-1.984-1.624-3.556-3.695-4.587-6.042-.254-.53-.875-.77-1.42-.55-.543.22-.822.826-.635 1.383 0 .122.9 2.51-1.966 4.898-.623.37-.878 1.142-.6 1.81.302.575.92.912 1.566.856-.355 1.21-1 2.576-1.91 2.82-1.766.478-1.588 1.711-1.533 1.945.363.931 1.225 1.574 2.222 1.655-.767 1.321-2.366 3.332-3.444 3.576-.786.076-1.368.767-1.31 1.555.077.789 1 1.489 2.221 2.077-.303.221-.475.58-.455.955.047.61.578 1.067 1.188 1.022 7.642-.555 11.796-.488 23.325.422h.123c.396.016.772-.18.984-.517.212-.335.229-.759.044-1.11-.185-.352-.543-.578-.94-.594v-.067zm-6.209-5.553c-.052-.303-.219-.574-.466-.756.633-.804 1.04-1.762 1.177-2.776.047-.361-.085-.722-.355-.967l-.178-.133c.082-.17.152-.337.211-.5.222.278.467.567.722.844-.154.194-.243.43-.255.678.223 1.247.802 2.404 1.666 3.332-.231.177-.402.422-.489.7-.194 1.505.3 3.018 1.344 4.12-.991.242-2.015.324-3.032.245-.977-.097-1.934-.332-2.844-.7 1.389-1.177 2.666-3.165 2.5-4.087zm-12.928-3.022c-.118-.627-.699-1.057-1.333-.988 1.91-1.577 2.41-4.865 2.466-5.298.07-.527-.242-1.03-.745-1.2.464-.574.838-1.214 1.111-1.9.523.744 1.103 1.445 1.733 2.1-.397.23-.643.652-.644 1.11.354 2.151 1.367 4.138 2.899 5.688-.596.082-1.078.524-1.211 1.11-.433 1.467.666 4.643 2.788 6.343-1.858.676-3.835.963-5.81.844-1.918-.14-3.797-.614-5.553-1.4 2.244-1.532 4.565-5.142 4.299-6.409zM82.174 44.639c-1.885 0-3.415-1.525-3.42-3.41.003-1.31.753-2.504 1.932-3.077-.013-.222-.013-.444 0-.666-.006-1.788.698-3.506 1.959-4.774 1.26-1.269 2.972-1.985 4.76-1.99.524.003 1.045.063 1.556.177 1.152-2.456 3.618-4.026 6.33-4.032 2.791.018 5.312 1.67 6.443 4.221h.111c2.688-.01 5.072 1.726 5.887 4.287.378-.117.77-.177 1.166-.177 1.721.006 3.238 1.131 3.743 2.776 1.487.64 2.324 2.233 2.004 3.82-.32 1.586-1.707 2.732-3.325 2.745l-29.135.1h-.01zm5.22-11.74c-1.41-.02-2.746.633-3.599 1.757-.852 1.125-1.12 2.587-.721 3.94.087.319.028.659-.161.93-.189.27-.488.442-.817.47-.668.021-1.193.58-1.171 1.25.021.668.58 1.193 1.25 1.171l29.133-.089c.659-.006 1.189-.54 1.189-1.2-.012-.577-.431-1.065-1-1.165-.484-.086-.854-.479-.91-.967-.07-.883-.802-1.568-1.689-1.577-.454 0-.89.18-1.21.5-.314.316-.786.415-1.2.25-.414-.164-.69-.56-.7-1.005-.008-1.157-.531-2.25-1.426-2.982-.896-.732-2.07-1.027-3.206-.806-.558.096-1.099-.244-1.255-.789-.6-2.052-2.47-3.472-4.61-3.498-2.133.007-4.009 1.417-4.609 3.465-.091.302-.307.551-.593.685s-.616.139-.906.015c-.565-.241-1.174-.362-1.788-.356z"/>
            <path fill="#797885" fill-rule="nonzero" d="M42.954 142.46c-8.767-.917-17.626-.342-26.202 1.7-.053-.62-.503-1.133-1.11-1.266-1.151-.487-2.07-1.398-2.566-2.544 1.11-.255 1.744-.766 1.821-1.522.078-.755-.177-1.4-1.732-1.921-.811-.424-1.494-1.056-1.977-1.833.37-.133.68-.393.877-.733.35-.708.087-1.565-.6-1.955-1.54-1.006-2.692-2.506-3.265-4.254-.146-.544-.676-.892-1.233-.81-.548.082-.95.556-.944 1.11-.116 1.85-.875 3.602-2.144 4.954-.514.462-.617 1.228-.244 1.81.335.425.88.626 1.41.522-.122.978-.433 2.055-1.11 2.355-1.578.755-1.111 1.944-1.111 2.088.424.708 1.197 1.132 2.021 1.11-.466 1.2-1.41 2.922-2.221 3.255-.718.225-1.137.97-.955 1.7.3 1.11 2.221 1.61 4.154 1.844-1.656.82-3.242 1.775-4.743 2.854-.45.376-.532 1.037-.185 1.51.347.473 1.002.595 1.496.278 3.332-2.443 16.094-10.263 40.22-8.086.612.056 1.155-.397 1.21-1.01.055-.614-.398-1.156-1.011-1.211l.144.055zm-35.62-2.743c-.178-.46-.619-.763-1.111-.766.806-1.414 1.192-3.029 1.11-4.654-.017-.35-.198-.671-.488-.867l-.19-.1c.34-.548.634-1.124.878-1.721.358.493.76.954 1.2 1.377-.322.274-.485.691-.433 1.11.61 1.704 1.702 3.194 3.143 4.288-.395.238-.651.651-.689 1.11-.144 1.334 1.178 3.744 3.166 4.943-1.377.757-2.884 1.247-4.443 1.444-1.522.162-3.06.075-4.554-.255 1.566-1.644 2.832-4.898 2.41-5.91z"/>
            <path fill="#BBBBC1" fill-rule="nonzero" d="M27.038 74.373l-23.825-.067C1.81 74.294.603 73.31.308 71.94c-.295-1.37.399-2.764 1.672-3.353.289-.817.876-1.496 1.644-1.9-.05-.274-.076-.553-.078-.832 0-2.736 2.218-4.954 4.954-4.954 1.099-.002 2.167.365 3.032 1.044 1.115-1.538 2.898-2.45 4.798-2.455 1.448.008 2.842.546 3.921 1.51 1.568-.243 3.131.468 3.977 1.811 2.521.658 4.27 2.948 4.243 5.554v.422c.828.449 1.395 1.263 1.528 2.195.134.933-.182 1.874-.85 2.537-.563.553-1.322.86-2.111.855zM8.5 63.121c-1.51 0-2.733 1.224-2.733 2.733.002.383.085.762.245 1.11.151.337.126.726-.068 1.04-.193.314-.53.511-.899.527-.576.038-1.042.482-1.11 1.055-.058.491-.434.885-.922.966-.375.087-.63.436-.599.819.03.383.337.687.72.714l23.815.066c.2-.019.388-.096.544-.222.214-.21.286-.526.183-.809-.103-.282-.361-.478-.66-.501-.309-.057-.579-.241-.744-.508-.165-.267-.21-.59-.123-.892.083-.289.128-.588.133-.888.01-1.716-1.237-3.18-2.932-3.444-.368-.06-.681-.303-.833-.644-.364-.863-1.342-1.289-2.221-.966-.423.145-.891.022-1.189-.311-.695-.795-1.699-1.252-2.754-1.255-1.597-.005-3.018 1.01-3.533 2.521-.14.407-.504.695-.932.74-.428.045-.844-.16-1.067-.529-.488-.818-1.369-1.32-2.321-1.322z"/>
            <path fill="#797885" fill-rule="nonzero" d="M96.1 132.386c-1.512-.488-3.133.343-3.621 1.855s.343 3.133 1.855 3.62c1.512.489 3.133-.342 3.62-1.854.238-.726.176-1.517-.173-2.197-.348-.68-.953-1.192-1.681-1.424zm-.256 2.944c-.102.32-.43.51-.759.44-.329-.068-.552-.375-.516-.71.035-.334.317-.587.653-.586h.2c.343.112.532.479.422.822v.034zM82.005 66.155h.177l5.265-.878c.614-.095 1.034-.669.939-1.282-.095-.614-.67-1.034-1.283-.939l-5.232.822c-.613.046-1.073.58-1.027 1.194.046.613.58 1.073 1.194 1.027l-.033.056zM70.942 165.252l-.978-.222.223-.977c.087-.397-.044-.81-.344-1.084s-.724-.367-1.11-.245c-.388.123-.68.443-.768.84l-.222.978-.977-.223c-.614-.134-1.22.253-1.356.867-.134.613.253 1.22.867 1.355l.977.222-.222.978c-.066.287-.016.589.14.839.157.25.406.427.693.493h.245c.529.013.994-.35 1.11-.866l.222-.977.978.222h.244c.614.067 1.166-.375 1.233-.989.068-.613-.375-1.165-.988-1.233l.033.022z"/>
            <g fill="#1F1E33">
                <path d="M7.109 5.331C7.109 2.387 9.496 0 12.44 0h46.206c2.945 0 5.332 2.387 5.332 5.331v33.767c0 .98-.796 1.777-1.777 1.777H8.886c-.982 0-1.777-.796-1.777-1.777V5.33zm5.331-1.777c-.981 0-1.777.796-1.777 1.777v31.99h49.76V5.33c0-.981-.795-1.777-1.777-1.777H12.44z" transform="translate(56.355 69.629)"/>
                <path fill-rule="nonzero" d="M24.88 51.538c-.981 0-1.777.795-1.777 1.777 0 .981.796 1.777 1.777 1.777h21.326c.982 0 1.777-.796 1.777-1.777 0-.982-.795-1.777-1.777-1.777H24.88z" transform="translate(56.355 69.629)"/>
                <path d="M7.296 43.634c.301-.602.917-.982 1.59-.982H62.2c.673 0 1.288.38 1.59.982l7.108 14.218c.275.55.246 1.205-.078 1.729s-.896.842-1.512.842H1.777c-.616 0-1.188-.318-1.512-.842-.323-.524-.353-1.179-.077-1.73l7.108-14.217zm2.688 2.572L4.653 56.87h61.78l-5.33-10.663H9.983z" transform="translate(56.355 69.629)"/>
            </g>
            <path fill="#FF4E3B" fill-rule="nonzero" d="M90.967 96.102h-2.002c-.317-.002-.592-.222-.662-.531v-.012c-.47-2.277-.47-4.625 0-6.903v-.019c.07-.31.344-.53.662-.532h2.002c.956 0 1.707-.74 1.707-1.682v-3.18c.004-.939-.753-1.703-1.691-1.708h-.837c-3.424 0-6.356 2.393-6.97 5.69l-.283 1.522c-.414 2.218-.414 4.494 0 6.712l.284 1.522c.613 3.297 3.544 5.69 6.97 5.69h.82c.45.002.884-.175 1.204-.492.32-.318.5-.749.503-1.2v-3.196c0-.941-.75-1.681-1.707-1.681z" transform="rotate(-30 87.628 92.103)"/>
            <path fill="#1F1E33" fill-rule="nonzero" d="M92.568 79.574c.078-.305.389-.49.694-.412 3.107.793 5.69 2.742 7.276 5.488 1.585 2.745 1.98 5.957 1.115 9.044-.088.308-.405.484-.708.398-.303-.087-.479-.403-.392-.707.782-2.788.426-5.688-1.004-8.164-1.43-2.477-3.763-4.235-6.57-4.952-.305-.078-.49-.39-.411-.695zm-.41 3.15l.1.017c.086.021.172.044.257.068 2.056.588 3.794 1.968 4.832 3.836 1.038 1.87 1.292 4.074.704 6.13-.088.308-.404.484-.707.397-.303-.087-.48-.403-.393-.706.022-.077.043-.154.062-.23.444-1.781.163-3.665-.781-5.238-.945-1.573-2.476-2.706-4.256-3.15-.204-.052-.36-.205-.416-.403-.054-.197 0-.409.145-.554.144-.146.355-.203.553-.15zm-1.09 3.918l.09.016.129.034c1.047.299 1.933 1.001 2.462 1.953.53.952.659 2.076.36 3.123-.057.201-.214.353-.412.402-.198.05-.407-.01-.549-.157-.142-.146-.195-.358-.139-.554l.027-.101c.396-1.589-.571-3.197-2.16-3.593-.305-.078-.49-.39-.412-.695.078-.306.389-.49.695-.412z"/>
        </g>
    </g>
</svg>
