<svg xmlns="http://www.w3.org/2000/svg" width="220" height="132" viewBox="0 0 220 132">
    <defs>
        <filter id="yl14jr7o8a" width="117.7%" height="115.1%" x="-8.8%" y="-7.5%" filterUnits="objectBoundingBox">
            <feOffset in="SourceAlpha" result="shadowOffsetOuter1"/>
            <feGaussianBlur in="shadowOffsetOuter1" result="shadowBlurOuter1" stdDeviation="12"/>
            <feColorMatrix in="shadowBlurOuter1" result="shadowMatrixOuter1" values="0 0 0 0 0 0 0 0 0 0 0 0 0 0 0 0 0 0 0.5 0"/>
            <feMerge>
                <feMergeNode in="shadowMatrixOuter1"/>
                <feMergeNode in="SourceGraphic"/>
            </feMerge>
        </filter>
    </defs>
    <g fill="none" fill-rule="evenodd">
        <g fill-rule="nonzero">
            <g filter="url(#yl14jr7o8a)" transform="translate(-218 -186) translate(68 100)">
                <g>
                    <path fill="#FFF" d="M205.217 67.365h-29.634c-.48 0-.87.39-.87.87s.39.87.87.87h28.765v35.147h-7.044V92.6c0-.48-.389-.87-.87-.87h-12.086c-.48 0-.87.39-.87.87s.39.87.87.87h11.182v10.782h-12.365V92.357c0-.48-.39-.87-.87-.87s-.869.39-.869.87v11.895h-7.191c-.48 0-.87.39-.87.87s.39.87.87.87h30.982c.48 0 .87-.39.87-.87V68.235c0-.48-.39-.87-.87-.87z" opacity=".3" transform="translate(150 86)"/>
                    <path fill="#FFF" d="M199.74 74.374h-7.47c-.48 0-.87.39-.87.87v7.469c0 .48.39.87.87.87h7.47c.48 0 .869-.39.869-.87v-7.47c0-.48-.39-.87-.87-.87zm-.87 7.47h-5.73v-5.731h5.73v5.73z" opacity=".5" transform="translate(150 86)"/>
                    <path fill="#FFF" d="M172.174 41.278H158.19c-.48 0-.87.39-.87.87s.39.87.87.87h13.113v61.234h-7.043V92.6c0-.48-.39-.87-.87-.87h-5.13c-.48 0-.87.39-.87.87s.39.87.87.87h4.226v10.782h-12.365v-3.2c0-.48-.39-.87-.87-.87s-.87.39-.87.87v3.2h-7.19c-.48 0-.87.39-.87.87s.39.87.87.87h30.982c.48 0 .87-.39.87-.87V42.148c0-.48-.39-.87-.87-.87z" opacity=".3" transform="translate(150 86)"/>
                    <g fill="#FFF">
                        <path d="M57.46 75.148H42.323V1.435c0-.48-.39-.87-.87-.87s-.87.39-.87.87V88.19h-5.8V68.687c0-.48-.389-.87-.869-.87s-.87.39-.87.87v19.504H7.826V68.713H29.8c.48 0 .87-.39.87-.87s-.39-.87-.87-.87H6.957c-.48 0-.87.39-.87.87v20.348H1.739V2.61h35.018c.48 0 .87-.39.87-.87s-.39-.87-.87-.87H.87c-.48 0-.87.39-.87.87v87.322c0 .48.39.87.87.87h40.582c.48 0 .87-.39.87-.87V76.887H57.46c.48 0 .87-.39.87-.87s-.39-.87-.87-.87z" opacity=".3" transform="translate(150 86) translate(26.087 29.104)"/>
                        <path d="M6.183 9.522v7.46c0 .48.389.87.87.87h7.469c.48 0 .87-.39.87-.87v-7.46c0-.48-.39-.87-.87-.87h-7.47c-.48 0-.87.39-.87.87zm1.739.87h5.73v5.721h-5.73v-5.722zM15.391 24.626c0-.48-.389-.87-.87-.87H7.053c-.48 0-.87.39-.87.87v7.47c0 .48.39.87.87.87h7.47c.48 0 .87-.39.87-.87v-7.47zm-1.739 6.6h-5.73v-5.73h5.73v5.73zM15.391 39.73c0-.48-.389-.87-.87-.87H7.053c-.48 0-.87.39-.87.87v7.47c0 .48.39.87.87.87h7.47c.48 0 .87-.39.87-.87v-7.47zm-1.739 6.6h-5.73V40.6h5.73v5.73zM14.522 53.965h-7.47c-.48 0-.87.39-.87.87v7.47c0 .48.39.869.87.869h7.47c.48 0 .87-.39.87-.87v-7.47c0-.48-.39-.869-.87-.869zm-.87 7.47h-5.73v-5.73h5.73v5.73z" opacity=".5" transform="translate(150 86) translate(26.087 29.104)"/>
                    </g>
                    <path fill="#FFF" d="M157.391 56.4c-.48 0-.87.39-.87.87s.39.87.87.87h5.061c.48 0 .87-.39.87-.87v-7.61c0-.48-.39-.869-.87-.869h-5.06c-.48 0-.87.39-.87.87s.39.87.87.87h4.19V56.4h-4.19zM157.391 71.783c-.48 0-.87.389-.87.87 0 .48.39.869.87.869h5.061c.48 0 .87-.39.87-.87v-7.609c0-.48-.39-.87-.87-.87h-5.06c-.48 0-.87.39-.87.87s.39.87.87.87h4.19v5.87h-4.19zM157.391 88.913h5.061c.48 0 .87-.39.87-.87v-7.608c0-.48-.39-.87-.87-.87h-3.582c-.48 0-.87.39-.87.87s.39.87.87.87h2.713v5.869h-4.192c-.48 0-.87.39-.87.87s.39.869.87.869z" opacity=".5" transform="translate(150 86)"/>
                    <path fill="#FFF" d="M96.009 31.713h4.791c.48 0 .87-.39.87-.87s-.39-.87-.87-.87h-4.791c-.48 0-.87.39-.87.87s.39.87.87.87z" transform="translate(150 86)"/>
                    <path fill="#FFF" d="M178.6 16.522c-1.25 0-2.265-1.011-2.27-2.261-.004-1.25 1.003-2.269 2.253-2.278 1.25-.01 2.272.993 2.287 2.243.004.606-.233 1.188-.658 1.62-.426.43-1.006.673-1.612.676zm0-2.809c-.293 0-.53.238-.53.53 0 .293.237.53.53.53.293 0 .53-.237.53-.53.008-.145-.045-.286-.145-.392-.1-.105-.24-.164-.385-.164v.026zM117.73 121.74c-1.25-.001-2.264-1.012-2.269-2.262-.005-1.25 1.002-2.268 2.252-2.278 1.25-.01 2.273.994 2.287 2.243.005.606-.232 1.189-.658 1.62-.426.43-1.006.674-1.612.676zm0-2.81c-.293 0-.53.238-.53.53 0 .294.237.531.53.531.293 0 .53-.237.53-.53.008-.145-.045-.287-.145-.392-.1-.105-.24-.165-.385-.165v.026z" opacity=".5" transform="translate(150 86)"/>
                    <path fill="#FFF" d="M103.87 56.73c-.48 0-.87.39-.87.87v14.07c0 .48.39.87.87.87s.87-.39.87-.87V57.6c0-.48-.39-.87-.87-.87z" transform="translate(150 86)"/>
                    <path fill="#50A735" d="M129.217 54.33c-6.934.01-12.551 5.631-12.556 12.566 0 6.652 11.356 23.313 11.843 24.017.162.237.43.378.718.378.287 0 .555-.141.717-.378.496-.713 11.8-17.374 11.8-24.017-.005-6.921-5.601-12.537-12.522-12.566zm0 34.522c-2.521-3.809-10.817-16.748-10.817-21.956 0-5.977 4.845-10.822 10.822-10.822 5.976 0 10.821 4.845 10.821 10.822-.043 5.208-8.304 18.147-10.826 21.956z" transform="translate(150 86)"/>
                    <path fill="#FFF" d="M129.217 60.104c-3.75 0-6.79 3.04-6.79 6.792 0 3.75 3.04 6.791 6.79 6.791 3.751 0 6.792-3.04 6.792-6.791-.005-3.75-3.043-6.787-6.792-6.792z" transform="translate(150 86)"/>
                    <path fill="#50A735" d="M89.417 27.696c0-3.117-2.526-5.644-5.643-5.644s-5.644 2.527-5.644 5.644c0 3.116 2.527 5.643 5.644 5.643 3.115-.005 5.639-2.529 5.643-5.643z" transform="translate(150 86)"/>
                    <path fill="#FFF" d="M156.243 80.487c.002-1.708-.58-3.365-1.652-4.696V32.696c0-.3-.154-.58-.408-.74-.255-.159-.574-.175-.844-.043l-24.052 11.74-25.017-11.844c-.094-.04-.194-.064-.296-.07-.092-.015-.186-.015-.278 0h-.13L89.912 38.4c2.191-3.93 4.209-8.243 4.209-10.783 0-5.69-4.614-10.304-10.305-10.304-5.69 0-10.304 4.613-10.304 10.304 0 3.618 4.096 10.835 6.957 15.4l-1.418.696c-.298.146-.487.45-.487.783v62.27c0 .3.154.58.409.738.255.16.574.176.843.044l24.087-11.722 24.913 11.896c.104.047.217.074.33.078.118-.003.233-.03.34-.078l24.53-11.974c.299-.146.488-.45.487-.783v-9.322c.914-1.587 1.505-3.34 1.74-5.156zm-1.739 0c0 2.47-3.678 8.609-5.774 11.809-2.095-3.2-5.773-9.34-5.773-11.809 0-3.189 2.585-5.774 5.773-5.774 3.19 0 5.774 2.585 5.774 5.774zM83.774 19.13c4.728.005 8.56 3.837 8.565 8.566 0 3.713-5.643 13.043-8.565 17.391-2.922-4.417-8.565-13.713-8.565-17.391.004-4.729 3.836-8.56 8.565-8.566zm69.07 75.287l-22.783 11.13V95.166c0-.48-.39-.87-.87-.87s-.87.39-.87.87V105.6l-23.556-11.287V79.6c0-.48-.39-.87-.87-.87s-.869.39-.869.87v14.722l-22.783 11.121v-60.33l1.105-.54c.939 1.47 1.609 2.453 1.739 2.61.162.236.43.378.717.378s.556-.142.718-.378c.165-.244 1.878-2.757 3.817-6L103.061 34v15.957c0 .48.39.87.87.87s.869-.39.869-.87V33.965l23.522 11.157v5.435c0 .48.39.87.87.87s.869-.39.869-.87v-5.34l22.782-11.13v40.122c-2.306-1.521-5.262-1.651-7.694-.34-2.431 1.313-3.945 3.855-3.94 6.618 0 3.826 6.087 12.852 6.8 13.86.162.237.43.379.717.379s.555-.142.717-.378c.33-.478 1.87-2.765 3.4-5.435v5.504z" transform="translate(150 86)"/>
                    <path fill="#50A735" d="M148.696 76.252c-2.34 0-4.235 1.896-4.235 4.235 0 2.339 1.896 4.235 4.235 4.235 2.338 0 4.234-1.896 4.234-4.235 0-2.339-1.896-4.235-4.234-4.235z" transform="translate(150 86)"/>
                    <path fill="#FFF" d="M61.74 19.696c-1.254 0-2.27-1.016-2.27-2.27 0-1.253 1.016-2.27 2.27-2.27 1.253 0 2.269 1.017 2.269 2.27-.005 1.252-1.018 2.265-2.27 2.27zm0-2.809c-.294 0-.531.237-.531.53 0 .293.237.53.53.53.293 0 .53-.237.53-.53 0-.293-.237-.53-.53-.53z" opacity=".5" transform="translate(150 86)"/>
                    <g fill="#FFF" opacity=".1">
                        <path d="M211.557 5.435h-4.966c-.48 0-.87-.39-.87-.87s.39-.87.87-.87h4.966c.48 0 .87.39.87.87s-.39.87-.87.87zm-9.94 0h-4.965c-.48 0-.87-.39-.87-.87s.39-.87.87-.87h4.965c.48 0 .87.39.87.87s-.39.87-.87.87zm-9.939 0h-4.974c-.48 0-.87-.39-.87-.87s.39-.87.87-.87h4.966c.48 0 .87.39.87.87s-.39.87-.87.87h.008zm-9.939 0h-4.965c-.48 0-.87-.39-.87-.87s.39-.87.87-.87h4.965c.48 0 .87.39.87.87s-.39.87-.87.87zm-9.939 0h-4.965c-.48 0-.87-.39-.87-.87s.39-.87.87-.87h4.965c.48 0 .87.39.87.87s-.39.87-.87.87zm-9.94 0h-4.964c-.48 0-.87-.39-.87-.87s.39-.87.87-.87h4.965c.48 0 .87.39.87.87s-.39.87-.87.87zm-9.938 0h-4.965c-.48 0-.87-.39-.87-.87s.39-.87.87-.87h4.965c.48 0 .87.39.87.87s-.39.87-.87.87zm-9.94 0h-4.965c-.48 0-.87-.39-.87-.87s.39-.87.87-.87h4.966c.48 0 .87.39.87.87s-.39.87-.87.87zm-9.939 0h-4.965c-.48 0-.87-.39-.87-.87s.39-.87.87-.87h4.965c.48 0 .87.39.87.87s-.39.87-.87.87zm-9.939 0h-4.965c-.48 0-.87-.39-.87-.87s.39-.87.87-.87h4.965c.48 0 .87.39.87.87s-.39.87-.87.87zM219.13 5.435h-2.608c-.48 0-.87-.39-.87-.87s.39-.87.87-.87h2.608c.48 0 .87.39.87.87s-.39.87-.87.87zM205.543 1.74H27.5c-.78 0-1.413-.39-1.413-.87S26.72 0 27.5 0h178.043c.78 0 1.414.39 1.414.87s-.633.87-1.414.87zM55.217 5.217H.435c-.24 0-.435-.389-.435-.87 0-.48.195-.869.435-.869h54.782c.24 0 .435.39.435.87s-.194.87-.435.87z" transform="translate(150 86) translate(0 125)"/>
                    </g>
                    <path fill="#FFF" d="M122.774 13.913c-1.476 0-2.674-1.194-2.678-2.67.003-1.025.59-1.96 1.513-2.408-.01-.171-.01-.342 0-.513-.005-2.913 2.347-5.282 5.26-5.296.41 0 .819.047 1.218.14.9-1.927 2.83-3.16 4.956-3.166 2.185.014 4.159 1.307 5.044 3.304h.087c2.104-.008 3.97 1.351 4.609 3.357.295-.092.603-.139.913-.14 1.347.006 2.534.887 2.93 2.175 1.183.485 1.856 1.742 1.604 2.996-.253 1.254-1.36 2.153-2.639 2.143l-22.808.078h-.01zm4.087-9.191c-1.953.01-3.53 1.595-3.53 3.548.009.294.056.586.139.87.068.248.021.515-.126.726-.148.212-.382.347-.64.369-.488.036-.866.44-.87.93-.019.261.072.518.25.71.178.191.428.3.69.299l22.809-.07c.493.013.91-.363.95-.856.04-.492-.313-.93-.803-.996-.382-.063-.676-.372-.721-.756-.054-.689-.623-1.224-1.313-1.235-.356 0-.696.141-.948.391-.246.248-.615.325-.94.196-.323-.129-.539-.439-.547-.787-.043-1.683-1.422-3.023-3.104-3.018-.175.005-.35.022-.522.053-.437.074-.86-.192-.983-.618-.47-1.607-1.934-2.718-3.609-2.739-1.67.006-3.139 1.11-3.608 2.713-.072.237-.24.432-.465.536-.224.105-.482.11-.71.012-.442-.189-.918-.283-1.4-.278z" opacity=".1" transform="translate(150 86)"/>
                </g>
            </g>
        </g>
    </g>
</svg>
