<?xml version="1.0" encoding="UTF-8"?>
<svg width="16px" height="16px" viewBox="0 0 16 16" version="1.1" xmlns="http://www.w3.org/2000/svg" xmlns:xlink="http://www.w3.org/1999/xlink">
    <title>icn_vm</title>
    <g id="Final-VVM(M2022-50)" stroke="none" stroke-width="1" fill="none" fill-rule="evenodd">
        <g id="Messages_with_badge-count" transform="translate(-616.000000, -492.000000)">
            <g id="Group-2" transform="translate(604.000000, 480.000000)">
                <g id="Group" transform="translate(12.025424, 12.000000)">
                    <circle id="Oval" stroke="#1F1E33" cx="8" cy="8" r="7.5"></circle>
                    <path d="M10.8888889,5.33333333 C9.53777778,5.33333333 8.44444444,6.42666667 8.44444444,7.77777778 C8.44444444,8.36888889 8.65333333,8.91111111 9.00444444,9.33333333 L6.99555556,9.33333333 C7.34666667,8.91111111 7.55555556,8.36888889 7.55555556,7.77777778 C7.55555556,6.42666667 6.46222222,5.33333333 5.11111111,5.33333333 C3.76,5.33333333 2.66666667,6.42666667 2.66666667,7.77777778 C2.66666667,9.12888889 3.76,10.2222222 5.11111111,10.2222222 L10.8888889,10.2222222 C12.24,10.2222222 13.3333333,9.12888889 13.3333333,7.77777778 C13.3333333,6.42666667 12.24,5.33333333 10.8888889,5.33333333 Z M5.11111111,9.33333333 C4.25333333,9.33333333 3.55555556,8.63555556 3.55555556,7.77777778 C3.55555556,6.92 4.25333333,6.22222222 5.11111111,6.22222222 C5.96888889,6.22222222 6.66666667,6.92 6.66666667,7.77777778 C6.66666667,8.63555556 5.96888889,9.33333333 5.11111111,9.33333333 Z M10.8888889,9.33333333 C10.0311111,9.33333333 9.33333333,8.63555556 9.33333333,7.77777778 C9.33333333,6.92 10.0311111,6.22222222 10.8888889,6.22222222 C11.7466667,6.22222222 12.4444444,6.92 12.4444444,7.77777778 C12.4444444,8.63555556 11.7466667,9.33333333 10.8888889,9.33333333 Z" id="icon/communication/voicemail_24px" fill="#1F1E33" fill-rule="nonzero"></path>
                </g>
            </g>
        </g>
    </g>
</svg>