<?xml version="1.0" encoding="UTF-8"?>
<svg width="14px" height="18px" viewBox="0 0 14 18" version="1.1" xmlns="http://www.w3.org/2000/svg" xmlns:xlink="http://www.w3.org/1999/xlink">
    <title>icn_vm_play</title>
    <g id="Page-1" stroke="none" stroke-width="1" fill="none" fill-rule="evenodd">
        <g id="Messages_with_badge-count" transform="translate(-621.000000, -531.000000)" fill="#1F1E33">
            <g id="Group-2" transform="translate(604.000000, 480.000000)">
                <g id="Combined-Shape" transform="translate(12.000000, 48.000000)">
                    <path d="M8.5,3 C9.05228475,3 9.5,3.44771525 9.5,4 L9.5,20 C9.5,20.5522847 9.05228475,21 8.5,21 L6,21 C5.44771525,21 5,20.5522847 5,20 L5,4 C5,3.44771525 5.44771525,3 6,3 L8.5,3 Z M17.5,3 C18.0522847,3 18.5,3.44771525 18.5,4 L18.5,20 C18.5,20.5522847 18.0522847,21 17.5,21 L15,21 C14.4477153,21 14,20.5522847 14,20 L14,4 C14,3.44771525 14.4477153,3 15,3 L17.5,3 Z"></path>
                </g>
            </g>
        </g>
    </g>
</svg>