<svg xmlns="http://www.w3.org/2000/svg" width="18" height="18" viewBox="0 0 18 18">
    <g fill="none" fill-rule="evenodd">
        <g fill="#FFF">
            <path d="M7.031 8.531c-.337.338-.562.75-.675 1.2l-.563 2.287c-.037.131.075.244.207.207l2.287-.563c.45-.112.863-.337 1.2-.675l7.125-7.125c.075-.075.075-.168 0-.244L14.4 1.406c-.075-.075-.168-.075-.244 0L7.031 8.531zM17.4.637c-.675-.675-1.781-.675-2.456 0-.02.02-.02.057 0 .075l2.38 2.381c.02.019.057.019.075 0 .676-.675.676-1.78.001-2.456z"/>
            <path d="M16.181 5.887c-.487 0-.88.394-.88.881v8.438c0 .488-.413.9-.9.9H2.774c-.488 0-.9-.412-.9-.9V3.58c0-.488.412-.9.9-.9h8.438c.487 0 .88-.394.88-.882 0-.487-.393-.88-.88-.88H2.775c-1.48 0-2.681 1.2-2.681 2.68v11.626c0 1.48 1.2 2.681 2.681 2.681H14.4c1.481 0 2.682-1.2 2.682-2.681V6.787c-.02-.506-.413-.9-.9-.9z"/>
        </g>
    </g>
</svg>
