<?xml version="1.0" encoding="UTF-8"?>
<svg width="24px" height="24px" viewBox="0 0 24 24" version="1.1" xmlns="http://www.w3.org/2000/svg" xmlns:xlink="http://www.w3.org/1999/xlink">
    <title>Cross_icon</title>
    <g id="Cross_icon" stroke="none" stroke-width="1" fill="none" fill-rule="evenodd">
        <g id="Group">
            <path d="M12,24 C5.37272727,24 0,18.6272727 0,12 C0,5.37272727 5.37272727,0 12,0 C18.6272727,0 24,5.37272727 24,12 C24,18.6272727 18.6272727,24 12,24 Z M12,1.71428571 C6.31428571,1.71428571 1.71428571,6.31428571 1.71428571,12 C1.71428571,17.6857143 6.31428571,22.2857143 12,22.2857143 C17.6857143,22.2857143 22.2857143,17.6857143 22.2857143,12 C22.2857143,6.31428571 17.6857143,1.71428571 12,1.71428571 Z" id="Shape" fill="#1F1E33" fill-rule="nonzero"></path>
            <circle id="Oval" fill="#FFFFFF" cx="12" cy="12" r="10"></circle>
            <path d="M11.8041477,6.41460489 C11.3210952,6.46563461 10.9383217,6.86475704 10.9383217,7.35674302 L10.9376294,10.9486294 L7.37986014,10.9493796 C6.85131469,10.9493796 6.40909091,11.3793418 6.40909091,11.9090909 L6.41487849,12.0136237 C6.46840492,12.4947068 6.88630497,12.8748318 7.37986014,12.8748318 L10.9376294,12.8744755 L10.9383217,16.4614388 C10.9383217,16.9885666 11.3777301,17.4090909 11.9090909,17.4090909 L12.0140781,17.4035823 C12.4977077,17.3526013 12.886014,16.9538304 12.886014,16.4614388 L12.8854755,12.8744755 L16.4383217,12.8748318 C16.9671308,12.8748318 17.4090909,12.4384638 17.4090909,11.9090909 L17.4033,11.8045694 C17.3497441,11.3239245 16.9316308,10.9493796 16.4383217,10.9493796 L12.8854755,10.9486294 L12.886014,7.35674302 C12.886014,6.8291806 12.4402542,6.40909091 11.9090909,6.40909091 L11.8041477,6.41460489 Z" id="􀅼" fill="#1F1E33" fill-rule="nonzero" transform="translate(11.909091, 11.909091) rotate(-45.000000) translate(-11.909091, -11.909091) "></path>
        </g>
    </g>
</svg>