<?xml version="1.0" encoding="UTF-8"?>
<svg width="24px" height="24px" viewBox="0 0 24 24" version="1.1" xmlns="http://www.w3.org/2000/svg" xmlns:xlink="http://www.w3.org/1999/xlink">
    <title>Artboard</title>
    <g id="Artboard" stroke="none" stroke-width="1" fill="none" fill-rule="evenodd">
        <g id="Group-57" transform="translate(1.000000, 3.000000)" fill-rule="nonzero">
            <g id="Group-3">
                <g id="Path-3" fill="#000000" opacity="0.504417783" stroke="#FFFFFF">
                    <path d="M19.3532926,17.875 C20.2268506,17.875 20.8863581,17.6622208 21.3318148,17.2366623 C21.7772716,16.8111038 22,16.1811653 22,15.3468468 L22,7.26683549 C22,6.43251693 21.7772716,5.80257842 21.3318148,5.37701996 C20.8863581,4.9514615 20.2268506,4.73868227 19.3532926,4.73868227 L17.572206,4.73901824 L17.0884052,2.11813807 C16.9322061,1.30061787 16.5995598,0.718274715 16.0904664,0.371108603 C15.5813729,0.0239424905 14.8958323,-0.0796473978 14.0338445,0.0603389377 L2.20609949,2.09294053 C1.34411171,2.23852632 0.735224376,2.5562953 0.379437475,3.04624748 C0.0236505743,3.53619965 -0.0819284654,4.19553529 0.0627003561,5.0242544 L1.50320342,12.978278 C1.64783224,13.8013976 1.97758595,14.3851407 2.49246456,14.729507 C3.00734316,15.0738734 3.69866893,15.170464 4.56644186,15.0192788 L4.69639953,14.9975753 L4.6966078,15.3468468 C4.6966078,16.1811653 4.91933618,16.8111038 5.36479295,17.2366623 C5.81024972,17.6622208 6.46975715,17.875 7.34331523,17.875 L19.3532926,17.875 Z" id="Path"></path>
                </g>
                <path d="M3.42965932,13.4444325 C3.1866829,13.2848481 3.0275912,13.009075 2.95238421,12.6171132 L1.54659206,4.87306915 C1.47138508,4.48670687 1.52055888,4.17733707 1.69411346,3.94495975 C1.86766805,3.71258243 2.14824796,3.56279705 2.5358532,3.49560361 L14.2247546,1.49659874 C14.6065746,1.43500475 14.9189729,1.48539983 15.1619493,1.64778398 C15.4049257,1.81016813 15.5640174,2.08734108 15.6392244,2.47930282 L16.0515901,4.73901824 L7.34331523,4.73868227 C6.46975715,4.73868227 5.81024972,4.95006164 5.36479295,5.37282037 C4.91933618,5.79557911 4.6966078,6.42691748 4.6966078,7.26683549 L4.69639953,13.5386713 L4.37553181,13.5914181 C3.98792657,13.6530121 3.67263574,13.6040169 3.42965932,13.4444325 Z" id="Path" fill="#FFFFFF"></path>
                <path d="M6.1970219,14.3181152 L6.19785496,7.37602483 C6.19785496,6.97846364 6.30198772,6.68029275 6.51025322,6.48151215 C6.71851872,6.28273155 7.01934667,6.18334125 7.41273706,6.18334125 L19.2838707,6.18334125 C19.6772611,6.18334125 19.9795354,6.28273155 20.1906934,6.48151215 C20.4018515,6.68029275 20.5074306,6.97846364 20.5074306,7.37602483 L20.5068058,13.6623072 L17.5570026,10.9708739 C17.3776629,10.8196887 17.1867528,10.7035 16.9842725,10.622308 C16.7817921,10.5411159 16.570634,10.5005198 16.3507982,10.5005198 C16.1309624,10.5005198 15.9226969,10.5383162 15.7260017,10.6139088 C15.5293065,10.6895014 15.3383965,10.8056901 15.1532716,10.9624748 L11.5606917,14.0449739 L10.1201886,12.793496 C9.95241917,12.6535097 9.77886458,12.5443203 9.59952485,12.465928 C9.42018511,12.3875356 9.23216764,12.3483395 9.03547244,12.3483395 C8.8561327,12.3483395 8.68257812,12.3847359 8.51480868,12.4575288 C8.34703925,12.5303217 8.17926982,12.6395111 8.01150039,12.7850968 L6.1970219,14.3181152 Z" id="Path" fill="#FFFFFF"></path>
                <path d="M10.3110986,11.1892526 C10.6582078,11.1892526 10.9763912,11.1066607 11.2656489,10.9414768 C11.5549065,10.7762929 11.7863126,10.5537147 11.9598672,10.273742 C12.1334218,9.99376931 12.2201991,9.68299964 12.2201991,9.34143298 C12.2201991,9.01106523 12.1334218,8.70589502 11.9598672,8.42592235 C11.7863126,8.14594968 11.5549065,7.92197154 11.2656489,7.75398794 C10.9763912,7.58600434 10.6582078,7.50201254 10.3110986,7.50201254 C9.96398948,7.50201254 9.64725236,7.58600434 9.36088729,7.75398794 C9.07452222,7.92197154 8.84600869,8.14594968 8.67534668,8.42592235 C8.50468467,8.70589502 8.41935366,9.01106523 8.41935366,9.34143298 C8.41935366,9.68299964 8.50468467,9.99376931 8.67534668,10.273742 C8.84600869,10.5537147 9.07452222,10.7762929 9.36088729,10.9414768 C9.64725236,11.1066607 9.96398948,11.1892526 10.3110986,11.1892526 Z" id="Path" fill="#000000" opacity="0.504417783"></path>
            </g>
        </g>
    </g>
</svg>