<?xml version="1.0" encoding="UTF-8"?>
<svg width="16px" height="16px" viewBox="0 0 16 16" version="1.1" xmlns="http://www.w3.org/2000/svg" xmlns:xlink="http://www.w3.org/1999/xlink">
    <title>Zoom-in White</title>
    <g id="M2022-520-Receiving-Picture-Msg" stroke="none" stroke-width="1" fill="none" fill-rule="evenodd">
        <g id="Messages:-MMS_Photo_Preview" transform="translate(-1068.000000, -28.000000)" fill="#FFFFFF" fill-rule="nonzero">
            <g id="Group" transform="translate(1064.000000, 24.000000)">
                <g id="search-minus" transform="translate(4.000000, 4.000000)">
                    <path d="M9.50046389,5.99941412 L9.50046389,6.99931647 C9.50046389,7.20554633 9.33170565,7.37427986 9.12544558,7.37427986 L3.87518922,7.37427986 C3.66892915,7.37427986 3.50017091,7.20554633 3.50017091,6.99931647 L3.50017091,5.99941412 C3.50017091,5.79318426 3.66892915,5.62445074 3.87518922,5.62445074 L9.12544558,5.62445074 C9.33170565,5.62445074 9.50046389,5.79318426 9.50046389,5.99941412 Z M15.7820206,14.8954204 L14.8976024,15.779709 C14.6038381,16.0734303 14.1288149,16.0734303 13.8381757,15.779709 L10.7192734,12.6643882 C10.5786415,12.523777 10.5005127,12.3331706 10.5005127,12.1331901 L10.5005127,11.6238649 C9.39733385,12.4862806 8.0097661,12.9987306 6.5003174,12.9987306 C2.90951707,12.9987306 0,10.0896397 0,6.4993653 C0,2.90909091 2.90951707,0 6.5003174,0 C10.0911177,0 13.0006348,2.90909091 13.0006348,6.4993653 C13.0006348,8.00859291 12.4881098,9.39595743 11.6255677,10.4989747 L12.1349675,10.4989747 C12.3349773,10.4989747 12.5256116,10.5770921 12.6662435,10.7177033 L15.7820206,13.8330241 C16.0726598,14.1267454 16.0726598,14.6016991 15.7820206,14.8954204 Z M10.7505249,6.4993653 C10.7505249,4.14959477 8.85043215,2.24978029 6.5003174,2.24978029 C4.15020265,2.24978029 2.25010987,4.14959477 2.25010987,6.4993653 C2.25010987,8.84913583 4.15020265,10.7489503 6.5003174,10.7489503 C8.85043215,10.7489503 10.7505249,8.84913583 10.7505249,6.4993653 Z" id="Shape"></path>
                </g>
            </g>
        </g>
    </g>
</svg>