<?xml version="1.0" encoding="UTF-8"?>
<svg width="40px" height="40px" viewBox="0 0 40 40" version="1.1" xmlns="http://www.w3.org/2000/svg" xmlns:xlink="http://www.w3.org/1999/xlink">
    <title>icons/group</title>
    <g id="Messages" stroke="none" stroke-width="1" fill="none" fill-rule="evenodd">
        <g id="Group-Messages:-New-Group" transform="translate(-603.000000, -84.000000)">
            <g id="info" transform="translate(603.000000, 72.000000)">
                <g id="icons/group" transform="translate(0.000000, 12.000000)">
                    <path d="M20,0 C8.97071872,0 0,8.96184561 0,20 C0,31.0381544 8.97071872,40 20,40 C31.0292813,40 40,31.0292813 40,20 C40,8.97071872 31.0381544,0 20,0" fill="#5C5FC8" fill-rule="nonzero"></path>
                    <g id="Group" transform="translate(6.000000, 12.000000)" fill="#FFFFFF">
                        <path d="M7.2,16.4137931 L7.2,15.7247285 C7.2,13.6823496 7.96918001,12.1726152 9.26700701,11.1938604 C10.5341986,10.2384538 12.2258141,9.84827586 14,9.84827586 C15.772813,9.84827586 17.4659583,10.2384855 18.732993,11.1938604 C20.0292902,12.1709106 20.8,13.683737 20.8,15.7247285 L20.8,16.4137931 L7.2,16.4137931 Z M10.4,4.10427946 C10.4,1.83984794 12.1918448,8.74702609e-14 14.3991898,8.74702609e-14 C16.6081552,8.74702609e-14 18.4,1.83984794 18.4,4.10427946 C18.4,6.36871097 16.6081552,8.20689655 14.3991898,8.20689655 C12.1918448,8.20689655 10.4,6.36871097 10.4,4.10427946 Z" id="Fill-1"></path>
                        <path d="M4.95721975,9.84827586 C6.05163383,9.84827586 7.12509685,10.0520507 8,10.5567195 C6.7780613,11.5994762 6.00002066,13.0274897 5.76431088,14.7724138 L3.75699472e-13,14.7723323 L3.75699472e-13,14.0654781 C3.75699472e-13,12.6135822 0.564976187,11.5182923 1.53186566,10.8066698 C2.4664814,10.1189296 3.69813114,9.84827586 4.95721975,9.84827586 Z M23.0427803,9.84827586 C24.3018689,9.84827586 25.5334773,10.1189178 26.4681343,10.8066856 C27.4350238,11.51832 28,12.613628 28,14.0655479 L28,14.7724138 L22.2357718,14.7724138 C22.0000992,13.0275831 21.2220627,11.5995052 20.0000826,10.5566497 C20.8749031,10.0520541 21.9483248,9.84827586 23.0427803,9.84827586 Z M5.19925393,2.46206897 C6.74610534,2.46206897 8,3.74992267 8,5.33371739 C8,6.92210431 6.74610534,8.20689655 5.19925393,8.20689655 C3.65389466,8.20689655 2.4,6.92210431 2.4,5.33371739 C2.4,3.74992267 3.65389466,2.46206897 5.19925393,2.46206897 Z M22.8007461,2.46206897 C24.3461053,2.46206897 25.6,3.74992267 25.6,5.33524812 C25.6,6.92210431 24.3461053,8.20689655 22.8007461,8.20689655 C21.2538947,8.20689655 20,6.92210431 20,5.33524812 C20,3.74992267 21.2538947,2.46206897 22.8007461,2.46206897 Z" id="Combined-Shape" opacity="0.600000024"></path>
                    </g>
                </g>
            </g>
        </g>
    </g>
</svg>
