<?xml version="1.0" encoding="UTF-8"?>
<svg width="24px" height="24px" viewBox="0 0 24 24" version="1.1" xmlns="http://www.w3.org/2000/svg" xmlns:xlink="http://www.w3.org/1999/xlink">
    <title>image_icon</title>
    <g id="image_icon" stroke="none" stroke-width="1" fill="none" fill-rule="evenodd">
        <g id="Group-9" transform="translate(4.000000, 5.000000)">
            <rect id="Rectangle" fill-opacity="0.85" fill="#000000" opacity="0.596981957" x="0" y="0" width="16" height="13" rx="2"></rect>
            <path d="M1.98299217,10.2866683 L5.54973139,6.12921637 C5.90934002,5.71005044 6.54066154,5.6617697 6.95982747,6.02137833 C7.0242236,6.07662471 7.08132678,6.13984208 7.12976076,6.20950681 L9.31229711,9.34874506 C9.62756256,9.80220525 10.2507378,9.91423422 10.704198,9.59896878 C10.8837519,9.47413502 11.017435,9.29388455 11.0847721,9.08582499 L11.3471458,8.27513765 C11.5172045,7.74968691 12.0810263,7.46158473 12.6064771,7.63164344 C12.7939159,7.6923068 12.9592599,7.80698464 13.0817561,7.96128323 L14.2734208,9.46232782 L14.2734208,9.46232782" id="Path-3" stroke="#FFFFFF"></path>
            <ellipse id="Oval" fill="#FFFFFF" cx="12.1904762" cy="2.70833333" rx="1.10822511" ry="1.08333333"></ellipse>
        </g>
    </g>
</svg>