<?xml version="1.0" encoding="UTF-8"?>
<svg width="24px" height="24px" viewBox="0 0 24 24" version="1.1" xmlns="http://www.w3.org/2000/svg" xmlns:xlink="http://www.w3.org/1999/xlink">
    <title>Artboard Copy 6</title>
    <g id="Artboard-Copy-6" stroke="none" stroke-width="1" fill="none" fill-rule="evenodd">
        <g id="close_FILL0_wght300_GRAD0_opsz48" transform="translate(4.000000, 4.000000)" fill="#5C5FC8" fill-rule="nonzero">
            <path d="M8,9.01522488 L1.23975523,15.7754697 C1.09821154,15.9170345 0.931043189,15.9898474 0.738250189,15.9939085 C0.545436038,15.9979695 0.37419609,15.9251566 0.224530345,15.7754697 C0.0748434482,15.6258039 0,15.4566051 0,15.2678731 C0,15.0791411 0.0748434482,14.9099317 0.224530345,14.7602448 L6.98477512,8 L0.224530345,1.23975523 C0.0829655011,1.09821154 0.0101525661,0.931043189 0.00609153966,0.738250189 C0.00203051322,0.545436038 0.0748434482,0.37419609 0.224530345,0.224530345 C0.37419609,0.0748434482 0.543394949,0 0.732126923,0 C0.920858897,0 1.09006833,0.0748434482 1.23975523,0.224530345 L8,6.98477512 L14.7602448,0.224530345 C14.9017885,0.0829655011 15.0689568,0.0101525661 15.2617498,0.00609153966 C15.454564,0.00203051322 15.6258039,0.0748434482 15.7754697,0.224530345 C15.9251566,0.37419609 16,0.543394949 16,0.732126923 C16,0.920858897 15.9251566,1.09006833 15.7754697,1.23975523 L9.01522488,8 L15.7754697,14.7602448 C15.9170345,14.9017885 15.9898474,15.0689568 15.9939085,15.2617498 C15.9979695,15.454564 15.9251566,15.6258039 15.7754697,15.7754697 C15.6258039,15.9251566 15.4566051,16 15.2678731,16 C15.0791411,16 14.9099317,15.9251566 14.7602448,15.7754697 L8,9.01522488 Z" id="Path"></path>
        </g>
    </g>
</svg>
