<?xml version="1.0" encoding="UTF-8"?>
<svg width="14px" height="14px" viewBox="0 0 14 14" version="1.1" xmlns="http://www.w3.org/2000/svg" xmlns:xlink="http://www.w3.org/1999/xlink">
    <title>􀅼</title>
    <g id="M2022-520-Receiving-Picture-Msg" stroke="none" stroke-width="1" fill="none" fill-rule="evenodd">
        <g id="Messages:-MMS_Photo_Preview" transform="translate(-1237.000000, -29.000000)" fill="#FFFFFF" fill-rule="nonzero">
            <g id="icn_close" transform="translate(1232.000000, 24.000000)">
                <path d="M11.8380959,3.52322547 C11.092853,3.60195302 10.5023182,4.21771051 10.5023182,4.97673586 L10.5012501,10.5182207 L5.01240046,10.5193781 C4.19697193,10.5193781 3.51471863,11.1827145 3.51471863,12 L3.52364758,12.1612709 C3.606227,12.9034756 4.25095418,13.4899242 5.01240046,13.4899242 L10.5012501,13.4893746 L10.5023182,19.0232641 C10.5023182,19.8365056 11.180228,20.4852814 12,20.4852814 L12.1619719,20.4767829 C12.9081052,20.3981304 13.5071759,19.7829153 13.5071759,19.0232641 L13.5063451,13.4893746 L18.9875995,13.4899242 C19.8034348,13.4899242 20.4852814,12.8167051 20.4852814,12 L20.4763474,11.8387465 C20.3937224,11.0972178 19.7486662,10.5193781 18.9875995,10.5193781 L13.5063451,10.5182207 L13.5071759,4.97673586 C13.5071759,4.16282395 12.8194672,3.51471863 12,3.51471863 L11.8380959,3.52322547 Z" id="􀅼" transform="translate(12.000000, 12.000000) rotate(-45.000000) translate(-12.000000, -12.000000) "></path>
            </g>
        </g>
    </g>
</svg>