<svg xmlns="http://www.w3.org/2000/svg" width="14" height="3" viewBox="0 0 14 3">
    <g fill="none" fill-rule="evenodd">
        <g fill="#1F1E33">
            <g>
                <path d="M1.556 0C2.415 0 3.11.672 3.11 1.5S2.415 3 1.556 3C.696 3 0 2.328 0 1.5S.696 0 1.556 0zM7 0c.86 0 1.556.672 1.556 1.5S7.859 3 7 3c-.86 0-1.556-.672-1.556-1.5S6.141 0 7 0zm5.444 0C13.304 0 14 .672 14 1.5S13.304 3 12.444 3c-.859 0-1.555-.672-1.555-1.5S11.585 0 12.444 0z" transform="translate(-1114 -585) translate(1114 585)"/>
            </g>
        </g>
    </g>
</svg>
