<svg xmlns="http://www.w3.org/2000/svg" width="14" height="14" viewBox="0 0 14 14">
    <g fill="none" fill-rule="evenodd">
        <g fill="#FD5050">
            <path d="M14 7c0-3.863-3.137-7-7-7S0 3.137 0 7s3.137 7 7 7 7-3.137 7-7zM6.239 3.845c0-.417.344-.761.761-.761.417 0 .762.344.762.761v3.028c0 .417-.345.762-.762.762-.417 0-.761-.345-.761-.762V3.845zm.054 5.748c0-.38.308-.707.707-.707.381 0 .707.309.707.707 0 .381-.308.707-.707.707-.381 0-.707-.308-.707-.707z" transform="translate(-1252 -389) translate(1252 389)"/>
        </g>
    </g>
</svg>
