<svg xmlns="http://www.w3.org/2000/svg" width="24" height="24" viewBox="0 0 24 24">
    <g fill="none" fill-rule="evenodd">
        <g fill-rule="nonzero">
            <g>
                <path fill="#1F1E33" d="M12 0C5.383 0 0 5.383 0 12s5.383 12 12 12 12-5.383 12-12S18.617 0 12 0z"/>
                <circle cx="16.736" cy="9.76" r="1.515" fill="#FFF"/>
                <circle cx="7.264" cy="9.76" r="1.515" fill="#FFF"/>
                <path fill="#FFF" d="M16.292 14.402c-2.407 2.145-6.177 2.145-8.584 0-.275-.245-.696-.221-.941.054s-.221.696.054.941C8.273 16.691 10.137 17.34 12 17.34c1.863 0 3.727-.648 5.18-1.942.274-.245.298-.666.053-.941-.245-.275-.666-.3-.941-.054z"/>
            </g>
        </g>
    </g>
</svg>
