<?xml version="1.0" encoding="UTF-8"?>
<svg width="12px" height="14px" viewBox="0 0 12 14" version="1.1" xmlns="http://www.w3.org/2000/svg" xmlns:xlink="http://www.w3.org/1999/xlink">
    <title>icons/all/bell</title>
    <g id="icons/all/bell" stroke="none" stroke-width="1" fill="none" fill-rule="evenodd">
        <path d="M11.0027701,11.316026 C11.3130194,11.316026 11.5567867,11.2368114 11.734072,11.0783824 C11.9113573,10.9199534 12,10.7125978 12,10.4563155 C12,10.1161591 11.8736842,9.79347645 11.6210526,9.4882676 C11.3684211,9.18305875 11.1024931,8.88600433 10.8232687,8.59710434 C10.6814404,8.443335 10.5706371,8.24529872 10.4908587,8.00299551 C10.4110803,7.76069229 10.3512465,7.49858546 10.3113573,7.21667499 C10.2714681,6.93476452 10.2426593,6.65634881 10.2249307,6.38142786 C10.198338,5.556665 10.1019391,4.81810617 9.93573407,4.16575137 C9.76952909,3.51339657 9.51689751,2.96588451 9.17783934,2.52321518 C8.83878116,2.08054585 8.39445983,1.75203861 7.84487535,1.53769346 C7.72077562,1.10900316 7.49806094,0.745548344 7.1767313,0.447329006 C6.85540166,0.149109669 6.46204986,0 5.9966759,0 C5.53130194,0 5.13905817,0.149109669 4.8199446,0.447329006 C4.50083102,0.745548344 4.27922438,1.10900316 4.15512465,1.53769346 C3.60554017,1.75203861 3.1601108,2.08054585 2.81883657,2.52321518 C2.47756233,2.96588451 2.22382271,3.51339657 2.05761773,4.16575137 C1.89141274,4.81810617 1.79722992,5.556665 1.77506925,6.38142786 C1.75290859,6.65634881 1.72299169,6.93476452 1.68531856,7.21667499 C1.64764543,7.49858546 1.58891967,7.76069229 1.50914127,8.00299551 C1.42936288,8.24529872 1.31855956,8.443335 1.1767313,8.59710434 C0.897506925,8.88600433 0.631578947,9.18305875 0.378947368,9.4882676 C0.126315789,9.79347645 0,10.1161591 0,10.4563155 C0,10.7125978 0.0886426593,10.9199534 0.265927978,11.0783824 C0.443213296,11.2368114 0.686980609,11.316026 0.997229917,11.316026 L11.0027701,11.316026 Z M5.9966759,14 C6.3601108,14 6.68587258,13.9172907 6.97396122,13.7518722 C7.26204986,13.5864537 7.49252078,13.3697787 7.66537396,13.1018472 C7.83822715,12.8339158 7.93795014,12.5415211 7.96454294,12.224663 L4.03545706,12.224663 C4.06204986,12.5415211 4.16177285,12.8339158 4.33462604,13.1018472 C4.50747922,13.3697787 4.73795014,13.5864537 5.02603878,13.7518722 C5.31412742,13.9172907 5.63767313,14 5.9966759,14 Z" id="􀋚" fill="#FFFFFF" fill-rule="nonzero"></path>
    </g>
</svg>
