<?xml version="1.0" encoding="UTF-8"?>
<svg width="24px" height="24px" viewBox="0 0 24 24" version="1.1" xmlns="http://www.w3.org/2000/svg" xmlns:xlink="http://www.w3.org/1999/xlink">
    <title>Artboard Copy</title>
    <g id="Artboard-Copy" stroke="none" stroke-width="1" fill="none" fill-rule="evenodd" opacity="0.5">
        <g id="icons/all/emoji-copy" transform="translate(2.000000, 2.000000)" fill-rule="nonzero">
            <path d="M10,0 C4.486,0 0,4.486 0,10 C0,15.514 4.486,20 10,20 C15.514,20 20,15.514 20,10 C20,4.486 15.514,0 10,0 Z" id="Path" stroke="#000000"></path>
            <circle id="Oval" fill="#000000" cx="13.9464444" cy="8.13311111" r="1.26288889"></circle>
            <circle id="Oval" fill="#000000" cx="6.05355556" cy="8.13311111" r="1.26288889"></circle>
            <path d="M13.5766667,12.0013333 C11.5711111,13.7891111 8.42888889,13.7891111 6.42333333,12.0013333 C6.19444444,11.7971111 5.84311111,11.8171111 5.63888889,12.0464444 C5.43466667,12.2755556 5.45488889,12.6266667 5.684,12.8308889 C6.894,13.9093333 8.44711111,14.4488889 10,14.4488889 C11.5528889,14.4488889 13.106,13.9095556 14.316,12.8308889 C14.5451111,12.6266667 14.5653333,12.2755556 14.3611111,12.0464444 C14.1568889,11.8171111 13.8055556,11.7971111 13.5766667,12.0013333 Z" id="Path" fill="#000000"></path>
        </g>
    </g>
</svg>