<?xml version="1.0" encoding="UTF-8"?>
<svg width="16px" height="16px" viewBox="0 0 16 16" version="1.1" xmlns="http://www.w3.org/2000/svg" xmlns:xlink="http://www.w3.org/1999/xlink">
    <title>Download</title>
    <g id="M2022-520-Receiving-Picture-Msg" stroke="none" stroke-width="1" fill="none" fill-rule="evenodd">
        <g id="Messages:-MMS_Photo_Preview" transform="translate(-1180.000000, -28.000000)" fill="#FFFFFF" fill-rule="nonzero">
            <g id="Shape" transform="translate(1176.000000, 24.000000)">
                <path d="M10.75,4 L13.25,4 C13.665625,4 14,4.334375 14,4.75 L14,10 L16.740625,10 C17.296875,10 17.575,10.671875 17.18125,11.065625 L12.428125,15.821875 C12.19375,16.05625 11.809375,16.05625 11.575,15.821875 L6.815625,11.065625 C6.421875,10.671875 6.7,10 7.25625,10 L10,10 L10,4.75 C10,4.334375 10.334375,4 10.75,4 Z M20,15.75 L20,19.25 C20,19.665625 19.665625,20 19.25,20 L4.75,20 C4.334375,20 4,19.665625 4,19.25 L4,15.75 C4,15.334375 4.334375,15 4.75,15 L9.334375,15 L10.865625,16.53125 C11.49375,17.159375 12.50625,17.159375 13.134375,16.53125 L14.665625,15 L19.25,15 C19.665625,15 20,15.334375 20,15.75 Z M16.125,18.5 C16.125,18.15625 15.84375,17.875 15.5,17.875 C15.15625,17.875 14.875,18.15625 14.875,18.5 C14.875,18.84375 15.15625,19.125 15.5,19.125 C15.84375,19.125 16.125,18.84375 16.125,18.5 Z M18.125,18.5 C18.125,18.15625 17.84375,17.875 17.5,17.875 C17.15625,17.875 16.875,18.15625 16.875,18.5 C16.875,18.84375 17.15625,19.125 17.5,19.125 C17.84375,19.125 18.125,18.84375 18.125,18.5 Z"></path>
            </g>
        </g>
    </g>
</svg>