<svg width="24" height="24" viewBox="0 0 24 24" fill="none" xmlns="http://www.w3.org/2000/svg">
<path d="M6.02387 9.59016C6.01231 9.78234 6.00653 9.98172 6.00653 10.1883C6.00653 14.25 5.15622 15 3.95294 16.4733C3.45419 17.0836 3.89059 18 4.76341 18H15V18.75C15 19.5456 14.6839 20.3087 14.1213 20.8713C13.5587 21.4339 12.7956 21.75 12 21.75C11.2043 21.75 10.4413 21.4339 9.87865 20.8713C9.31604 20.3087 8.99997 19.5456 8.99997 18.75V18M19.4297 15.7172C18.5634 14.618 17.9943 13.5117 17.9943 10.1859C17.9943 6.46875 16.095 5.14359 14.5312 4.5C14.3236 4.41469 14.1281 4.21875 14.0648 4.00547C13.7911 3.07219 13.0228 2.25 12 2.25C10.9772 2.25 10.2093 3.07266 9.93747 4.00641C9.87419 4.22203 9.67872 4.41469 9.46872 4.5C9.17858 4.61833 8.89669 4.75599 8.62497 4.91203" stroke="white" stroke-width="1.5" stroke-linecap="round" stroke-linejoin="round"/>
<path d="M21 21L3 3" stroke="white" stroke-width="1.5" stroke-miterlimit="10" stroke-linecap="round"/>
</svg>
