<?xml version="1.0" encoding="UTF-8"?>
<svg width="24px" height="24px" viewBox="0 0 24 24" version="1.1" xmlns="http://www.w3.org/2000/svg" xmlns:xlink="http://www.w3.org/1999/xlink">
    <title>Photo_icon</title>
    <g id="Photo_icon" stroke="none" stroke-width="1" fill="none" fill-rule="evenodd">
        <g id="Group" transform="translate(0.000000, 2.000000)" fill="#1F1E33" fill-rule="nonzero">
            <g id="Photobig">
                <path d="M21.1126828,19 C22.0656553,19 22.7851179,18.7738291 23.2710707,18.3214872 C23.7570236,17.8691454 24,17.1995604 24,16.3127322 L24,7.72418877 C24,6.83736066 23.7570236,6.16777567 23.2710707,5.71543381 C22.7851179,5.26309195 22.0656553,5.03692102 21.1126828,5.03692102 L19.1696793,5.03727813 L18.6418966,2.25144746 C18.4714976,1.38247494 18.1086107,0.763480816 17.553236,0.394465088 C16.9978613,0.0254493605 16.2499989,-0.0846601711 15.3096486,0.0641364933 L2.40665399,2.22466406 C1.46630369,2.37941259 0.802062956,2.71718102 0.413931791,3.23796934 C0.0258006265,3.75875767 -0.0893765077,4.45958996 0.0684003885,5.34046621 L1.63985827,13.7950927 C1.79763517,14.6700171 2.15736649,15.2904992 2.71905224,15.656539 C3.28073799,16.0225787 4.03491156,16.1252484 4.98157294,15.964548 L5.12334494,15.9414786 L5.12357214,16.3127322 C5.12357214,17.1995604 5.36654856,17.8691454 5.8525014,18.3214872 C6.33845424,18.7738291 7.05791689,19 8.01088934,19 L21.1126828,19 Z M3.74144653,14.2905856 C3.47638135,14.1209574 3.30282676,13.8278279 3.22078277,13.4111973 L1.68719134,5.17976581 C1.60514736,4.76908702 1.6587915,4.44024639 1.84812378,4.19324393 C2.03745605,3.94624147 2.34354323,3.78702904 2.76638531,3.71560664 L15.5179141,1.59079027 C15.9344451,1.52531974 16.2752432,1.57888654 16.5403083,1.75149067 C16.8053735,1.9240948 16.9789281,2.21871219 17.0609721,2.63534285 L17.5108256,5.03727813 L8.01088934,5.03692102 C7.05791689,5.03692102 6.33845424,5.26160398 5.8525014,5.71096991 C5.36654856,6.16033583 5.12357214,6.83140879 5.12357214,7.72418877 L5.12334494,14.3907555 L4.77330743,14.4468221 C4.35046535,14.5122926 4.00651172,14.4602138 3.74144653,14.2905856 Z M6.76038753,15.2192553 L6.76129632,7.84025017 C6.76129632,7.41766765 6.87489569,7.10073075 7.10209442,6.88943949 C7.32929315,6.67814822 7.65746909,6.57250259 8.08662225,6.57250259 L21.0369499,6.57250259 C21.466103,6.57250259 21.7958568,6.67814822 22.026211,6.88943949 C22.2565653,7.10073075 22.3717424,7.41766765 22.3717424,7.84025017 L22.3710608,14.5221727 L19.1530937,11.6613485 C18.9574504,11.5006481 18.7491849,11.3771469 18.5282972,11.2908448 C18.3074096,11.2045428 18.0770553,11.1613917 17.8372344,11.1613917 C17.5974136,11.1613917 17.3702148,11.2015668 17.1556382,11.281917 C16.9410617,11.3622672 16.7327962,11.4857684 16.5308417,11.6524207 L12.6116636,14.9289233 L11.0402057,13.5986811 C10.8571845,13.4498844 10.6678523,13.333823 10.4722089,13.2504969 C10.2765656,13.1671708 10.0714556,13.1255077 9.85687903,13.1255077 C9.66123568,13.1255077 9.4719034,13.1641948 9.2888822,13.2415691 C9.105861,13.3189434 8.9228398,13.4350048 8.7398186,13.5897533 L6.76038753,15.2192553 Z M11.2484713,11.8934713 C11.6271358,11.8934713 11.974245,11.8056813 12.2897988,11.6301012 C12.6053526,11.4545212 12.8577956,11.2179345 13.0471279,10.9203411 C13.2364601,10.6227478 13.3311263,10.2924192 13.3311263,9.92935534 C13.3311263,9.57819521 13.2364601,9.25381848 13.0471279,8.95622516 C12.8577956,8.65863183 12.6053526,8.42055716 12.2897988,8.24200117 C11.974245,8.06344517 11.6271358,7.97416717 11.2484713,7.97416717 C10.8698067,7.97416717 10.5242753,8.06344517 10.211877,8.24200117 C9.89947879,8.42055716 9.65019129,8.65863183 9.46401456,8.95622516 C9.27783782,9.25381848 9.18474945,9.57819521 9.18474945,9.92935534 C9.18474945,10.2924192 9.27783782,10.6227478 9.46401456,10.9203411 C9.65019129,11.2179345 9.89947879,11.4545212 10.211877,11.6301012 C10.5242753,11.8056813 10.8698067,11.8934713 11.2484713,11.8934713 Z" id="􀣵-copy"></path>
            </g>
        </g>
    </g>
</svg>