<?xml version="1.0" encoding="UTF-8"?>
<svg width="12px" height="11px" viewBox="0 0 12 11" version="1.1" xmlns="http://www.w3.org/2000/svg" xmlns:xlink="http://www.w3.org/1999/xlink">
    <title>Group 30</title>
    <g id="Page-1" stroke="none" stroke-width="1" fill="none" fill-rule="evenodd">
        <g id="Group-30" transform="translate(0.000039, 0.000000)" fill-rule="nonzero">
            <path d="M0.591904026,10.9090909 C0.466690429,10.9090909 0.360080607,10.8784128 0.272074559,10.8170566 C0.184068512,10.7557004 0.120689077,10.6810986 0.0819362553,10.5932511 C0.028587127,10.5241193 0.00128886868,10.4319547 0,10.3167575 C-0.00121521709,10.2015602 0.0260830413,10.0928073 0.0819362553,9.99049871 L5.50394286,0.301368974 C5.55048721,0.203642808 5.6227985,0.128983104 5.72087675,0.0773898624 C5.8189643,0.0257966208 5.91225778,0 6.0007572,0 C6.08925662,0 6.18228015,0.0257966208 6.27982779,0.0773898624 C6.37736611,0.128983104 6.45406189,0.203642808 6.5099151,0.301368974 L11.9319217,9.99049871 C11.9784661,10.0928073 12.0011145,10.2015602 11.999916,10.3167575 C11.9986104,10.4319547 11.975962,10.5241193 11.9319217,10.5932511 C11.8797083,10.6755418 11.8095147,10.7487544 11.7213411,10.812889 C11.6331582,10.8770236 11.5333625,10.9090909 11.4219539,10.9090909 L0.591904026,10.9090909 Z" id="Path" fill="#000000"></path>
            <polygon id="Path" fill="#FFD460" points="1.44792435 9.7872852 10.5519703 9.7872852 5.99994733 1.63268299"></polygon>
            <g id="Group-28" transform="translate(5.576803, 4.236169)" fill="#000000">
                <path d="M0.483102375,4.81498654 C0.616545012,4.81498654 0.728754119,4.76708818 0.819729696,4.67129146 C0.910695964,4.57549473 0.956179098,4.45988747 0.956179098,4.32446968 C0.956179098,4.19451221 0.909876783,4.07998544 0.817272155,3.98088937 C0.724667526,3.8817933 0.611648547,3.83224527 0.478215219,3.83224527 C0.350032092,3.83224527 0.238283774,3.88155212 0.142970265,3.98016583 C0.0476567549,4.07878919 0,4.19516822 0,4.32930293 C0,4.46478825 0.0484712809,4.57960926 0.145413843,4.67376596 C0.242365713,4.76791302 0.354928558,4.81498654 0.483102375,4.81498654 L0.483102375,4.81498654 Z" id="Path"></path>
                <path d="M0.483102375,3.18861283 C0.608260119,3.18861283 0.713133837,3.14281273 0.79772353,3.05121254 C0.882313222,2.95961235 0.924608069,2.84874669 0.924608069,2.71861557 L0.924608069,0.455511984 C0.924608069,0.329336216 0.881494042,0.221871198 0.795265988,0.13311693 C0.709047243,0.0443723102 0.603363654,0 0.478215219,0 C0.358316986,0 0.253899402,0.0443723102 0.164962468,0.13311693 C0.0760348421,0.221871198 0.0315710292,0.329336216 0.0315710292,0.455511984 L0.0315710292,2.71861557 C0.0315710292,2.84874669 0.0768540225,2.95961235 0.167420009,3.05121254 C0.257985996,3.14281273 0.363213451,3.18861283 0.483102375,3.18861283 Z" id="Path"></path>
            </g>
        </g>
    </g>
</svg>