<svg xmlns="http://www.w3.org/2000/svg" width="16" height="16" viewBox="0 0 16 16">
    <g fill="none" fill-rule="evenodd">
        <g fill="#1F1E33" fill-rule="nonzero">
            <g>
                <path d="M16 8c0 4.418-3.582 8-8 8s-8-3.582-8-8 3.582-8 8-8 8 3.582 8 8zm-8.925 4.236L13.01 6.3c.202-.201.202-.528 0-.73l-.73-.73c-.201-.2-.528-.2-.73 0L6.71 9.682l-2.26-2.26c-.202-.201-.529-.201-.73 0l-.73.73c-.202.202-.202.529 0 .73l3.355 3.355c.201.201.528.201.73 0z" transform="translate(-619 -151) translate(619 151)"/>
            </g>
        </g>
    </g>
</svg>
