<svg xmlns="http://www.w3.org/2000/svg" width="14" height="19" viewBox="0 0 14 19">
    <g fill="none" fill-rule="evenodd">
        <g fill="#FFF">
            <path d="M1.75 0C.787 0 0 .777 0 1.727c0 .95.787 1.728 1.75 1.728.962 0 1.75-.778 1.75-1.728S2.712 0 1.75 0zm0 5.182C.787 5.182 0 5.959 0 6.909c0 .95.787 1.727 1.75 1.727.962 0 1.75-.777 1.75-1.727 0-.95-.788-1.727-1.75-1.727zm0 5.182c-.963 0-1.75.777-1.75 1.727 0 .95.787 1.727 1.75 1.727.962 0 1.75-.777 1.75-1.727 0-.95-.788-1.727-1.75-1.727zm10.5-6.91c.963 0 1.75-.777 1.75-1.727C14 .777 13.213 0 12.25 0S10.5.777 10.5 1.727c0 .95.787 1.728 1.75 1.728zM7 10.365c-.963 0-1.75.777-1.75 1.727 0 .95.787 1.727 1.75 1.727s1.75-.777 1.75-1.727c0-.95-.787-1.727-1.75-1.727zm5.25 0c-.963 0-1.75.777-1.75 1.727 0 .95.787 1.727 1.75 1.727S14 13.041 14 12.091c0-.95-.787-1.727-1.75-1.727zm0-5.182c-.963 0-1.75.777-1.75 1.727 0 .95.787 1.727 1.75 1.727S14 7.86 14 6.91c0-.95-.787-1.727-1.75-1.727zm-5.25 0c-.963 0-1.75.777-1.75 1.727 0 .95.787 1.727 1.75 1.727S8.75 7.86 8.75 6.91c0-.95-.787-1.727-1.75-1.727zm0 10.363c.963 0 1.75.778 1.75 1.728S7.963 19 7 19s-1.75-.777-1.75-1.727c0-.95.787-1.728 1.75-1.728zM7 0c.963 0 1.75.777 1.75 1.727 0 .95-.787 1.728-1.75 1.728s-1.75-.778-1.75-1.728S6.037 0 7 0z"/>
        </g>
    </g>
</svg>
