<svg xmlns="http://www.w3.org/2000/svg" width="22" height="10" viewBox="0 0 22 10">
    <g fill="none" fill-rule="evenodd" opacity=".8">
        <path fill="#000" d="M17.015 0c-1.345-.005-2.635.52-3.586 1.458-.951.939-1.484 2.213-1.48 3.542-.016 1.162.39 2.29 1.144 3.182h-4.12c.754-.891 1.16-2.02 1.145-3.182 0-1.326-.533-2.597-1.481-3.534C7.689.527 6.402 0 5.06 0 3.72 0 2.433.526 1.484 1.462.534 2.398 0 3.67 0 4.996c-.002 1.326.53 2.597 1.477 3.536C2.425 9.47 3.71 9.998 5.052 10h12.422v-.045c1.725-.178 3.236-1.216 4.004-2.753.768-1.536.684-3.354-.222-4.815C20.351.926 18.75.027 17.016.005L17.015 0zM5.052 8.182c-1.301 0-2.475-.776-2.973-1.965-.497-1.19-.221-2.558.7-3.468.92-.909 2.305-1.18 3.508-.688 1.202.492 1.987 1.652 1.987 2.94.004.844-.334 1.657-.94 2.254-.604.598-1.427.931-2.282.927zm11.96 0c-1.301 0-2.475-.776-2.973-1.965-.497-1.19-.221-2.558.7-3.468.92-.909 2.305-1.18 3.508-.688 1.203.492 1.987 1.652 1.987 2.94.005.844-.333 1.656-.938 2.253-.604.599-1.426.932-2.281.928h-.003z"/>
    </g>
</svg>
