<svg xmlns="http://www.w3.org/2000/svg" width="98" height="90" viewBox="0 0 98 90">
    <g fill="none" fill-rule="evenodd">
        <g fill-rule="nonzero">
            <g>
                <path fill="#1F1E33" d="M25.843 25.774c-1.205 0-2.184-.975-2.189-2.18-.004-1.206.967-2.189 2.173-2.198 1.205-.009 2.191.958 2.205 2.164.005.584-.224 1.146-.634 1.562-.411.415-.97.65-1.555.652zm0-2.709c-.282 0-.511.23-.511.512 0 .282.229.511.511.511.283 0 .512-.229.512-.511.007-.14-.044-.277-.14-.378-.098-.102-.232-.16-.372-.159v.025zM81.166 73.613c-1.206 0-2.184-.975-2.19-2.18-.004-1.207.968-2.189 2.173-2.198 1.206-.01 2.192.958 2.206 2.164.004.584-.224 1.146-.635 1.561-.41.416-.97.65-1.554.653zm0-2.71c-.283 0-.512.23-.512.512 0 .283.23.512.512.512.282 0 .511-.229.511-.512.007-.14-.044-.276-.14-.378-.097-.101-.231-.158-.371-.158v.025zM63.29 6.706c-1.209 0-2.189-.98-2.189-2.189s.98-2.189 2.19-2.189c1.208 0 2.188.98 2.188 2.19-.004 1.206-.982 2.184-2.189 2.188zm0-2.709c-.282 0-.511.23-.511.512 0 .283.229.512.511.512.283 0 .512-.23.512-.512 0-.283-.23-.512-.512-.512z" opacity=".5" transform="translate(-638 -338) translate(638 338)"/>
                <g>
                    <path fill="#1F1E33" d="M6.56 5.032c-.534 0-.967-.432-.969-.965.002-.371.214-.71.548-.872-.004-.061-.004-.123 0-.185-.002-1.054.849-1.91 1.902-1.915.149 0 .296.017.44.05C8.808.448 9.507.002 10.276 0c.79.005 1.503.473 1.824 1.195h.031c.761-.003 1.436.489 1.667 1.214.107-.033.218-.05.33-.05.488.002.917.32 1.06.786.428.176.672.63.58 1.084-.091.454-.491.779-.954.775l-8.25.028H6.56zm1.478-3.324c-.706.003-1.277.577-1.277 1.283.004.107.02.212.05.315.025.09.009.186-.045.263-.053.076-.138.125-.231.133-.177.013-.313.16-.315.336-.007.095.026.188.09.257.065.07.155.108.25.108l8.25-.025c.178.004.33-.131.344-.31.014-.178-.114-.336-.29-.36-.139-.023-.245-.134-.262-.273-.02-.25-.225-.443-.475-.447-.128 0-.251.05-.342.141-.09.09-.223.118-.34.071-.117-.046-.195-.158-.198-.284-.016-.609-.514-1.094-1.123-1.092-.063.002-.126.008-.189.02-.158.026-.311-.07-.355-.224-.17-.581-.7-.984-1.305-.991-.605.002-1.136.401-1.306.981-.026.086-.087.156-.168.194-.08.038-.174.04-.256.004-.16-.068-.333-.102-.507-.1z" opacity=".6" transform="translate(-638 -338) translate(638 338) translate(.866 3)"/>
                    <path fill="#69687A" d="M.969 6.71c-.534 0-.967-.432-.969-.966.001-.371.213-.709.547-.871-.003-.062-.003-.124 0-.186-.001-1.053.85-1.91 1.903-1.915.148 0 .296.017.44.05.326-.696 1.024-1.142 1.793-1.145.79.006 1.504.473 1.824 1.196h.032c.761-.003 1.436.488 1.667 1.214.107-.034.218-.05.33-.05.487.001.917.32 1.06.786.428.175.671.63.58 1.083-.091.454-.492.779-.954.775l-8.25.029H.969z" transform="translate(-638 -338) translate(638 338) translate(.866 3)"/>
                </g>
                <path fill="#1F1E33" d="M62.627 27.682c7.554 0 12.12-7.468 12.12-14.604 0-7.302-4.732-12.115-12.12-12.115-7.387 0-12.119 4.813-12.119 12.115 0 7.22 4.566 14.604 12.12 14.604z" transform="translate(-638 -338) translate(638 338)"/>
                <path fill="#1F1E33" d="M88.193 37.723c0-7.053-5.312-12.862-12.285-13.443l-.996-.083-.58.83c-2.823 4.315-6.973 6.721-11.788 6.721-4.814 0-8.964-2.406-11.787-6.72l-.58-.83-.997.082c-6.972.664-12.285 6.473-12.285 13.443v.166H10.258c-1.105 0-2 .895-2 2v36.66c0 1.104.895 2 2 2h61.575c1.105 0 2-.896 2-2V52.243h12.36c1.105 0 2-.895 2-2V37.723zm-19.68 37.506H13.578c-1.104 0-2-.895-2-2V43.208c0-1.105.896-2 2-2h54.935c1.104 0 2 .895 2 2v30.021c0 1.105-.896 2-2 2zm14.36-26.304h-7.04c-1.105 0-2-.895-2-2v-7.036c0-1.105-.895-2-2-2H40.382v-.166c0-4.979 3.486-9.128 8.3-10.04 3.403 4.73 8.384 7.385 13.945 7.385 5.562 0 10.542-2.573 13.945-7.386 4.815.913 8.3 5.062 8.3 10.04v9.203c0 1.105-.895 2-2 2z" transform="translate(-638 -338) translate(638 338)"/>
                <path fill="#1F1E33" d="M97.396 6.877c-.052-2.147-1.827-3.85-3.975-3.812-2.149.047-3.853 1.826-3.807 3.975.007.322.055.64.14.95.005.02.011.037.018.055v.027l1.979 5.858.208 2.146c.023.233.22.409.453.408h2.385c.234.001.43-.175.453-.408l.208-2.146 1.811-5.97c.093-.354.136-.718.127-1.083zm-2.716 6.497h-.032l.426-5.524c.05-.348.258-.71.615-.71.218-.004.427.085.575.244.082.082.129.192.132.308l-1.716 5.682zm-1.118 0l-.68-5.546c-.019-.119.016-.24.096-.33.133-.162.329-.26.538-.268.2-.004.39.08.52.231.096.095.145.228.132.362l-.43 5.564-.176-.013zm-1.042 0l-1.874-5.546c.014-.146.082-.282.19-.38.132-.127.307-.2.49-.204.452 0 .606.489.656.715l.665 5.433-.127-.018zm-1.172-8.498c.778-.809 1.945-1.113 3.019-.787 1.074.326 1.875 1.226 2.074 2.33-.242-.123-.511-.187-.783-.185-.4.015-.775.196-1.037.498-.304-.293-.71-.455-1.132-.453-.419.016-.817.189-1.114.485-.265-.289-.64-.453-1.032-.453h-.031c-.269.006-.531.078-.766.208.088-.618.368-1.193.802-1.643zM94.39 15.56h-1.566l-.127-1.294h1.81l-.117 1.294z" opacity=".5" transform="translate(-638 -338) translate(638 338)"/>
                <path fill="#1F1E33" d="M15.531 34.444L17.173 33.577 15.226 31.057 18.195 30.822 17.964 29.064 14.789 29.939 15.127 26.844 13.247 26.844 13.585 29.939 10.484 29.064 10.195 30.822 13.148 31.057 11.243 33.577 12.933 34.444 14.162 31.705z" transform="translate(-638 -338) translate(638 338)"/>
                <g>
                    <path fill="#FFF" stroke="#1F1E33" stroke-width="4" d="M6.881.76L.557 8.775c-.685.867-.537 2.124.33 2.809.353.278.79.43 1.24.43h72.065c1.105 0 2-.896 2-2 0-.554-.229-1.083-.633-1.46L66.993.538C66.623.193 66.133 0 65.627 0H8.45c-.612 0-1.19.28-1.57.76z" transform="translate(-638 -338) translate(638 338) translate(4.097 76.548)"/>
                    <path fill="#1F1E33" d="M8.403 7.452c.276 0 .5.223.5.5 0 .276-.224.5-.5.5h-3c-.276 0-.5-.224-.5-.5 0-.277.224-.5.5-.5h3zm5 0c.276 0 .5.223.5.5 0 .276-.224.5-.5.5h-3c-.276 0-.5-.224-.5-.5 0-.277.224-.5.5-.5h3zm5 0c.276 0 .5.223.5.5 0 .276-.224.5-.5.5h-3c-.276 0-.5-.224-.5-.5 0-.277.224-.5.5-.5h3zm5 0c.276 0 .5.223.5.5 0 .276-.224.5-.5.5h-3c-.276 0-.5-.224-.5-.5 0-.277.224-.5.5-.5h3zm30 0c.276 0 .5.223.5.5 0 .276-.224.5-.5.5h-28c-.276 0-.5-.224-.5-.5 0-.277.224-.5.5-.5h28zm5 0c.276 0 .5.223.5.5 0 .276-.224.5-.5.5h-3c-.276 0-.5-.224-.5-.5 0-.277.224-.5.5-.5h3zm5 0c.276 0 .5.223.5.5 0 .276-.224.5-.5.5h-3c-.276 0-.5-.224-.5-.5 0-.277.224-.5.5-.5h3zm5 0c.276 0 .5.223.5.5 0 .276-.224.5-.5.5h-3c-.276 0-.5-.224-.5-.5 0-.277.224-.5.5-.5h3zm-53-2c.276 0 .5.223.5.5 0 .276-.224.5-.5.5h-3c-.276 0-.5-.224-.5-.5 0-.277.224-.5.5-.5h3zm5 0c.276 0 .5.223.5.5 0 .276-.224.5-.5.5h-3c-.276 0-.5-.224-.5-.5 0-.277.224-.5.5-.5h3zm5 0c.276 0 .5.223.5.5 0 .276-.224.5-.5.5h-3c-.276 0-.5-.224-.5-.5 0-.277.224-.5.5-.5h3zm5 0c.276 0 .5.223.5.5 0 .276-.224.5-.5.5h-3c-.276 0-.5-.224-.5-.5 0-.277.224-.5.5-.5h3zm5 0c.276 0 .5.223.5.5 0 .276-.224.5-.5.5h-3c-.276 0-.5-.224-.5-.5 0-.277.224-.5.5-.5h3zm5 0c.276 0 .5.223.5.5 0 .276-.224.5-.5.5h-3c-.276 0-.5-.224-.5-.5 0-.277.224-.5.5-.5h3zm5 0c.276 0 .5.223.5.5 0 .276-.224.5-.5.5h-3c-.276 0-.5-.224-.5-.5 0-.277.224-.5.5-.5h3zm-35 0c.276 0 .5.223.5.5 0 .276-.224.5-.5.5h-3c-.276 0-.5-.224-.5-.5 0-.277.224-.5.5-.5h3zm45 0c.276 0 .5.223.5.5 0 .276-.224.5-.5.5h-3c-.276 0-.5-.224-.5-.5 0-.277.224-.5.5-.5h3zm5 0c.276 0 .5.223.5.5 0 .276-.224.5-.5.5h-3c-.276 0-.5-.224-.5-.5 0-.277.224-.5.5-.5h3zm5 0c.276 0 .5.223.5.5 0 .276-.224.5-.5.5h-3c-.276 0-.5-.224-.5-.5 0-.277.224-.5.5-.5h3zm-15 0c.276 0 .5.223.5.5 0 .276-.224.5-.5.5h-3c-.276 0-.5-.224-.5-.5 0-.277.224-.5.5-.5h3zm-38-2c.276 0 .5.223.5.5 0 .276-.224.5-.5.5h-3c-.276 0-.5-.224-.5-.5 0-.277.224-.5.5-.5h3zm5 0c.276 0 .5.223.5.5 0 .276-.224.5-.5.5h-3c-.276 0-.5-.224-.5-.5 0-.277.224-.5.5-.5h3zm5 0c.276 0 .5.223.5.5 0 .276-.224.5-.5.5h-3c-.276 0-.5-.224-.5-.5 0-.277.224-.5.5-.5h3zm5 0c.276 0 .5.223.5.5 0 .276-.224.5-.5.5h-3c-.276 0-.5-.224-.5-.5 0-.277.224-.5.5-.5h3zm5 0c.276 0 .5.223.5.5 0 .276-.224.5-.5.5h-3c-.276 0-.5-.224-.5-.5 0-.277.224-.5.5-.5h3zm5 0c.276 0 .5.223.5.5 0 .276-.224.5-.5.5h-3c-.276 0-.5-.224-.5-.5 0-.277.224-.5.5-.5h3zm5 0c.276 0 .5.223.5.5 0 .276-.224.5-.5.5h-3c-.276 0-.5-.224-.5-.5 0-.277.224-.5.5-.5h3zm5 0c.276 0 .5.223.5.5 0 .276-.224.5-.5.5h-3c-.276 0-.5-.224-.5-.5 0-.277.224-.5.5-.5h3zm5 0c.276 0 .5.223.5.5 0 .276-.224.5-.5.5h-3c-.276 0-.5-.224-.5-.5 0-.277.224-.5.5-.5h3zm5 0c.276 0 .5.223.5.5 0 .276-.224.5-.5.5h-3c-.276 0-.5-.224-.5-.5 0-.277.224-.5.5-.5h3zm5 0c.276 0 .5.223.5.5 0 .276-.224.5-.5.5h-3c-.276 0-.5-.224-.5-.5 0-.277.224-.5.5-.5h3z" opacity=".6" transform="translate(-638 -338) translate(638 338) translate(4.097 76.548)"/>
                </g>
                <g>
                    <path fill="#1F1E33" stroke="#FFF" d="M9.365.791c.383.002.73.16.98.412s.404.6.402.986h0v3.535c0 .383-.151.725-.401.971-.253.249-.604.398-.996.398h0-2.228c-.293.002-.566.105-.782.278-.216.174-.374.418-.439.704-.56 2.738-.537 5.531.067 8.23h0l3.335.678c.411-.012.78.139 1.043.397.25.246.4.589.4.971h0v3.55c0 .37-.149.722-.41.98-.262.26-.616.405-.986.403h0-.912c-1.784 0-3.44-.622-4.73-1.675-1.285-1.05-2.207-2.528-2.526-4.24h0l-.315-1.693c-.45-2.405-.45-4.872 0-7.277h0l.315-1.691c.319-1.714 1.24-3.191 2.527-4.241C4.999 1.414 6.654.79 8.438.79h.927z" transform="translate(-638 -338) translate(638 338) rotate(-30 111.546 -26.308)"/>
                    <path fill="#ED5C48" stroke="#ED5C48" d="M15.337 2.966c-.245.25-.24.653.011.898 2.303 2.249 3.571 5.238 3.571 8.417 0 3.179-1.268 6.168-3.571 8.417-.252.244-.258.646-.015.898.244.252.646.259.898.015l.004-.004c2.55-2.49 3.954-5.802 3.954-9.326 0-3.524-1.404-6.836-3.954-9.326-.25-.245-.653-.24-.898.01z" transform="translate(-638 -338) translate(638 338) rotate(-30 111.546 -26.308)"/>
                    <path fill="#ED5C48" stroke="#ED5C48" d="M14.188 5.896c-.162-.16-.397-.223-.616-.163-.22.06-.39.233-.448.454-.057.22.009.455.172.613l.004.005c1.467 1.417 2.311 3.359 2.346 5.398.036 2.04-.74 4.009-2.158 5.476-.061.063-.124.126-.188.187-.252.244-.258.646-.014.898s.646.259.898.015l.004-.004c1.708-1.653 2.689-3.916 2.728-6.292.04-2.376-.867-4.67-2.52-6.378-.068-.07-.138-.14-.208-.209h0z" transform="translate(-638 -338) translate(638 338) rotate(-30 111.546 -26.308)"/>
                    <path fill="#ED5C48" stroke="#ED5C48" d="M11.166 8.769c-.245.25-.24.653.01.898 1.31 1.264 1.347 3.35.083 4.659-.027.028-.055.056-.083.082-.163.158-.229.391-.174.611.055.22.224.394.442.456.218.063.453.004.616-.154l.004-.004c.87-.842 1.37-1.995 1.389-3.206.02-1.21-.443-2.38-1.285-3.249l-.104-.104c-.251-.245-.653-.24-.898.01h0z" transform="translate(-638 -338) translate(638 338) rotate(-30 111.546 -26.308)"/>
                </g>
            </g>
        </g>
    </g>
</svg>
