<svg xmlns="http://www.w3.org/2000/svg" width="16" height="17" viewBox="0 0 16 17">
    <g fill="none" fill-rule="evenodd">
        <g fill="#959595">
            <path d="M1.156.889L16 15.733l-1.156 1.156-3.733-3.733c-.622.355-1.422.71-2.222.8v2.933H7.11v-2.933C4.178 13.51 1.778 11.022 1.778 8h1.6c0 2.667 2.222 4.533 4.71 4.533.712 0 1.423-.177 2.045-.444l-1.51-1.511c-.267.089-.445.089-.623.089-1.511 0-2.667-1.156-2.667-2.667v-.622L0 2.044 1.156.89zM14.222 8c0 1.067-.266 2.044-.8 2.844l-1.066-1.066c.177-.534.355-1.156.355-1.778zM8 0c1.511 0 2.667 1.156 2.667 2.667v5.51L5.333 2.845v-.177C5.333 1.156 6.49 0 8 0z"/>
        </g>
    </g>
</svg>
