<?xml version="1.0" encoding="UTF-8"?>
<svg width="14" height="16" viewBox="0 0 14 21" version="1.1" xmlns="http://www.w3.org/2000/svg" xmlns:xlink="http://www.w3.org/1999/xlink">
    <g id="Page-1" stroke="none" stroke-width="1" fill="none" fill-rule="evenodd">
        <g id="Calls:-Hold-Unknown-Contact" transform="translate(-830.000000, -570.000000)" fill="#1F1E33" fill-rule="nonzero">
            <g id="Group-2" transform="translate(800.000000, 553.000000)">
                <g id="microphone" transform="translate(30.000000, 17.000000)">
                    <path d="M7.0530303,13.5550122 C8.98605114,13.5550122 10.5530303,11.8999144 10.5530303,9.85819071 L10.5530303,3.69682152 C10.5530303,1.6550978 8.98605114,0 7.0530303,0 C5.12000947,0 3.5530303,1.6550978 3.5530303,3.69682152 L3.5530303,9.85819071 C3.5530303,11.8999144 5.12000947,13.5550122 7.0530303,13.5550122 Z M13.3636364,8.00977995 L12.7272727,8.00977995 C12.3756818,8.00977995 12.0909091,8.30043612 12.0909091,8.65929095 L12.0909091,10.607824 C12.0909091,13.6442879 9.52596591,16.080766 6.49130682,15.7787434 C3.84642045,15.5152855 1.90909091,13.08855 1.90909091,10.3764357 L1.90909091,8.65929095 C1.90909091,8.30043612 1.62431818,8.00977995 1.27272727,8.00977995 L0.636363636,8.00977995 C0.284772727,8.00977995 0,8.30043612 0,8.65929095 L0,10.2895636 C0,13.928449 2.54426136,17.1723505 6.04545455,17.6651669 L6.04545455,19.051467 L2.65151515,19.051467 C2.29992424,19.051467 2.01515152,19.3421232 2.01515152,19.700978 L2.01515152,20.350489 C2.01515152,20.7093438 2.29992424,21 2.65151515,21 C5.71950333,21 7.82605003,21 8.97115523,21 C9.24019144,21 10.0326346,21 11.3484848,21 C11.7000758,21 11.9848485,20.7093438 11.9848485,20.350489 L11.9848485,19.700978 C11.9848485,19.3421232 11.7000758,19.051467 11.3484848,19.051467 L7.95454545,19.051467 L7.95454545,17.6805928 C11.3634659,17.2032022 14,14.2166695 14,10.607824 L14,8.65929095 C14,8.30043612 13.7152273,8.00977995 13.3636364,8.00977995 Z" id="Shape"></path>
                </g>
            </g>
        </g>
    </g>
</svg>