<svg xmlns="http://www.w3.org/2000/svg" width="33" height="33" viewBox="0 0 33 33">
    <g fill="none" fill-rule="evenodd">
        <g fill="#FFF" fill-rule="nonzero">
            <g>
                <g>
                    <path d="M31.065 25.777l-6.55-6.554c-.426-.427-1.118-.427-1.544 0l-2.163 2.164c-.618.618-1.57.921-2.373.575-4.609-1.985-7.105-4.47-9.015-9.01-.333-.797-.024-1.743.587-2.355l2.175-2.177c.427-.426.427-1.119 0-1.546L5.632.32c-.425-.427-1.117-.427-1.544 0l-2.49 2.492C.103 4.308-.385 6.54.313 8.538c3.843 11 11.357 18.513 22.528 22.52 2.002.717 4.257.235 5.759-1.268l2.465-2.467c.426-.433.426-1.119 0-1.546z" transform="translate(-907 -609) translate(888 590) translate(19.808 19.808)"/>
                </g>
            </g>
        </g>
    </g>
</svg>
